<svg width="114" height="82" viewBox="0 0 114 82" fill="none" xmlns="http://www.w3.org/2000/svg">
<g id="Group 35">
<g id="Group 34">
<g id="Vector 13">
<path d="M79.6552 42.3502C79.6552 42.3502 81.3867 35.4056 79.9702 31.4098C78.9008 28.3934 75.1724 24.6167 75.1724 24.6167C75.1724 24.6167 75.9834 18.1013 72.6483 15.4823C71.3359 14.4516 68.4811 12.6353 68.4811 12.6353C68.4811 12.6353 67.8157 6.39097 65.0485 3.6952C63.5509 2.23621 62.592 1.24493 60.3432 0.934808C58.0355 0.616555 56.5117 1.16244 54.4865 2.359C50.0559 4.97677 50.6078 13.7765 50.6078 13.7765L54.3356 26.6202L59.3775 39.0116L67.373 57.9628C67.373 57.9628 68.8067 62.1651 70.6188 65.4874C71.6904 67.452 75.0423 67.4387 77.3248 66.3358C80.5719 64.7668 81.8394 61.1593 83.0508 58.0903C84.3556 54.785 83.8913 52.2012 83.3146 48.8446C82.8254 45.9971 79.6552 42.3502 79.6552 42.3502Z" fill="#F9C02F"/>
<path d="M77.477 51.6631L79.6552 42.3502M79.6552 42.3502C79.6552 42.3502 81.3867 35.4056 79.9702 31.4098C78.9008 28.3934 75.1724 24.6167 75.1724 24.6167M79.6552 42.3502C79.6552 42.3502 82.8254 45.9971 83.3146 48.8446C83.8913 52.2012 84.3556 54.785 83.0508 58.0903C81.8394 61.1593 80.5719 64.7668 77.3248 66.3358C75.0423 67.4387 71.6904 67.452 70.6188 65.4874C68.8067 62.1651 67.373 57.9628 67.373 57.9628L59.3775 39.0116L54.3356 26.6202L50.6078 13.7765C50.6078 13.7765 50.0559 4.97677 54.4865 2.359C56.5117 1.16244 58.0355 0.616555 60.3432 0.934807C62.592 1.24493 63.5509 2.23621 65.0485 3.6952C67.8157 6.39097 68.4811 12.6353 68.4811 12.6353M75.1724 24.6167L72.8185 34.6806M75.1724 24.6167C75.1724 24.6167 75.9834 18.1013 72.6483 15.4823C71.3359 14.4516 68.4811 12.6353 68.4811 12.6353M68.4811 12.6353L66.1272 22.6992" stroke="#BA813E"/>
</g>
<g id="Rectangle 2">
<path d="M61.0555 40.7921C60.6967 39.168 60.1407 37.5735 59.3993 36.043C58.4366 34.0557 57.2689 32.1529 55.9156 30.3662L55.3259 29.5877L54.4354 28.533L42.4512 29.9666L42.1149 31.168L41.6843 32.4716C41.1066 34.2202 40.7512 36.0481 40.6253 37.9175C40.4989 39.7962 40.6464 41.7071 41.0635 43.5953L41.2714 44.5363L61.352 42.1341L61.0555 40.7921Z" fill="#FDF4DD"/>
<path fill-rule="evenodd" clip-rule="evenodd" d="M65.4075 60.4917L64.032 54.2656L43.9514 56.6677L44.8164 60.5831L45.9366 65.6539L55.826 64.4709L66.0173 63.2518L65.4075 60.4917Z" fill="#FDF4DD"/>
<path d="M46.0417 20.1816L41.3612 20.7415L41.6555 22.0734L43.2447 22.9539L50.4448 22.2244L51.3183 20.9175L51.0241 19.5856L46.0417 20.1816Z" fill="#1E4DC6"/>
<path d="M43.2447 22.9539L43.2671 23.2386C43.4218 25.2107 43.236 27.1633 42.7174 29.0158L42.4512 29.9666L54.4354 28.533L52.7487 26.5353C52.0924 25.7579 51.5619 24.8937 51.178 23.9764L50.4448 22.2244L43.2447 22.9539Z" fill="#E0F4EF"/>
<path d="M43.2282 53.3941L43.6394 55.2556L43.9514 56.6677L64.032 54.2656L63.9186 53.7521L63.1529 50.2859L62.4155 46.9482L61.4796 42.7118L61.352 42.1341L41.2714 44.5363L42.3881 49.591L43.2282 53.3941Z" fill="#1E4DC6"/>
<path d="M42.6062 31.3368L42.8633 30.4184L54.2515 29.0561L54.9349 29.8657L55.5156 30.6323C56.847 32.39 57.9957 34.2618 58.9427 36.2169C59.6662 37.7105 60.2089 39.2665 60.5591 40.8515L60.7477 41.7053L41.66 43.9887L41.56 43.5359C41.1528 41.6931 41.0089 39.8281 41.1323 37.9946C41.2556 36.1634 41.6038 34.3727 42.1696 32.6598L42.6003 31.3563L42.6035 31.3466L42.6062 31.3368ZM53.4829 28.1458L43.1536 29.3815L43.2087 29.1846C43.7285 27.328 43.9229 25.3737 43.7849 23.3984L50.1366 22.7548L50.7094 24.1236C51.1147 25.0919 51.6747 26.0042 52.3674 26.8247L53.4829 28.1458ZM50.1267 21.7574L43.3123 22.4478L42.0993 21.7757L41.9655 21.1704L46.1495 20.6698L50.6355 20.1332L50.7788 20.7818L50.1267 21.7574ZM41.8757 44.9651L60.9634 42.6818L60.9832 42.7712L61.9191 47.0076L62.6564 50.3453L63.4221 53.8115L63.4277 53.8367L44.34 56.1201L44.1359 55.1962L43.7247 53.3347L42.8845 49.5316L41.8757 44.9651ZM44.5557 57.0965L63.6434 54.8132L64.9111 60.5511L65.4129 62.823L55.7181 63.9827L46.3252 65.1063L45.3129 60.5237L44.5557 57.0965Z" stroke="#E0DCC9"/>
</g>
<g id="Group 27">
<path id="Polygon 1" d="M105.624 7.47089L105.858 4.51165L108.141 5.7611L105.624 7.47089Z" fill="#770404"/>
<ellipse id="Ellipse 14" cx="0.379648" cy="0.280337" rx="0.379648" ry="0.280337" transform="matrix(0.851768 0.523919 -0.552194 0.833715 100.012 13.4338)" fill="#D9D9D9"/>
<ellipse id="Ellipse 15" cx="0.284736" cy="0.186891" rx="0.284736" ry="0.186891" transform="matrix(0.851768 0.523919 -0.552194 0.833715 101.827 8.25818)" fill="#D9D9D9"/>
<ellipse id="Ellipse 18" cx="0.379648" cy="0.186891" rx="0.379648" ry="0.186891" transform="matrix(0.851768 0.523919 -0.552194 0.833715 100.292 20.0884)" fill="#D9D9D9"/>
<ellipse id="Ellipse 29" cx="0.0949119" cy="0.186891" rx="0.0949119" ry="0.186891" transform="matrix(0.851768 0.523919 -0.552194 0.833715 80.4521 58.6074)" fill="#D9D9D9"/>
<ellipse id="Ellipse 16" cx="0.284736" cy="0.280337" rx="0.284736" ry="0.280337" transform="matrix(0.851768 0.523919 -0.552194 0.833715 104.616 7.51862)" fill="#D9D9D9"/>
<ellipse id="Ellipse 74" cx="0.284736" cy="0.373782" rx="0.284736" ry="0.373782" transform="matrix(0.851768 0.523919 -0.552194 0.833715 102.801 10.4763)" fill="#D9D9D9"/>
<g id="Group 25">
<path id="Ellipse 13" d="M91.4919 38.8623C81.4353 54.4148 67.754 75.5725 66.4183 65.405C63.2715 63.5153 71.6819 51.498 81.7386 35.9455C91.7953 20.3931 101.262 4.76324 104.409 6.65294C114.874 9.34344 101.549 23.3098 91.4919 38.8623Z" fill="#770404"/>
<ellipse id="Ellipse 19" cx="0.284736" cy="0.373782" rx="0.284736" ry="0.373782" transform="matrix(0.851768 0.523919 -0.552194 0.833715 96.2798 18.4247)" fill="#D9D9D9"/>
<ellipse id="Ellipse 23" cx="0.569472" cy="0.467228" rx="0.569472" ry="0.467228" transform="matrix(0.851768 0.523919 -0.552194 0.833715 93.8892 28.5914)" fill="#D9D9D9"/>
<ellipse id="Ellipse 24" cx="0.284736" cy="0.280337" rx="0.284736" ry="0.280337" transform="matrix(0.851768 0.523919 -0.552194 0.833715 101.354 19.9034)" fill="#D9D9D9"/>
<ellipse id="Ellipse 25" cx="0.284736" cy="0.373782" rx="0.284736" ry="0.373782" transform="matrix(0.851768 0.523919 -0.552194 0.833715 98.3892 13.4338)" fill="#D9D9D9"/>
<ellipse id="Ellipse 27" cx="0.284736" cy="0.373782" rx="0.284736" ry="0.373782" transform="matrix(0.851768 0.523919 -0.552194 0.833715 84.1948 39.8672)" fill="#D9D9D9"/>
<ellipse id="Ellipse 61" cx="0.379648" cy="0.280337" rx="0.379648" ry="0.280337" transform="matrix(0.851768 0.523919 -0.552194 0.833715 86.2012 33.2126)" fill="#D9D9D9"/>
<ellipse id="Ellipse 62" cx="0.284736" cy="0.186891" rx="0.284736" ry="0.186891" transform="matrix(0.851768 0.523919 -0.552194 0.833715 88.0161 37.2792)" fill="#D9D9D9"/>
<ellipse id="Ellipse 66" cx="0.284736" cy="0.373782" rx="0.284736" ry="0.373782" transform="matrix(0.851768 0.523919 -0.552194 0.833715 90.5244 25.0792)" fill="#D9D9D9"/>
<ellipse id="Ellipse 68" cx="0.189824" cy="0.186891" rx="0.189824" ry="0.186891" transform="matrix(0.851768 0.523919 -0.552194 0.833715 96.4561 25.6338)" fill="#D9D9D9"/>
<ellipse id="Ellipse 70" cx="0.569472" cy="0.467228" rx="0.569472" ry="0.467228" transform="matrix(0.851768 0.523919 -0.552194 0.833715 94.8477 21.752)" fill="#D9D9D9"/>
<ellipse id="Ellipse 72" cx="0.284736" cy="0.373782" rx="0.284736" ry="0.373782" transform="matrix(0.851768 0.523919 -0.552194 0.833715 88.4141 33.5823)" fill="#D9D9D9"/>
<ellipse id="Ellipse 73" cx="0.47456" cy="0.373782" rx="0.47456" ry="0.373782" transform="matrix(0.851768 0.523919 -0.552194 0.833715 76.7134 47.6307)" fill="#D9D9D9"/>
<ellipse id="Ellipse 75" cx="0.284736" cy="0.186891" rx="0.284736" ry="0.186891" transform="matrix(0.851768 0.523919 -0.552194 0.833715 88.2085 28.7762)" fill="#D9D9D9"/>
</g>
<ellipse id="Ellipse 17" cx="0.189824" cy="0.280337" rx="0.189824" ry="0.280337" transform="matrix(0.851768 0.523919 -0.552194 0.833715 105.596 11.0898)" fill="#D9D9D9"/>
<ellipse id="Ellipse 20" cx="0.0949119" cy="0.0934456" rx="0.0949119" ry="0.0934456" transform="matrix(0.851768 0.523919 -0.552194 0.833715 102.706 15.4526)" fill="#D9D9D9"/>
<ellipse id="Ellipse 30" cx="0.284736" cy="0.186891" rx="0.284736" ry="0.186891" transform="matrix(0.851768 0.523919 -0.552194 0.833715 100.485 11.0308)" fill="#D9D9D9"/>
<ellipse id="Ellipse 31" cx="0.0949119" cy="0.0934456" rx="0.0949119" ry="0.0934456" transform="matrix(0.851768 0.523919 -0.552194 0.833715 103.982 7.14893)" fill="#D9D9D9"/>
<ellipse id="Ellipse 69" cx="0.189824" cy="0.280337" rx="0.189824" ry="0.280337" transform="matrix(0.851768 0.523919 -0.552194 0.833715 98.2861 18.0435)" fill="#D9D9D9"/>
</g>
<g id="Group 23">
<path id="Line 1" d="M18.8623 14.9142L27.1145 14.9142" stroke="black" stroke-width="6"/>
<line id="Line 2" y1="-3" x2="58.5366" y2="-3" transform="matrix(0.268522 0.963274 -0.988799 0.149255 25.9355 14.9142)" stroke="black" stroke-width="6"/>
<line id="Line 3" x1="29.8657" y1="25.2158" x2="110.422" y2="25.2158" stroke="black" stroke-width="6"/>
<line id="Line 4" x1="41.6538" y1="65.1202" x2="98.6329" y2="65.1202" stroke="black" stroke-width="6"/>
<path id="Line 5" d="M110.815 26.6253L97.4216 66.5897" stroke="black" stroke-width="6"/>
<line id="Line 6" x1="41.6538" y1="68.801" x2="107.278" y2="68.801" stroke="black" stroke-width="5"/>
<rect id="Rectangle 12" x="9.82422" y="13.1792" width="13.3606" height="3.75912" fill="#413F3F"/>
<g id="Group 21">
<ellipse id="Ellipse 109" cx="54.8186" cy="76.6505" rx="7.26975" ry="5.34951" fill="#666161"/>
<path id="Line 9" d="M52.0464 77.7475C51.0713 76.9353 52.7371 73.8543 56.0465 74.6767" stroke="black"/>
<g id="Group 19">
<ellipse id="Ellipse 109_2" cx="54.8186" cy="76.6505" rx="7.26975" ry="5.34951" fill="#666161"/>
<path id="Line 9_2" d="M52.0464 77.7475C51.0713 76.9353 52.7371 73.8543 56.0465 74.6767" stroke="black"/>
<g id="Group 19_2">
<ellipse id="Ellipse 109_3" cx="87.4338" cy="76.6505" rx="7.26975" ry="5.34951" fill="#666161"/>
<path id="Line 9_3" d="M84.6622 77.7475C83.687 76.9353 85.3528 73.8543 88.6622 74.6767" stroke="black"/>
</g>
<g id="Group 20">
<ellipse id="Ellipse 109_4" cx="87.4338" cy="76.6505" rx="7.26975" ry="5.34951" fill="#666161"/>
<path id="Line 9_4" d="M84.6622 77.7475C83.687 76.9353 85.3528 73.8543 88.6622 74.6767" stroke="black"/>
<g id="Group 19_3">
<ellipse id="Ellipse 109_5" cx="87.4338" cy="76.6505" rx="7.26975" ry="5.34951" fill="#666161"/>
<path id="Line 9_5" d="M84.6622 77.7475C83.687 76.9353 85.3528 73.8543 88.6622 74.6767" stroke="black"/>
</g>
</g>
</g>
<g id="Group 20_2">
<ellipse id="Ellipse 109_6" cx="54.8186" cy="76.6505" rx="7.26975" ry="5.34951" fill="#666161"/>
<path id="Line 9_6" d="M52.0464 77.7475C51.0713 76.9353 52.7371 73.8543 56.0465 74.6767" stroke="black"/>
<g id="Group 19_4">
<ellipse id="Ellipse 109_7" cx="54.8186" cy="76.6505" rx="7.26975" ry="5.34951" fill="#666161"/>
<path id="Line 9_7" d="M52.0464 77.7475C51.0713 76.9353 52.7371 73.8543 56.0465 74.6767" stroke="black"/>
</g>
<g id="Group 21_2">
<ellipse id="Ellipse 109_8" cx="87.4338" cy="76.6505" rx="7.26975" ry="5.34951" fill="#666161"/>
<path id="Line 9_8" d="M84.6622 77.7475C83.687 76.9353 85.3528 73.8543 88.6622 74.6767" stroke="black"/>
</g>
<g id="Group 20_3">
<ellipse id="Ellipse 109_9" cx="87.4338" cy="76.6505" rx="7.26975" ry="5.34951" fill="#666161"/>
<path id="Line 9_9" d="M84.6622 77.7475C83.687 76.9353 85.3528 73.8543 88.6622 74.6767" stroke="black"/>
<g id="Group 19_5">
<ellipse id="Ellipse 109_10" cx="87.4338" cy="76.6505" rx="7.26975" ry="5.34951" fill="#666161"/>
<path id="Line 9_10" d="M84.6622 77.7475C83.687 76.9353 85.3528 73.8543 88.6622 74.6767" stroke="black"/>
</g>
</g>
</g>
</g>
<line id="Line 10" x1="33.7954" y1="42.4631" x2="104.135" y2="42.4631" stroke="black"/>
<line id="Line 11" x1="41.2617" y1="55.7645" x2="100.599" y2="55.7645" stroke="black"/>
<line id="Line 12" x1="69.6621" y1="28.2158" x2="69.6621" y2="66.6744" stroke="black"/>
<line id="Line 13" y1="-0.5" x2="39.1767" y2="-0.5" transform="matrix(0.190578 0.981672 -0.99452 0.104547 47.5488 28.2158)" stroke="black"/>
<line id="Line 14" y1="-0.5" x2="39.5368" y2="-0.5" transform="matrix(-0.198782 0.980044 -0.994023 -0.109173 91.1675 28.2158)" stroke="black"/>
</g>
</g>
<line id="Line 17" x1="23.1846" y1="6.729" x2="38.51" y2="6.729" stroke="black"/>
<line id="Line 18" x1="9.82422" y1="7.729" x2="0.000231743" y2="7.729" stroke="black"/>
<line id="Line 19" y1="-0.5" x2="14.9511" y2="-0.5" transform="matrix(0.999999 -0.00102485 0.00189266 0.999998 9.82422 39.9045)" stroke="black"/>
<line id="Line 20" x1="5.10889" y1="48.3684" x2="27.1146" y2="48.3684" stroke="black"/>
<line id="Line 21" x1="16.5054" y1="55.8867" x2="23.1857" y2="55.8867" stroke="black"/>
</g>
</svg>
