<svg width="141" height="143" viewBox="0 0 141 143" fill="none" xmlns="http://www.w3.org/2000/svg">
<ellipse cx="70.5" cy="71.5" rx="70.5" ry="71.5" fill="#BA7206"/>
<ellipse cx="71" cy="71.5" rx="66" ry="66.5" fill="#F9C02F"/>
<ellipse cx="71" cy="65" rx="15" ry="14" fill="#770404"/>
<ellipse cx="0.882353" cy="0.933333" rx="0.882353" ry="0.933333" transform="matrix(1 0 0 -1 75.4119 79)" fill="#FDF4DD"/>
<ellipse cx="83.3531" cy="68.7334" rx="0.882353" ry="0.933333" fill="#FDF4DD"/>
<ellipse cx="65.7058" cy="59.4001" rx="0.882353" ry="0.933333" fill="#D9D9D9"/>
<ellipse cx="0.561576" cy="0.508251" rx="0.561576" ry="0.508251" transform="matrix(0.937883 0.346951 -0.313909 0.949453 72.2017 65.9333)" fill="#FDF4DD"/>
<ellipse cx="0.888051" cy="0.927914" rx="0.888051" ry="0.927914" transform="matrix(0.937883 0.346951 -0.313909 0.949453 65.4058 73.4001)" fill="#FDF4DD"/>
<ellipse cx="0.353221" cy="0.345103" rx="0.353221" ry="0.345103" transform="matrix(-0.937883 -0.346951 -0.313909 0.949453 62.0894 67.6445)" fill="#FDF4DD"/>
<ellipse cx="0.882353" cy="0.933333" rx="0.882353" ry="0.933333" transform="matrix(1 0 0 -1 75.4119 58.4668)" fill="#FDF4DD"/>
<ellipse cx="19" cy="17.5" rx="19" ry="17.5" transform="matrix(-1 0 0 1 111 11)" fill="#770404"/>
<ellipse cx="85.2942" cy="44.8333" rx="1.11765" ry="1.16667" transform="rotate(180 85.2942 44.8333)" fill="#FDF4DD"/>
<ellipse cx="1.11765" cy="1.16667" rx="1.11765" ry="1.16667" transform="matrix(-1 0 0 1 77.4707 32)" fill="#FDF4DD"/>
<ellipse cx="1.11765" cy="1.16667" rx="1.11765" ry="1.16667" transform="matrix(-1 0 0 1 99.824 20.3333)" fill="#D9D9D9"/>
<ellipse cx="0.710209" cy="0.636153" rx="0.710209" ry="0.636153" transform="matrix(-0.939362 0.342926 0.317675 0.9482 90.4775 29.6667)" fill="#FDF4DD"/>
<ellipse cx="1.12309" cy="1.16142" rx="1.12309" ry="1.16142" transform="matrix(-0.939362 0.342926 0.317675 0.9482 99.0859 39)" fill="#FDF4DD"/>
<ellipse cx="0.446709" cy="0.431949" rx="0.446709" ry="0.431949" transform="matrix(0.939362 -0.342926 0.317675 0.9482 103.286 31.8057)" fill="#FDF4DD"/>
<ellipse cx="85.2942" cy="19.1666" rx="1.11765" ry="1.16667" transform="rotate(180 85.2942 19.1666)" fill="#FDF4DD"/>
<ellipse cx="18" cy="19" rx="18" ry="19" transform="matrix(-1 0 0 1 132 62)" fill="#770404"/>
<ellipse cx="107.647" cy="98.7333" rx="1.05882" ry="1.26667" transform="rotate(180 107.647 98.7333)" fill="#FDF4DD"/>
<ellipse cx="1.05882" cy="1.26667" rx="1.05882" ry="1.26667" transform="matrix(-1 0 0 1 100.235 84.8)" fill="#FDF4DD"/>
<ellipse cx="1.05882" cy="1.26667" rx="1.05882" ry="1.26667" transform="matrix(-1 0 0 1 121.412 72.1333)" fill="#D9D9D9"/>
<ellipse cx="0.685116" cy="0.682314" rx="0.685116" ry="0.682314" transform="matrix(-0.922517 0.385957 0.280595 0.959826 112.558 82.2666)" fill="#FDF4DD"/>
<ellipse cx="1.08341" cy="1.2457" rx="1.08341" ry="1.2457" transform="matrix(-0.922517 0.385957 0.280595 0.959826 120.713 92.3999)" fill="#FDF4DD"/>
<ellipse cx="0.430925" cy="0.463292" rx="0.430925" ry="0.463292" transform="matrix(0.922517 -0.385957 0.280595 0.959826 124.692 84.5891)" fill="#FDF4DD"/>
<ellipse cx="107.647" cy="70.8666" rx="1.05882" ry="1.26667" transform="rotate(180 107.647 70.8666)" fill="#FDF4DD"/>
<circle cx="22.5" cy="22.5" r="22.5" transform="matrix(-1 0 0 1 92 88)" fill="#770404"/>
<ellipse cx="61.559" cy="131.5" rx="1.32353" ry="1.5" transform="rotate(180 61.559 131.5)" fill="#FDF4DD"/>
<ellipse cx="1.32353" cy="1.5" rx="1.32353" ry="1.5" transform="matrix(-1 0 0 1 52.2942 115)" fill="#FDF4DD"/>
<ellipse cx="1.32353" cy="1.5" rx="1.32353" ry="1.5" transform="matrix(-1 0 0 1 78.7651 100)" fill="#D9D9D9"/>
<ellipse cx="0.849832" cy="0.811628" rx="0.849832" ry="0.811628" transform="matrix(-0.929641 0.368467 0.294861 0.95554 67.697 112)" fill="#FDF4DD"/>
<ellipse cx="1.34389" cy="1.48179" rx="1.34389" ry="1.48179" transform="matrix(-0.929641 0.368467 0.294861 0.95554 77.8911 124)" fill="#FDF4DD"/>
<ellipse cx="0.534529" cy="0.551097" rx="0.534529" ry="0.551097" transform="matrix(0.929641 -0.368467 0.294861 0.95554 82.8655 114.75)" fill="#FDF4DD"/>
<ellipse cx="61.559" cy="98.5" rx="1.32353" ry="1.5" transform="rotate(180 61.559 98.5)" fill="#FDF4DD"/>
<ellipse cx="17" cy="17.5" rx="17" ry="17.5" transform="matrix(-1 0 0 1 61 17)" fill="#770404"/>
<ellipse cx="38.0002" cy="50.8333" rx="1" ry="1.16667" transform="rotate(180 38.0002 50.8333)" fill="#FDF4DD"/>
<ellipse cx="1" cy="1.16667" rx="1" ry="1.16667" transform="matrix(-1 0 0 1 31 38)" fill="#FDF4DD"/>
<ellipse cx="1" cy="1.16667" rx="1" ry="1.16667" transform="matrix(-1 0 0 1 51.0002 26.3333)" fill="#D9D9D9"/>
<ellipse cx="0.644692" cy="0.629719" rx="0.644692" ry="0.629719" transform="matrix(-0.925897 0.377776 0.28714 0.957889 42.6377 35.6667)" fill="#FDF4DD"/>
<ellipse cx="1.01949" cy="1.14968" rx="1.01949" ry="1.14968" transform="matrix(-0.925897 0.377776 0.28714 0.957889 50.3398 45)" fill="#FDF4DD"/>
<ellipse cx="0.405499" cy="0.42758" rx="0.405499" ry="0.42758" transform="matrix(0.925897 -0.377776 0.28714 0.957889 54.0984 37.8057)" fill="#FDF4DD"/>
<ellipse cx="38.0002" cy="25.1666" rx="1" ry="1.16667" transform="rotate(180 38.0002 25.1666)" fill="#FDF4DD"/>
<ellipse cx="18" cy="17" rx="18" ry="17" transform="matrix(-1 0 0 1 43 58)" fill="#770404"/>
<ellipse cx="18.6472" cy="90.8667" rx="1.05882" ry="1.13333" transform="rotate(180 18.6472 90.8667)" fill="#FDF4DD"/>
<ellipse cx="1.05882" cy="1.13333" rx="1.05882" ry="1.13333" transform="matrix(-1 0 0 1 11.2354 78.3999)" fill="#FDF4DD"/>
<ellipse cx="1.05882" cy="1.13333" rx="1.05882" ry="1.13333" transform="matrix(-1 0 0 1 32.4121 67.0667)" fill="#D9D9D9"/>
<ellipse cx="0.674862" cy="0.61645" rx="0.674862" ry="0.61645" transform="matrix(-0.936534 0.350577 0.310575 0.950549 23.5576 76.1333)" fill="#FDF4DD"/>
<ellipse cx="1.0672" cy="1.12545" rx="1.0672" ry="1.12545" transform="matrix(-0.936534 0.350577 0.310575 0.950549 31.7129 85.2)" fill="#FDF4DD"/>
<ellipse cx="0.424476" cy="0.418571" rx="0.424476" ry="0.418571" transform="matrix(0.936534 -0.350577 0.310575 0.950549 35.6924 78.2112)" fill="#FDF4DD"/>
<ellipse cx="18.6472" cy="65.9333" rx="1.05882" ry="1.13333" transform="rotate(180 18.6472 65.9333)" fill="#FDF4DD"/>
<ellipse cx="30.389" cy="111.363" rx="0.316184" ry="0.273868" transform="rotate(19.276 30.389 111.363)" fill="#FDF4DD"/>
</svg>
