<svg width="803" height="586" viewBox="0 0 803 586" fill="none" xmlns="http://www.w3.org/2000/svg">
<ellipse cx="240.922" cy="426.397" rx="94" ry="129.5" transform="rotate(41.032 240.922 426.397)" fill="#CB956E"/>
<path d="M463.579 176.949C463.972 174.969 464.156 172.953 464.13 170.934L463.654 134.574C463.619 131.885 463.332 129.205 462.796 126.57L457.406 100.059L454.957 90.5899L377.097 75.1626L371.575 83.0523L354.838 105.086C353.128 107.337 351.662 109.763 350.463 112.323L335.46 144.373C334.295 146.862 333.436 149.483 332.902 152.179L327.972 177.058L458.436 202.908L463.579 176.949Z" fill="#FDF4DD"/>
<path fill-rule="evenodd" clip-rule="evenodd" d="M430.642 343.181L440.069 295.606L309.605 269.756L303.677 299.674L296 338.421L360.251 351.152L426.464 364.271L430.642 343.181Z" fill="#FDF4DD"/>
<path d="M427.305 12.7306L396.897 6.70544L394.88 16.8826L402.129 26.6019L448.529 36.815L457.66 29.3217L459.676 19.1445L427.305 12.7306Z" fill="#1E4DC6"/>
<path d="M402.129 26.6019L395.158 47.994C394.607 49.6834 393.81 51.282 392.791 52.7377L377.097 75.1626L454.957 90.5899L447.923 63.3881C447.705 62.5443 447.61 61.6732 447.642 60.8023L448.529 36.815L402.129 26.6019Z" fill="#E0F4EF"/>
<path d="M314.561 244.742L311.743 258.966L309.605 269.756L440.069 295.606L440.846 291.682L446.094 265.197L451.148 239.693L457.561 207.322L458.436 202.908L327.972 177.058L320.319 215.682L314.561 244.742Z" fill="#1E4DC6"/>
<path d="M371.984 83.339L377.319 75.7164L454.552 91.0193L456.919 100.171L462.306 126.669C462.836 129.274 463.12 131.923 463.155 134.581L463.63 170.94C463.656 172.924 463.475 174.906 463.089 176.852L458.043 202.32L328.56 176.665L333.392 152.277C333.919 149.62 334.765 147.037 335.913 144.585L350.916 112.535C352.1 110.007 353.548 107.611 355.236 105.388L371.973 83.3548L371.979 83.347L371.984 83.339ZM454.274 89.9448L377.946 74.8211L393.2 53.0244C394.248 51.5282 395.067 49.8853 395.633 48.149L402.464 27.1876L448.014 37.2135L447.143 60.7838C447.109 61.7032 447.208 62.6226 447.439 63.5133L454.274 89.9448ZM448.399 36.2745L402.419 26.1536L395.414 16.7618L397.29 7.29309L427.208 13.2211L459.088 19.5378L457.204 29.0488L448.399 36.2745ZM328.366 177.646L457.848 203.301L457.071 207.225L450.657 239.596L445.604 265.1L440.356 291.585L439.676 295.018L310.193 269.363L312.234 259.063L315.052 244.839L320.81 215.779L328.366 177.646ZM309.999 270.343L439.481 295.999L430.152 343.084L426.07 363.683L360.348 350.661L296.588 338.028L304.168 299.771L309.999 270.343Z" stroke="#E0DCC9"/>
<path d="M366.771 307.043C366.771 307.043 371.152 262.242 358.315 237.123C348.624 218.16 321.28 195.071 321.28 195.071C321.28 195.071 320.213 153.261 296.479 137.453C287.14 131.232 267.231 120.417 267.231 120.417C267.231 120.417 257.025 80.7406 236.834 64.2881C225.906 55.3839 218.854 49.3181 204.243 47.9522C189.25 46.5504 180.072 50.4507 168.325 58.6411C142.626 76.5598 154.553 132.579 154.553 132.579L190.563 213.545L234.505 291.266L303.52 410.052C303.52 410.052 316.664 436.484 331.375 457.197C340.074 469.444 361.398 468.445 374.872 460.782C394.041 449.881 398.659 426.508 403.436 406.588C408.581 385.133 403.154 368.767 396.274 347.499C390.438 329.456 366.771 307.043 366.771 307.043Z" fill="#F9C02F"/>
<path d="M361.811 367.083L366.771 307.043M366.771 307.043C366.771 307.043 371.152 262.242 358.315 237.123C348.624 218.16 321.28 195.071 321.28 195.071M366.771 307.043C366.771 307.043 390.438 329.456 396.274 347.499C403.154 368.767 408.581 385.133 403.436 406.588C398.659 426.508 394.041 449.881 374.872 460.782C361.398 468.445 340.074 469.444 331.375 457.197C316.664 436.484 303.52 410.052 303.52 410.052L234.505 291.266L190.563 213.545L154.553 132.579C154.553 132.579 142.626 76.5598 168.325 58.6411C180.072 50.4507 189.25 46.5504 204.243 47.9522C218.854 49.3181 225.906 55.3839 236.834 64.2881C257.025 80.7406 267.231 120.417 267.231 120.417M321.28 195.071L315.92 259.952M321.28 195.071C321.28 195.071 320.213 153.261 296.479 137.453C287.14 131.232 267.231 120.417 267.231 120.417M267.231 120.417L261.871 185.299" stroke="#BA813E"/>
<path d="M503.5 215.5C537.679 215.5 565.5 191.159 565.5 161C565.5 130.841 537.679 106.5 503.5 106.5C469.321 106.5 441.5 130.841 441.5 161C441.5 191.159 469.321 215.5 503.5 215.5Z" fill="#FB9B0D" stroke="#BA7206"/>
<path d="M607 304.5C645.416 304.5 676.5 271.112 676.5 230C676.5 188.888 645.416 155.5 607 155.5C568.584 155.5 537.5 188.888 537.5 230C537.5 271.112 568.584 304.5 607 304.5Z" fill="#FB9B0D" stroke="#BA7206"/>
<path d="M495.5 332.5C534.195 332.5 565.5 298.661 565.5 257C565.5 215.339 534.195 181.5 495.5 181.5C456.805 181.5 425.5 215.339 425.5 257C425.5 298.661 456.805 332.5 495.5 332.5Z" fill="#FB9B0D" stroke="#BA7206"/>
<g filter="url(#filter0_f_23_3)">
<path fill-rule="evenodd" clip-rule="evenodd" d="M281.146 460.579L303.114 540.518C417.587 574.976 532.224 540.862 616.817 453.417L594.849 373.478C597.592 432.867 330.15 517.022 281.146 460.579ZM452.186 470.733C406.77 483.343 344.799 492.242 340.344 515.559C336.512 535.619 400.955 547.115 469.151 528.18C524.659 512.768 579.281 470.254 572.672 446.202C566.062 422.149 493.396 459.291 452.186 470.733Z" fill="#DA6363"/>
<path d="M340.344 515.559C344.799 492.242 406.77 483.343 452.186 470.733C493.396 459.291 566.062 422.149 572.672 446.202C579.281 470.254 524.659 512.768 469.151 528.18C400.955 547.115 336.512 535.619 340.344 515.559Z" fill="#EEE099"/>
<path fill-rule="evenodd" clip-rule="evenodd" d="M281.146 460.579C330.15 517.022 597.592 432.867 594.849 373.478C549.337 309.974 276.329 390.344 281.146 460.579ZM427.472 390.256C484.036 375.391 505.655 367.616 509.065 397.296C510.675 411.316 469.473 439.371 436.36 445.655C404.961 451.613 358.495 456.087 355.799 429.191C353.257 403.833 398.284 397.926 427.472 390.256Z" fill="#E0DCC9"/>
<path fill-rule="evenodd" clip-rule="evenodd" d="M509.065 397.296C505.655 367.616 484.036 375.391 427.472 390.256C398.284 397.926 353.257 403.833 355.799 429.191C358.495 456.087 404.961 451.613 436.36 445.655C469.473 439.371 510.675 411.316 509.065 397.296ZM430.972 402.989C417.251 406.555 400.676 405.49 397.85 417.515C394.478 431.87 421.183 430.938 437.776 427.749C455.565 424.331 481.138 413.703 473.674 400.27C466.736 387.783 447.293 398.748 430.972 402.989Z" fill="#484340"/>
<path d="M397.85 417.515C400.676 405.49 417.251 406.555 430.972 402.989C447.293 398.748 466.736 387.783 473.674 400.27C481.138 413.703 455.565 424.331 437.776 427.749C421.183 430.938 394.478 431.87 397.85 417.515Z" fill="#E0DCC9"/>
<path d="M303.114 540.518C303.114 540.518 289.346 490.415 281.146 460.579M303.114 540.518C417.587 574.976 532.224 540.862 616.817 453.417L594.849 373.478M303.114 540.518L281.146 460.579M281.146 460.579C330.15 517.022 597.592 432.867 594.849 373.478M281.146 460.579C276.329 390.344 549.337 309.974 594.849 373.478M340.344 515.559C344.799 492.242 406.77 483.343 452.186 470.733C493.396 459.291 566.062 422.149 572.672 446.202C579.281 470.254 524.659 512.768 469.151 528.18C400.955 547.115 336.512 535.619 340.344 515.559ZM509.065 397.296C505.655 367.616 484.036 375.391 427.472 390.256C398.284 397.926 353.257 403.833 355.799 429.191C358.495 456.087 404.961 451.613 436.36 445.655C469.473 439.371 510.675 411.316 509.065 397.296ZM397.85 417.515C400.676 405.49 417.251 406.555 430.972 402.989C447.293 398.748 466.736 387.783 473.674 400.27C481.138 413.703 455.565 424.331 437.776 427.749C421.183 430.938 394.478 431.87 397.85 417.515Z" stroke="#E0DCC9"/>
</g>
<g filter="url(#filter1_d_23_3)">
<mask id="path-11-outside-1_23_3" maskUnits="userSpaceOnUse" x="-3.82058" y="144.158" width="804.472" height="320.767" fill="black">
<rect fill="white" x="-3.82058" y="144.158" width="804.472" height="320.767"/>
<path d="M144.404 371.263C140.534 371.173 136.621 369.808 132.664 367.168C128.858 364.691 125.014 360.7 121.134 355.195C116.366 348.077 112.364 341.296 109.128 334.85C105.891 328.405 103.253 322.77 101.212 317.945C99.3265 313.124 97.8693 309.666 96.8407 307.572C96.8407 307.572 97.2403 307.103 98.0395 306.166C98.8429 305.07 99.799 304.057 100.908 303.128C102.176 302.043 103.196 301.509 103.97 301.527C111.245 301.696 117.748 301.768 123.479 301.742C129.369 301.561 134.58 300.726 139.11 299.239C143.8 297.597 147.98 294.748 151.65 290.693C155.319 286.638 158.493 280.819 161.172 273.238C161.997 271.346 162.512 269.447 162.717 267.541C163.082 265.479 163.289 263.493 163.34 261.584C163.483 256.172 162.294 251.367 159.772 247.168C157.251 242.969 153.522 240.494 148.586 239.742C147.971 239.568 147.276 239.472 146.502 239.454C145.728 239.436 144.955 239.418 144.181 239.4C141.24 239.332 137.979 239.654 134.398 240.367C130.971 241.083 128.378 242.536 126.616 244.724C122.607 249.886 118.734 255.768 114.997 262.37C111.264 268.812 107.682 275.417 104.25 282.185C100.823 288.793 97.5608 295.008 94.4639 300.828C93.6478 302.401 92.1015 305.232 89.8249 309.319C87.5526 313.248 85.0312 317.807 82.2608 322.998C79.4946 328.03 76.8831 333.065 74.4265 338.104C71.9698 343.142 69.9923 347.635 68.4938 351.581C67.1502 355.531 66.7689 358.23 67.3501 359.676C67.5006 359.839 67.5717 360.08 67.5633 360.398C67.5506 360.875 67.3121 361.109 66.8478 361.098C65.6095 361.069 64.3797 360.722 63.1583 360.056C61.937 359.391 60.475 359.039 58.7724 358.999C57.2246 358.963 55.6662 359.325 54.0973 360.084C52.5326 360.685 50.4889 361.832 47.966 363.525C45.4431 365.218 42.6191 366.585 39.494 367.627C39.1802 367.779 38.7137 367.848 38.0946 367.834C37.0111 367.809 36.1683 367.47 35.566 366.819C34.9595 366.328 34.9701 365.93 35.5976 365.626C39.0197 365.068 41.9943 363.864 44.5214 362.011C47.0527 360 49.1323 357.501 50.7602 354.513C54.1582 349.018 57.4788 343.522 60.722 338.023C64.1242 332.37 67.3716 326.712 70.4643 321.051C74.2098 314.132 78.0327 307.214 81.933 300.297C85.8375 293.222 89.7398 286.226 93.6401 279.31C97.373 272.868 100.713 266.655 103.659 260.672C106.605 254.69 108.811 250.362 110.275 247.688C111.414 245.645 113.32 243.858 115.993 242.327C118.825 240.642 121.57 239.352 124.226 238.458C123.298 238.437 122.369 238.415 121.44 238.393C120.516 238.213 119.512 238.11 118.429 238.084C113.63 237.973 108.359 238.169 102.616 238.672C97.0308 239.02 91.515 239.688 86.0681 240.676C80.776 241.667 76.0925 243.071 72.0176 244.887C67.9427 246.703 65.1729 248.948 63.7082 251.621C63.0511 253.039 62.4714 254.459 61.9691 255.88C61.4669 257.302 61.1967 258.729 61.1588 260.161C61.0618 263.822 62.2305 266.476 64.6648 268.126C64.8196 268.129 64.8928 268.29 64.8843 268.608C64.8759 268.927 64.5579 269.238 63.9303 269.542C63.4576 269.849 63.0685 269.92 62.7632 269.753C61.2364 268.922 59.507 266.97 57.575 263.9C55.802 260.673 54.6333 258.019 54.069 255.935C53.6552 254.015 53.4695 252.259 53.5116 250.667C53.6213 246.529 55.0212 243.377 57.7115 241.21C60.4061 238.884 63.7781 237.29 67.8277 236.429C71.8816 235.409 76.0001 234.868 80.1834 234.806C84.5258 234.588 88.3221 234.517 91.5725 234.593C96.5255 234.708 102.407 234.845 109.218 235.004C116.032 235.003 122.303 235.069 128.03 235.202C129.423 235.235 130.971 235.271 132.673 235.311C134.38 235.191 136.162 235.153 138.019 235.196C142.199 235.293 146.526 235.633 151.002 236.215C155.478 236.797 159.552 237.927 163.225 239.605C166.898 241.283 169.696 243.816 171.619 247.205C174.132 251.722 175.313 256.846 175.161 262.575C174.929 271.329 172.491 278.597 167.847 284.381C166.244 286.414 164.489 288.364 162.581 290.231C160.673 292.097 158.457 293.877 155.934 295.57C151.834 298.341 146.971 300.696 141.344 302.636C135.721 304.416 129.879 305.713 123.817 306.527C117.91 307.345 112.476 307.856 107.514 308.059C109.408 312.562 112.268 318.6 116.095 326.174C120.075 333.751 124.908 341.349 130.591 348.966C133.581 353.016 136.681 355.875 139.889 357.542C143.097 359.21 146.249 360.079 149.345 360.151C154.298 360.266 158.981 358.863 163.395 355.94C167.964 353.02 172.081 349.613 175.746 345.717C179.571 341.665 182.606 338.153 184.853 335.179C185.339 334.394 185.736 334.006 186.046 334.013C186.51 334.024 186.73 334.506 186.705 335.461C186.671 336.734 186.173 337.997 185.21 339.248C177.825 349.109 170.801 356.988 164.14 362.884C157.484 368.622 150.905 371.415 144.404 371.263Z"/>
<path d="M288.953 277.884C286.786 277.833 285.257 277.081 284.367 275.627C283.768 274.817 283.486 273.775 283.52 272.502C283.588 269.956 284.803 267.914 287.167 266.376C288.895 265.461 290.455 265.02 291.848 265.052C294.17 265.106 295.776 265.86 296.667 267.314C297.265 268.124 297.547 269.166 297.514 270.439C297.446 272.985 296.153 275.026 293.634 276.559C292.216 277.482 290.656 277.923 288.953 277.884ZM246.12 368.853C244.572 368.817 243.265 368.468 242.198 367.806C241.287 367.148 240.854 365.944 240.9 364.193C240.959 361.965 241.571 359.351 242.734 356.353C244.053 353.358 245.448 350.364 246.921 347.373C248.549 344.385 249.776 341.945 250.6 340.054C251.743 337.851 253.134 335.017 254.775 331.551C256.574 327.93 258.213 324.545 259.69 321.394C261.326 318.088 262.471 315.806 263.124 314.547C260.894 316.884 258.182 319.846 254.99 323.435C251.956 326.868 249.079 330.224 246.36 333.505C243.64 336.786 241.558 339.365 240.114 341.243C239.633 341.869 239.238 342.178 238.928 342.171C238.619 342.163 238.474 341.762 238.496 340.966C238.529 339.693 238.948 338.508 239.751 337.412C242.793 333.661 246.158 329.44 249.844 324.748C253.685 320.06 257.129 315.761 260.175 311.851C263.226 307.781 265.155 305.119 265.962 303.864C267.673 303.585 270.163 303.165 273.43 302.604C276.852 302.047 279.197 301.225 280.465 300.14C280.942 299.674 281.412 299.446 281.877 299.456C282.186 299.464 282.333 299.786 282.316 300.422C282.458 300.903 282.288 301.457 281.807 302.082C280.849 303.175 279.152 305.843 276.716 310.086C274.281 314.329 271.678 319.046 268.907 324.236C266.296 329.271 263.852 333.833 261.575 337.92C259.295 342.167 257.328 346.262 255.674 350.204C254.021 354.147 253.171 356.994 253.125 358.744C253.066 360.973 254.12 362.112 256.287 362.162C258.299 362.209 260.887 360.995 264.05 358.521C267.368 356.05 270.698 353.102 274.041 349.676C277.389 346.091 280.341 342.816 282.897 339.85C283.696 338.913 284.655 337.82 285.772 336.572C287.048 335.169 287.845 334.312 288.163 334C288.464 334.326 288.604 334.887 288.583 335.682C288.399 336.793 287.982 337.898 287.334 338.997C286.689 339.938 286.047 340.799 285.407 341.58C282.047 345.643 278.373 349.857 274.385 354.223C270.402 358.43 266.049 361.991 261.325 364.907C256.606 367.664 251.537 368.979 246.12 368.853Z"/>
<path d="M389.34 280.22C387.173 280.169 385.644 279.417 384.754 277.963C384.156 277.153 383.873 276.111 383.907 274.838C383.975 272.292 385.19 270.25 387.554 268.712C389.282 267.797 390.842 267.356 392.235 267.388C394.557 267.442 396.163 268.196 397.054 269.65C397.652 270.46 397.934 271.502 397.901 272.775C397.833 275.322 396.54 277.362 394.021 278.896C392.603 279.818 391.043 280.26 389.34 280.22ZM346.507 371.189C344.959 371.153 343.652 370.804 342.585 370.142C341.674 369.484 341.241 368.28 341.287 366.529C341.346 364.301 341.958 361.688 343.121 358.689C344.44 355.694 345.835 352.701 347.308 349.709C348.936 346.721 350.163 344.282 350.987 342.39C352.13 340.187 353.521 337.353 355.162 333.888C356.961 330.267 358.6 326.881 360.077 323.73C361.714 320.424 362.858 318.142 363.511 316.883C361.281 319.22 358.569 322.182 355.377 325.771C352.343 329.204 349.466 332.561 346.747 335.842C344.027 339.122 341.945 341.702 340.501 343.579C340.02 344.205 339.625 344.514 339.315 344.507C339.006 344.5 338.861 344.098 338.883 343.302C338.916 342.029 339.335 340.845 340.138 339.749C343.18 335.997 346.545 331.776 350.231 327.084C354.072 322.396 357.516 318.097 360.562 314.187C363.613 310.117 365.542 307.455 366.35 306.2C368.061 305.921 370.55 305.501 373.817 304.94C377.239 304.383 379.584 303.562 380.852 302.476C381.329 302.01 381.799 301.782 382.264 301.793C382.573 301.8 382.72 302.122 382.703 302.758C382.845 303.239 382.675 303.793 382.194 304.419C381.236 305.511 379.539 308.179 377.103 312.422C374.668 316.665 372.065 321.382 369.294 326.572C366.683 331.608 364.239 336.169 361.962 340.256C359.682 344.503 357.715 348.598 356.061 352.541C354.408 356.483 353.558 359.33 353.512 361.081C353.453 363.309 354.507 364.448 356.674 364.498C358.686 364.545 361.274 363.331 364.437 360.857C367.755 358.386 371.085 355.438 374.428 352.012C377.776 348.428 380.728 345.152 383.284 342.186C384.083 341.249 385.042 340.157 386.159 338.909C387.435 337.505 388.232 336.648 388.55 336.337C388.851 336.662 388.991 337.223 388.97 338.019C388.786 339.129 388.369 340.234 387.721 341.334C387.076 342.274 386.434 343.135 385.794 343.916C382.434 347.979 378.76 352.193 374.772 356.559C370.789 360.766 366.436 364.327 361.712 367.243C356.993 370 351.924 371.315 346.507 371.189Z"/>
<path d="M452.848 376.769C450.062 376.704 447.132 376.238 444.057 375.37C440.983 374.503 438.231 373.164 435.8 371.356C433.529 369.392 432.049 366.81 431.359 363.609C431.217 363.128 431.159 362.41 431.184 361.455C431.243 359.227 431.773 356.771 432.773 354.087C433.928 351.407 435.295 349.527 436.872 348.449C437.5 348.145 437.964 348.156 438.265 348.482C438.721 348.811 438.79 349.131 438.472 349.442C438.304 349.916 438.055 350.547 437.725 351.336C437.398 351.965 437.147 352.676 436.971 353.468C436.397 357.595 437.152 361.275 439.234 364.509C440.129 365.804 441.181 367.022 442.39 368.165C443.753 369.312 445.044 370.297 446.261 371.122C447.327 371.784 448.63 372.292 450.17 372.646C451.713 372.841 453.259 372.957 454.807 372.993C457.283 373.051 459.691 372.788 462.03 372.205C464.368 371.623 466.098 370.628 467.219 369.221C469.299 366.721 470.381 363.88 470.465 360.697C470.529 358.31 469.977 355.749 468.81 353.015C467.644 350.28 465.785 347.37 463.234 344.285C461.582 342.336 460.012 340.229 458.523 337.965C457.034 335.701 456.091 333.29 455.694 330.733C455.552 330.252 455.41 329.771 455.268 329.29C455.28 328.812 455.293 328.335 455.306 327.858C453.214 330.835 451.048 333.651 448.809 336.306C446.73 338.805 444.891 340.992 443.292 342.866C442.648 343.806 442.094 344.271 441.629 344.26C441.32 344.253 441.173 343.931 441.19 343.295C441.228 341.862 441.887 340.365 443.168 338.802C444.444 337.399 445.883 335.68 447.486 333.647C449.093 331.455 450.377 329.733 451.34 328.482C454.077 324.564 456.094 321.506 457.391 319.307C458.847 316.952 460.375 314.837 461.973 312.964C463.73 310.934 465.864 309.312 468.374 308.096C471.039 306.884 473.765 306.311 476.551 306.376C479.801 306.451 482.727 307.077 485.329 308.252C488.09 309.272 489.493 311.852 489.538 315.994C489.487 317.904 489.048 319.884 488.219 321.935C487.549 323.83 486.804 325.644 485.984 327.377C485.494 328.321 484.779 329.021 483.838 329.477C483.055 329.777 482.673 329.609 482.689 328.973C482.706 328.336 482.803 327.622 482.979 326.829C483.154 326.037 483.251 325.323 483.268 324.686C483.339 321.981 482.938 319.583 482.064 317.492C481.349 315.246 480.231 313.627 478.708 312.637C477.19 311.486 475.58 310.892 473.877 310.852C471.4 310.794 468.974 311.773 466.597 313.788C464.225 315.644 462.997 318.163 462.912 321.346C462.904 321.664 462.893 322.062 462.881 322.54C462.868 323.017 462.935 323.417 463.081 323.739C463.633 326.3 465.414 329.208 468.426 332.463C471.437 335.718 473.762 338.559 475.402 340.985C478.233 345.192 479.592 349.443 479.478 353.741C479.364 358.038 478.02 361.988 475.447 365.59C473.032 369.038 469.785 371.749 465.706 373.724C461.778 375.862 457.492 376.877 452.848 376.769Z"/>
<path d="M590.229 377.339C586.36 377.249 583.455 375.828 581.514 373.075C580.327 371.137 579.164 368.243 578.027 364.395C576.89 360.546 575.912 356.542 575.093 352.383C574.274 348.223 573.589 344.863 573.037 342.302C568.551 347.931 564.53 353.57 560.973 359.22C557.571 364.874 555.286 369.28 554.118 372.438C553.783 373.385 552.679 374.156 550.804 374.749C549.085 375.346 547.374 375.625 545.671 375.585C543.195 375.528 542.287 374.71 542.948 373.133C548.038 362.263 552.884 351.786 557.488 341.701C562.092 331.617 566.93 321.458 572.002 311.225C577.229 300.995 583.086 290.382 589.572 279.386C594.121 271.37 599.513 263.692 605.748 256.353C612.141 248.857 618.884 242.804 625.975 238.191C633.071 233.42 640.179 231.117 647.299 231.282C649.621 231.336 651.771 232.023 653.749 233.343C655.728 234.664 656.681 236.676 656.609 239.382L656.426 246.305C656.409 246.942 655.936 247.249 655.008 247.227C654.543 247.217 654.315 247.052 654.324 246.734C654.391 244.187 653.352 242.491 651.206 241.645C649.065 240.64 646.988 240.113 644.976 240.067C639.558 239.941 634.034 240.927 628.403 243.025C622.144 245.427 616.858 249.126 612.544 254.122C608.23 259.118 604.217 264.439 600.505 270.085C595.668 277.298 590.874 285.786 586.124 295.549C581.378 305.152 576.939 314.843 572.809 324.62C568.832 334.401 565.268 343.236 562.117 351.125C563.878 348.937 565.64 346.748 567.402 344.56C569.163 342.371 570.843 340.34 572.442 338.466C572.45 338.148 572.381 337.828 572.235 337.506C572.243 337.188 572.252 336.869 572.26 336.551C572.29 335.437 572.547 334.488 573.033 333.703C573.518 332.918 574.162 331.977 574.966 330.881C576.091 329.315 577.129 328.145 578.079 327.37C579.033 326.437 580.071 325.267 581.192 323.86L581.781 327.934C588.781 320.931 594.877 315.897 600.069 312.833C603.688 310.688 607.2 309.655 610.606 309.734C614.011 309.813 615.678 311.206 615.606 313.911C615.547 316.14 614.39 318.899 612.134 322.191C611.331 323.287 610.845 324.072 610.678 324.546C610.51 325.02 610.188 325.49 609.711 325.957C609.552 326.112 609.243 326.105 608.783 325.935C608.322 325.765 608.097 325.521 608.105 325.203C608.156 323.293 607.568 322.085 606.342 321.579C605.121 320.913 603.737 320.563 602.189 320.526C599.248 320.458 596.045 321.498 592.581 323.647C589.276 325.64 585.872 328.428 582.37 332.009C583.038 336.006 583.774 340.402 584.576 345.198C585.537 349.839 586.584 354.163 587.717 358.17C588.85 362.178 589.933 365.149 590.966 367.084C591.706 368.376 592.766 369.276 594.146 369.786C595.531 370.137 596.688 370.323 597.616 370.345C599.783 370.395 602.289 369.339 605.134 367.175C608.138 364.856 611.153 362.14 614.178 359.025C617.362 355.755 620.235 352.557 622.796 349.432C625.511 346.31 627.591 343.811 629.035 341.933C629.633 342.743 629.766 343.543 629.436 344.331C629.256 345.283 628.764 346.306 627.96 347.402C627.316 348.343 626.674 349.204 626.034 349.985C622.833 353.892 619.397 357.873 615.728 361.928C612.062 365.824 608.175 369.316 604.067 372.406C602.326 373.798 600.203 375.023 597.697 376.079C595.195 376.977 592.706 377.396 590.229 377.339Z"/>
<path d="M711.254 379.677C709.706 379.641 708.399 379.293 707.333 378.631C706.266 377.969 705.756 376.763 705.802 375.012C705.861 372.784 706.47 370.25 707.63 367.411C708.789 364.571 710.101 361.815 711.566 359.142C713.035 356.309 714.334 354.031 715.464 352.305C709.891 358.068 704.094 363.506 698.073 368.621C695.064 371.099 691.751 373.411 688.132 375.556C684.513 377.702 680.691 378.727 676.667 378.634C675.119 378.598 674.048 378.095 673.454 377.126C672.865 375.997 672.589 374.717 672.627 373.285C672.648 372.489 672.74 371.934 672.903 371.619C673.842 365.43 675.947 359.029 679.22 352.417C682.493 345.805 686.451 339.607 691.096 333.823C695.741 328.038 700.433 323.37 705.174 319.818C710.546 315.802 716.405 313.868 722.751 314.016L749.451 314.638C750.225 314.656 750.603 314.983 750.586 315.619C750.553 316.893 749.839 317.513 748.446 317.481C746.898 317.445 745.323 318.443 743.721 320.476C742.122 322.35 740.919 323.914 740.111 325.169C738.982 326.895 737.201 329.8 734.77 333.883C732.338 337.967 729.819 342.447 727.212 347.323C724.764 352.044 722.633 356.453 720.821 360.551C719.009 364.65 718.078 367.654 718.027 369.564C717.968 371.792 719.022 372.931 721.189 372.981C723.511 373.035 726.171 371.983 729.171 369.823C732.171 367.663 735.184 365.026 738.209 361.912C741.393 358.641 744.265 355.444 746.826 352.318C749.546 349.037 751.705 346.46 753.304 344.586C754.207 345.563 754.094 346.914 752.964 348.639C751.993 350.209 751.108 351.462 750.309 352.399C747.104 356.465 743.43 360.679 739.287 365.042C735.149 369.245 730.641 372.803 725.763 375.715C721.043 378.472 716.207 379.793 711.254 379.677ZM686.401 370.739C688.258 370.782 690.848 369.488 694.17 366.859C697.651 364.073 701.381 360.656 705.36 356.609C709.344 352.402 713.099 348.03 716.627 343.494C720.158 338.799 723.058 334.566 725.327 330.797C727.754 326.872 728.995 323.876 729.049 321.807C729.096 320.056 728.586 318.85 727.519 318.188C726.607 317.53 725.377 317.183 723.83 317.147C721.353 317.089 718.619 317.981 715.628 319.822C712.795 321.508 710.505 323.206 708.756 324.917C706.852 326.625 704.534 329.358 701.801 333.116C699.228 336.719 696.644 340.72 694.049 345.118C691.455 349.517 689.251 353.765 687.439 357.864C685.627 361.962 684.687 365.284 684.619 367.831C684.569 369.74 685.163 370.71 686.401 370.739Z"/>
</mask>
<path d="M144.404 371.263C140.534 371.173 136.621 369.808 132.664 367.168C128.858 364.691 125.014 360.7 121.134 355.195C116.366 348.077 112.364 341.296 109.128 334.85C105.891 328.405 103.253 322.77 101.212 317.945C99.3265 313.124 97.8693 309.666 96.8407 307.572C96.8407 307.572 97.2403 307.103 98.0395 306.166C98.8429 305.07 99.799 304.057 100.908 303.128C102.176 302.043 103.196 301.509 103.97 301.527C111.245 301.696 117.748 301.768 123.479 301.742C129.369 301.561 134.58 300.726 139.11 299.239C143.8 297.597 147.98 294.748 151.65 290.693C155.319 286.638 158.493 280.819 161.172 273.238C161.997 271.346 162.512 269.447 162.717 267.541C163.082 265.479 163.289 263.493 163.34 261.584C163.483 256.172 162.294 251.367 159.772 247.168C157.251 242.969 153.522 240.494 148.586 239.742C147.971 239.568 147.276 239.472 146.502 239.454C145.728 239.436 144.955 239.418 144.181 239.4C141.24 239.332 137.979 239.654 134.398 240.367C130.971 241.083 128.378 242.536 126.616 244.724C122.607 249.886 118.734 255.768 114.997 262.37C111.264 268.812 107.682 275.417 104.25 282.185C100.823 288.793 97.5608 295.008 94.4639 300.828C93.6478 302.401 92.1015 305.232 89.8249 309.319C87.5526 313.248 85.0312 317.807 82.2608 322.998C79.4946 328.03 76.8831 333.065 74.4265 338.104C71.9698 343.142 69.9923 347.635 68.4938 351.581C67.1502 355.531 66.7689 358.23 67.3501 359.676C67.5006 359.839 67.5717 360.08 67.5633 360.398C67.5506 360.875 67.3121 361.109 66.8478 361.098C65.6095 361.069 64.3797 360.722 63.1583 360.056C61.937 359.391 60.475 359.039 58.7724 358.999C57.2246 358.963 55.6662 359.325 54.0973 360.084C52.5326 360.685 50.4889 361.832 47.966 363.525C45.4431 365.218 42.6191 366.585 39.494 367.627C39.1802 367.779 38.7137 367.848 38.0946 367.834C37.0111 367.809 36.1683 367.47 35.566 366.819C34.9595 366.328 34.9701 365.93 35.5976 365.626C39.0197 365.068 41.9943 363.864 44.5214 362.011C47.0527 360 49.1323 357.501 50.7602 354.513C54.1582 349.018 57.4788 343.522 60.722 338.023C64.1242 332.37 67.3716 326.712 70.4643 321.051C74.2098 314.132 78.0327 307.214 81.933 300.297C85.8375 293.222 89.7398 286.226 93.6401 279.31C97.373 272.868 100.713 266.655 103.659 260.672C106.605 254.69 108.811 250.362 110.275 247.688C111.414 245.645 113.32 243.858 115.993 242.327C118.825 240.642 121.57 239.352 124.226 238.458C123.298 238.437 122.369 238.415 121.44 238.393C120.516 238.213 119.512 238.11 118.429 238.084C113.63 237.973 108.359 238.169 102.616 238.672C97.0308 239.02 91.515 239.688 86.0681 240.676C80.776 241.667 76.0925 243.071 72.0176 244.887C67.9427 246.703 65.1729 248.948 63.7082 251.621C63.0511 253.039 62.4714 254.459 61.9691 255.88C61.4669 257.302 61.1967 258.729 61.1588 260.161C61.0618 263.822 62.2305 266.476 64.6648 268.126C64.8196 268.129 64.8928 268.29 64.8843 268.608C64.8759 268.927 64.5579 269.238 63.9303 269.542C63.4576 269.849 63.0685 269.92 62.7632 269.753C61.2364 268.922 59.507 266.97 57.575 263.9C55.802 260.673 54.6333 258.019 54.069 255.935C53.6552 254.015 53.4695 252.259 53.5116 250.667C53.6213 246.529 55.0212 243.377 57.7115 241.21C60.4061 238.884 63.7781 237.29 67.8277 236.429C71.8816 235.409 76.0001 234.868 80.1834 234.806C84.5258 234.588 88.3221 234.517 91.5725 234.593C96.5255 234.708 102.407 234.845 109.218 235.004C116.032 235.003 122.303 235.069 128.03 235.202C129.423 235.235 130.971 235.271 132.673 235.311C134.38 235.191 136.162 235.153 138.019 235.196C142.199 235.293 146.526 235.633 151.002 236.215C155.478 236.797 159.552 237.927 163.225 239.605C166.898 241.283 169.696 243.816 171.619 247.205C174.132 251.722 175.313 256.846 175.161 262.575C174.929 271.329 172.491 278.597 167.847 284.381C166.244 286.414 164.489 288.364 162.581 290.231C160.673 292.097 158.457 293.877 155.934 295.57C151.834 298.341 146.971 300.696 141.344 302.636C135.721 304.416 129.879 305.713 123.817 306.527C117.91 307.345 112.476 307.856 107.514 308.059C109.408 312.562 112.268 318.6 116.095 326.174C120.075 333.751 124.908 341.349 130.591 348.966C133.581 353.016 136.681 355.875 139.889 357.542C143.097 359.21 146.249 360.079 149.345 360.151C154.298 360.266 158.981 358.863 163.395 355.94C167.964 353.02 172.081 349.613 175.746 345.717C179.571 341.665 182.606 338.153 184.853 335.179C185.339 334.394 185.736 334.006 186.046 334.013C186.51 334.024 186.73 334.506 186.705 335.461C186.671 336.734 186.173 337.997 185.21 339.248C177.825 349.109 170.801 356.988 164.14 362.884C157.484 368.622 150.905 371.415 144.404 371.263Z" fill="#FFF9F9"/>
<path d="M288.953 277.884C286.786 277.833 285.257 277.081 284.367 275.627C283.768 274.817 283.486 273.775 283.52 272.502C283.588 269.956 284.803 267.914 287.167 266.376C288.895 265.461 290.455 265.02 291.848 265.052C294.17 265.106 295.776 265.86 296.667 267.314C297.265 268.124 297.547 269.166 297.514 270.439C297.446 272.985 296.153 275.026 293.634 276.559C292.216 277.482 290.656 277.923 288.953 277.884ZM246.12 368.853C244.572 368.817 243.265 368.468 242.198 367.806C241.287 367.148 240.854 365.944 240.9 364.193C240.959 361.965 241.571 359.351 242.734 356.353C244.053 353.358 245.448 350.364 246.921 347.373C248.549 344.385 249.776 341.945 250.6 340.054C251.743 337.851 253.134 335.017 254.775 331.551C256.574 327.93 258.213 324.545 259.69 321.394C261.326 318.088 262.471 315.806 263.124 314.547C260.894 316.884 258.182 319.846 254.99 323.435C251.956 326.868 249.079 330.224 246.36 333.505C243.64 336.786 241.558 339.365 240.114 341.243C239.633 341.869 239.238 342.178 238.928 342.171C238.619 342.163 238.474 341.762 238.496 340.966C238.529 339.693 238.948 338.508 239.751 337.412C242.793 333.661 246.158 329.44 249.844 324.748C253.685 320.06 257.129 315.761 260.175 311.851C263.226 307.781 265.155 305.119 265.962 303.864C267.673 303.585 270.163 303.165 273.43 302.604C276.852 302.047 279.197 301.225 280.465 300.14C280.942 299.674 281.412 299.446 281.877 299.456C282.186 299.464 282.333 299.786 282.316 300.422C282.458 300.903 282.288 301.457 281.807 302.082C280.849 303.175 279.152 305.843 276.716 310.086C274.281 314.329 271.678 319.046 268.907 324.236C266.296 329.271 263.852 333.833 261.575 337.92C259.295 342.167 257.328 346.262 255.674 350.204C254.021 354.147 253.171 356.994 253.125 358.744C253.066 360.973 254.12 362.112 256.287 362.162C258.299 362.209 260.887 360.995 264.05 358.521C267.368 356.05 270.698 353.102 274.041 349.676C277.389 346.091 280.341 342.816 282.897 339.85C283.696 338.913 284.655 337.82 285.772 336.572C287.048 335.169 287.845 334.312 288.163 334C288.464 334.326 288.604 334.887 288.583 335.682C288.399 336.793 287.982 337.898 287.334 338.997C286.689 339.938 286.047 340.799 285.407 341.58C282.047 345.643 278.373 349.857 274.385 354.223C270.402 358.43 266.049 361.991 261.325 364.907C256.606 367.664 251.537 368.979 246.12 368.853Z" fill="#FFF9F9"/>
<path d="M389.34 280.22C387.173 280.169 385.644 279.417 384.754 277.963C384.156 277.153 383.873 276.111 383.907 274.838C383.975 272.292 385.19 270.25 387.554 268.712C389.282 267.797 390.842 267.356 392.235 267.388C394.557 267.442 396.163 268.196 397.054 269.65C397.652 270.46 397.934 271.502 397.901 272.775C397.833 275.322 396.54 277.362 394.021 278.896C392.603 279.818 391.043 280.26 389.34 280.22ZM346.507 371.189C344.959 371.153 343.652 370.804 342.585 370.142C341.674 369.484 341.241 368.28 341.287 366.529C341.346 364.301 341.958 361.688 343.121 358.689C344.44 355.694 345.835 352.701 347.308 349.709C348.936 346.721 350.163 344.282 350.987 342.39C352.13 340.187 353.521 337.353 355.162 333.888C356.961 330.267 358.6 326.881 360.077 323.73C361.714 320.424 362.858 318.142 363.511 316.883C361.281 319.22 358.569 322.182 355.377 325.771C352.343 329.204 349.466 332.561 346.747 335.842C344.027 339.122 341.945 341.702 340.501 343.579C340.02 344.205 339.625 344.514 339.315 344.507C339.006 344.5 338.861 344.098 338.883 343.302C338.916 342.029 339.335 340.845 340.138 339.749C343.18 335.997 346.545 331.776 350.231 327.084C354.072 322.396 357.516 318.097 360.562 314.187C363.613 310.117 365.542 307.455 366.35 306.2C368.061 305.921 370.55 305.501 373.817 304.94C377.239 304.383 379.584 303.562 380.852 302.476C381.329 302.01 381.799 301.782 382.264 301.793C382.573 301.8 382.72 302.122 382.703 302.758C382.845 303.239 382.675 303.793 382.194 304.419C381.236 305.511 379.539 308.179 377.103 312.422C374.668 316.665 372.065 321.382 369.294 326.572C366.683 331.608 364.239 336.169 361.962 340.256C359.682 344.503 357.715 348.598 356.061 352.541C354.408 356.483 353.558 359.33 353.512 361.081C353.453 363.309 354.507 364.448 356.674 364.498C358.686 364.545 361.274 363.331 364.437 360.857C367.755 358.386 371.085 355.438 374.428 352.012C377.776 348.428 380.728 345.152 383.284 342.186C384.083 341.249 385.042 340.157 386.159 338.909C387.435 337.505 388.232 336.648 388.55 336.337C388.851 336.662 388.991 337.223 388.97 338.019C388.786 339.129 388.369 340.234 387.721 341.334C387.076 342.274 386.434 343.135 385.794 343.916C382.434 347.979 378.76 352.193 374.772 356.559C370.789 360.766 366.436 364.327 361.712 367.243C356.993 370 351.924 371.315 346.507 371.189Z" fill="#FFF9F9"/>
<path d="M452.848 376.769C450.062 376.704 447.132 376.238 444.057 375.37C440.983 374.503 438.231 373.164 435.8 371.356C433.529 369.392 432.049 366.81 431.359 363.609C431.217 363.128 431.159 362.41 431.184 361.455C431.243 359.227 431.773 356.771 432.773 354.087C433.928 351.407 435.295 349.527 436.872 348.449C437.5 348.145 437.964 348.156 438.265 348.482C438.721 348.811 438.79 349.131 438.472 349.442C438.304 349.916 438.055 350.547 437.725 351.336C437.398 351.965 437.147 352.676 436.971 353.468C436.397 357.595 437.152 361.275 439.234 364.509C440.129 365.804 441.181 367.022 442.39 368.165C443.753 369.312 445.044 370.297 446.261 371.122C447.327 371.784 448.63 372.292 450.17 372.646C451.713 372.841 453.259 372.957 454.807 372.993C457.283 373.051 459.691 372.788 462.03 372.205C464.368 371.623 466.098 370.628 467.219 369.221C469.299 366.721 470.381 363.88 470.465 360.697C470.529 358.31 469.977 355.749 468.81 353.015C467.644 350.28 465.785 347.37 463.234 344.285C461.582 342.336 460.012 340.229 458.523 337.965C457.034 335.701 456.091 333.29 455.694 330.733C455.552 330.252 455.41 329.771 455.268 329.29C455.28 328.812 455.293 328.335 455.306 327.858C453.214 330.835 451.048 333.651 448.809 336.306C446.73 338.805 444.891 340.992 443.292 342.866C442.648 343.806 442.094 344.271 441.629 344.26C441.32 344.253 441.173 343.931 441.19 343.295C441.228 341.862 441.887 340.365 443.168 338.802C444.444 337.399 445.883 335.68 447.486 333.647C449.093 331.455 450.377 329.733 451.34 328.482C454.077 324.564 456.094 321.506 457.391 319.307C458.847 316.952 460.375 314.837 461.973 312.964C463.73 310.934 465.864 309.312 468.374 308.096C471.039 306.884 473.765 306.311 476.551 306.376C479.801 306.451 482.727 307.077 485.329 308.252C488.09 309.272 489.493 311.852 489.538 315.994C489.487 317.904 489.048 319.884 488.219 321.935C487.549 323.83 486.804 325.644 485.984 327.377C485.494 328.321 484.779 329.021 483.838 329.477C483.055 329.777 482.673 329.609 482.689 328.973C482.706 328.336 482.803 327.622 482.979 326.829C483.154 326.037 483.251 325.323 483.268 324.686C483.339 321.981 482.938 319.583 482.064 317.492C481.349 315.246 480.231 313.627 478.708 312.637C477.19 311.486 475.58 310.892 473.877 310.852C471.4 310.794 468.974 311.773 466.597 313.788C464.225 315.644 462.997 318.163 462.912 321.346C462.904 321.664 462.893 322.062 462.881 322.54C462.868 323.017 462.935 323.417 463.081 323.739C463.633 326.3 465.414 329.208 468.426 332.463C471.437 335.718 473.762 338.559 475.402 340.985C478.233 345.192 479.592 349.443 479.478 353.741C479.364 358.038 478.02 361.988 475.447 365.59C473.032 369.038 469.785 371.749 465.706 373.724C461.778 375.862 457.492 376.877 452.848 376.769Z" fill="#FFF9F9"/>
<path d="M590.229 377.339C586.36 377.249 583.455 375.828 581.514 373.075C580.327 371.137 579.164 368.243 578.027 364.395C576.89 360.546 575.912 356.542 575.093 352.383C574.274 348.223 573.589 344.863 573.037 342.302C568.551 347.931 564.53 353.57 560.973 359.22C557.571 364.874 555.286 369.28 554.118 372.438C553.783 373.385 552.679 374.156 550.804 374.749C549.085 375.346 547.374 375.625 545.671 375.585C543.195 375.528 542.287 374.71 542.948 373.133C548.038 362.263 552.884 351.786 557.488 341.701C562.092 331.617 566.93 321.458 572.002 311.225C577.229 300.995 583.086 290.382 589.572 279.386C594.121 271.37 599.513 263.692 605.748 256.353C612.141 248.857 618.884 242.804 625.975 238.191C633.071 233.42 640.179 231.117 647.299 231.282C649.621 231.336 651.771 232.023 653.749 233.343C655.728 234.664 656.681 236.676 656.609 239.382L656.426 246.305C656.409 246.942 655.936 247.249 655.008 247.227C654.543 247.217 654.315 247.052 654.324 246.734C654.391 244.187 653.352 242.491 651.206 241.645C649.065 240.64 646.988 240.113 644.976 240.067C639.558 239.941 634.034 240.927 628.403 243.025C622.144 245.427 616.858 249.126 612.544 254.122C608.23 259.118 604.217 264.439 600.505 270.085C595.668 277.298 590.874 285.786 586.124 295.549C581.378 305.152 576.939 314.843 572.809 324.62C568.832 334.401 565.268 343.236 562.117 351.125C563.878 348.937 565.64 346.748 567.402 344.56C569.163 342.371 570.843 340.34 572.442 338.466C572.45 338.148 572.381 337.828 572.235 337.506C572.243 337.188 572.252 336.869 572.26 336.551C572.29 335.437 572.547 334.488 573.033 333.703C573.518 332.918 574.162 331.977 574.966 330.881C576.091 329.315 577.129 328.145 578.079 327.37C579.033 326.437 580.071 325.267 581.192 323.86L581.781 327.934C588.781 320.931 594.877 315.897 600.069 312.833C603.688 310.688 607.2 309.655 610.606 309.734C614.011 309.813 615.678 311.206 615.606 313.911C615.547 316.14 614.39 318.899 612.134 322.191C611.331 323.287 610.845 324.072 610.678 324.546C610.51 325.02 610.188 325.49 609.711 325.957C609.552 326.112 609.243 326.105 608.783 325.935C608.322 325.765 608.097 325.521 608.105 325.203C608.156 323.293 607.568 322.085 606.342 321.579C605.121 320.913 603.737 320.563 602.189 320.526C599.248 320.458 596.045 321.498 592.581 323.647C589.276 325.64 585.872 328.428 582.37 332.009C583.038 336.006 583.774 340.402 584.576 345.198C585.537 349.839 586.584 354.163 587.717 358.17C588.85 362.178 589.933 365.149 590.966 367.084C591.706 368.376 592.766 369.276 594.146 369.786C595.531 370.137 596.688 370.323 597.616 370.345C599.783 370.395 602.289 369.339 605.134 367.175C608.138 364.856 611.153 362.14 614.178 359.025C617.362 355.755 620.235 352.557 622.796 349.432C625.511 346.31 627.591 343.811 629.035 341.933C629.633 342.743 629.766 343.543 629.436 344.331C629.256 345.283 628.764 346.306 627.96 347.402C627.316 348.343 626.674 349.204 626.034 349.985C622.833 353.892 619.397 357.873 615.728 361.928C612.062 365.824 608.175 369.316 604.067 372.406C602.326 373.798 600.203 375.023 597.697 376.079C595.195 376.977 592.706 377.396 590.229 377.339Z" fill="#FFF9F9"/>
<path d="M711.254 379.677C709.706 379.641 708.399 379.293 707.333 378.631C706.266 377.969 705.756 376.763 705.802 375.012C705.861 372.784 706.47 370.25 707.63 367.411C708.789 364.571 710.101 361.815 711.566 359.142C713.035 356.309 714.334 354.031 715.464 352.305C709.891 358.068 704.094 363.506 698.073 368.621C695.064 371.099 691.751 373.411 688.132 375.556C684.513 377.702 680.691 378.727 676.667 378.634C675.119 378.598 674.048 378.095 673.454 377.126C672.865 375.997 672.589 374.717 672.627 373.285C672.648 372.489 672.74 371.934 672.903 371.619C673.842 365.43 675.947 359.029 679.22 352.417C682.493 345.805 686.451 339.607 691.096 333.823C695.741 328.038 700.433 323.37 705.174 319.818C710.546 315.802 716.405 313.868 722.751 314.016L749.451 314.638C750.225 314.656 750.603 314.983 750.586 315.619C750.553 316.893 749.839 317.513 748.446 317.481C746.898 317.445 745.323 318.443 743.721 320.476C742.122 322.35 740.919 323.914 740.111 325.169C738.982 326.895 737.201 329.8 734.77 333.883C732.338 337.967 729.819 342.447 727.212 347.323C724.764 352.044 722.633 356.453 720.821 360.551C719.009 364.65 718.078 367.654 718.027 369.564C717.968 371.792 719.022 372.931 721.189 372.981C723.511 373.035 726.171 371.983 729.171 369.823C732.171 367.663 735.184 365.026 738.209 361.912C741.393 358.641 744.265 355.444 746.826 352.318C749.546 349.037 751.705 346.46 753.304 344.586C754.207 345.563 754.094 346.914 752.964 348.639C751.993 350.209 751.108 351.462 750.309 352.399C747.104 356.465 743.43 360.679 739.287 365.042C735.149 369.245 730.641 372.803 725.763 375.715C721.043 378.472 716.207 379.793 711.254 379.677ZM686.401 370.739C688.258 370.782 690.848 369.488 694.17 366.859C697.651 364.073 701.381 360.656 705.36 356.609C709.344 352.402 713.099 348.03 716.627 343.494C720.158 338.799 723.058 334.566 725.327 330.797C727.754 326.872 728.995 323.876 729.049 321.807C729.096 320.056 728.586 318.85 727.519 318.188C726.607 317.53 725.377 317.183 723.83 317.147C721.353 317.089 718.619 317.981 715.628 319.822C712.795 321.508 710.505 323.206 708.756 324.917C706.852 326.625 704.534 329.358 701.801 333.116C699.228 336.719 696.644 340.72 694.049 345.118C691.455 349.517 689.251 353.765 687.439 357.864C685.627 361.962 684.687 365.284 684.619 367.831C684.569 369.74 685.163 370.71 686.401 370.739Z" fill="#FFF9F9"/>
<path d="M144.404 371.263C140.534 371.173 136.621 369.808 132.664 367.168C128.858 364.691 125.014 360.7 121.134 355.195C116.366 348.077 112.364 341.296 109.128 334.85C105.891 328.405 103.253 322.77 101.212 317.945C99.3265 313.124 97.8693 309.666 96.8407 307.572C96.8407 307.572 97.2403 307.103 98.0395 306.166C98.8429 305.07 99.799 304.057 100.908 303.128C102.176 302.043 103.196 301.509 103.97 301.527C111.245 301.696 117.748 301.768 123.479 301.742C129.369 301.561 134.58 300.726 139.11 299.239C143.8 297.597 147.98 294.748 151.65 290.693C155.319 286.638 158.493 280.819 161.172 273.238C161.997 271.346 162.512 269.447 162.717 267.541C163.082 265.479 163.289 263.493 163.34 261.584C163.483 256.172 162.294 251.367 159.772 247.168C157.251 242.969 153.522 240.494 148.586 239.742C147.971 239.568 147.276 239.472 146.502 239.454C145.728 239.436 144.955 239.418 144.181 239.4C141.24 239.332 137.979 239.654 134.398 240.367C130.971 241.083 128.378 242.536 126.616 244.724C122.607 249.886 118.734 255.768 114.997 262.37C111.264 268.812 107.682 275.417 104.25 282.185C100.823 288.793 97.5608 295.008 94.4639 300.828C93.6478 302.401 92.1015 305.232 89.8249 309.319C87.5526 313.248 85.0312 317.807 82.2608 322.998C79.4946 328.03 76.8831 333.065 74.4265 338.104C71.9698 343.142 69.9923 347.635 68.4938 351.581C67.1502 355.531 66.7689 358.23 67.3501 359.676C67.5006 359.839 67.5717 360.08 67.5633 360.398C67.5506 360.875 67.3121 361.109 66.8478 361.098C65.6095 361.069 64.3797 360.722 63.1583 360.056C61.937 359.391 60.475 359.039 58.7724 358.999C57.2246 358.963 55.6662 359.325 54.0973 360.084C52.5326 360.685 50.4889 361.832 47.966 363.525C45.4431 365.218 42.6191 366.585 39.494 367.627C39.1802 367.779 38.7137 367.848 38.0946 367.834C37.0111 367.809 36.1683 367.47 35.566 366.819C34.9595 366.328 34.9701 365.93 35.5976 365.626C39.0197 365.068 41.9943 363.864 44.5214 362.011C47.0527 360 49.1323 357.501 50.7602 354.513C54.1582 349.018 57.4788 343.522 60.722 338.023C64.1242 332.37 67.3716 326.712 70.4643 321.051C74.2098 314.132 78.0327 307.214 81.933 300.297C85.8375 293.222 89.7398 286.226 93.6401 279.31C97.373 272.868 100.713 266.655 103.659 260.672C106.605 254.69 108.811 250.362 110.275 247.688C111.414 245.645 113.32 243.858 115.993 242.327C118.825 240.642 121.57 239.352 124.226 238.458C123.298 238.437 122.369 238.415 121.44 238.393C120.516 238.213 119.512 238.11 118.429 238.084C113.63 237.973 108.359 238.169 102.616 238.672C97.0308 239.02 91.515 239.688 86.0681 240.676C80.776 241.667 76.0925 243.071 72.0176 244.887C67.9427 246.703 65.1729 248.948 63.7082 251.621C63.0511 253.039 62.4714 254.459 61.9691 255.88C61.4669 257.302 61.1967 258.729 61.1588 260.161C61.0618 263.822 62.2305 266.476 64.6648 268.126C64.8196 268.129 64.8928 268.29 64.8843 268.608C64.8759 268.927 64.5579 269.238 63.9303 269.542C63.4576 269.849 63.0685 269.92 62.7632 269.753C61.2364 268.922 59.507 266.97 57.575 263.9C55.802 260.673 54.6333 258.019 54.069 255.935C53.6552 254.015 53.4695 252.259 53.5116 250.667C53.6213 246.529 55.0212 243.377 57.7115 241.21C60.4061 238.884 63.7781 237.29 67.8277 236.429C71.8816 235.409 76.0001 234.868 80.1834 234.806C84.5258 234.588 88.3221 234.517 91.5725 234.593C96.5255 234.708 102.407 234.845 109.218 235.004C116.032 235.003 122.303 235.069 128.03 235.202C129.423 235.235 130.971 235.271 132.673 235.311C134.38 235.191 136.162 235.153 138.019 235.196C142.199 235.293 146.526 235.633 151.002 236.215C155.478 236.797 159.552 237.927 163.225 239.605C166.898 241.283 169.696 243.816 171.619 247.205C174.132 251.722 175.313 256.846 175.161 262.575C174.929 271.329 172.491 278.597 167.847 284.381C166.244 286.414 164.489 288.364 162.581 290.231C160.673 292.097 158.457 293.877 155.934 295.57C151.834 298.341 146.971 300.696 141.344 302.636C135.721 304.416 129.879 305.713 123.817 306.527C117.91 307.345 112.476 307.856 107.514 308.059C109.408 312.562 112.268 318.6 116.095 326.174C120.075 333.751 124.908 341.349 130.591 348.966C133.581 353.016 136.681 355.875 139.889 357.542C143.097 359.21 146.249 360.079 149.345 360.151C154.298 360.266 158.981 358.863 163.395 355.94C167.964 353.02 172.081 349.613 175.746 345.717C179.571 341.665 182.606 338.153 184.853 335.179C185.339 334.394 185.736 334.006 186.046 334.013C186.51 334.024 186.73 334.506 186.705 335.461C186.671 336.734 186.173 337.997 185.21 339.248C177.825 349.109 170.801 356.988 164.14 362.884C157.484 368.622 150.905 371.415 144.404 371.263Z" stroke="black" stroke-width="70" stroke-linejoin="round" mask="url(#path-11-outside-1_23_3)"/>
<path d="M144.404 371.263C140.534 371.173 136.621 369.808 132.664 367.168C128.858 364.691 125.014 360.7 121.134 355.195C116.366 348.077 112.364 341.296 109.128 334.85C105.891 328.405 103.253 322.77 101.212 317.945C99.3265 313.124 97.8693 309.666 96.8407 307.572C96.8407 307.572 97.2403 307.103 98.0395 306.166C98.8429 305.07 99.799 304.057 100.908 303.128C102.176 302.043 103.196 301.509 103.97 301.527C111.245 301.696 117.748 301.768 123.479 301.742C129.369 301.561 134.58 300.726 139.11 299.239C143.8 297.597 147.98 294.748 151.65 290.693C155.319 286.638 158.493 280.819 161.172 273.238C161.997 271.346 162.512 269.447 162.717 267.541C163.082 265.479 163.289 263.493 163.34 261.584C163.483 256.172 162.294 251.367 159.772 247.168C157.251 242.969 153.522 240.494 148.586 239.742C147.971 239.568 147.276 239.472 146.502 239.454C145.728 239.436 144.955 239.418 144.181 239.4C141.24 239.332 137.979 239.654 134.398 240.367C130.971 241.083 128.378 242.536 126.616 244.724C122.607 249.886 118.734 255.768 114.997 262.37C111.264 268.812 107.682 275.417 104.25 282.185C100.823 288.793 97.5608 295.008 94.4639 300.828C93.6478 302.401 92.1015 305.232 89.8249 309.319C87.5526 313.248 85.0312 317.807 82.2608 322.998C79.4946 328.03 76.8831 333.065 74.4265 338.104C71.9698 343.142 69.9923 347.635 68.4938 351.581C67.1502 355.531 66.7689 358.23 67.3501 359.676C67.5006 359.839 67.5717 360.08 67.5633 360.398C67.5506 360.875 67.3121 361.109 66.8478 361.098C65.6095 361.069 64.3797 360.722 63.1583 360.056C61.937 359.391 60.475 359.039 58.7724 358.999C57.2246 358.963 55.6662 359.325 54.0973 360.084C52.5326 360.685 50.4889 361.832 47.966 363.525C45.4431 365.218 42.6191 366.585 39.494 367.627C39.1802 367.779 38.7137 367.848 38.0946 367.834C37.0111 367.809 36.1683 367.47 35.566 366.819C34.9595 366.328 34.9701 365.93 35.5976 365.626C39.0197 365.068 41.9943 363.864 44.5214 362.011C47.0527 360 49.1323 357.501 50.7602 354.513C54.1582 349.018 57.4788 343.522 60.722 338.023C64.1242 332.37 67.3716 326.712 70.4643 321.051C74.2098 314.132 78.0327 307.214 81.933 300.297C85.8375 293.222 89.7398 286.226 93.6401 279.31C97.373 272.868 100.713 266.655 103.659 260.672C106.605 254.69 108.811 250.362 110.275 247.688C111.414 245.645 113.32 243.858 115.993 242.327C118.825 240.642 121.57 239.352 124.226 238.458C123.298 238.437 122.369 238.415 121.44 238.393C120.516 238.213 119.512 238.11 118.429 238.084C113.63 237.973 108.359 238.169 102.616 238.672C97.0308 239.02 91.515 239.688 86.0681 240.676C80.776 241.667 76.0925 243.071 72.0176 244.887C67.9427 246.703 65.1729 248.948 63.7082 251.621C63.0511 253.039 62.4714 254.459 61.9691 255.88C61.4669 257.302 61.1967 258.729 61.1588 260.161C61.0618 263.822 62.2305 266.476 64.6648 268.126C64.8196 268.129 64.8928 268.29 64.8843 268.608C64.8759 268.927 64.5579 269.238 63.9303 269.542C63.4576 269.849 63.0685 269.92 62.7632 269.753C61.2364 268.922 59.507 266.97 57.575 263.9C55.802 260.673 54.6333 258.019 54.069 255.935C53.6552 254.015 53.4695 252.259 53.5116 250.667C53.6213 246.529 55.0212 243.377 57.7115 241.21C60.4061 238.884 63.7781 237.29 67.8277 236.429C71.8816 235.409 76.0001 234.868 80.1834 234.806C84.5258 234.588 88.3221 234.517 91.5725 234.593C96.5255 234.708 102.407 234.845 109.218 235.004C116.032 235.003 122.303 235.069 128.03 235.202C129.423 235.235 130.971 235.271 132.673 235.311C134.38 235.191 136.162 235.153 138.019 235.196C142.199 235.293 146.526 235.633 151.002 236.215C155.478 236.797 159.552 237.927 163.225 239.605C166.898 241.283 169.696 243.816 171.619 247.205C174.132 251.722 175.313 256.846 175.161 262.575C174.929 271.329 172.491 278.597 167.847 284.381C166.244 286.414 164.489 288.364 162.581 290.231C160.673 292.097 158.457 293.877 155.934 295.57C151.834 298.341 146.971 300.696 141.344 302.636C135.721 304.416 129.879 305.713 123.817 306.527C117.91 307.345 112.476 307.856 107.514 308.059C109.408 312.562 112.268 318.6 116.095 326.174C120.075 333.751 124.908 341.349 130.591 348.966C133.581 353.016 136.681 355.875 139.889 357.542C143.097 359.21 146.249 360.079 149.345 360.151C154.298 360.266 158.981 358.863 163.395 355.94C167.964 353.02 172.081 349.613 175.746 345.717C179.571 341.665 182.606 338.153 184.853 335.179C185.339 334.394 185.736 334.006 186.046 334.013C186.51 334.024 186.73 334.506 186.705 335.461C186.671 336.734 186.173 337.997 185.21 339.248C177.825 349.109 170.801 356.988 164.14 362.884C157.484 368.622 150.905 371.415 144.404 371.263Z" stroke="#F34343" stroke-width="70" stroke-linejoin="round" mask="url(#path-11-outside-1_23_3)"/>
<path d="M288.953 277.884C286.786 277.833 285.257 277.081 284.367 275.627C283.768 274.817 283.486 273.775 283.52 272.502C283.588 269.956 284.803 267.914 287.167 266.376C288.895 265.461 290.455 265.02 291.848 265.052C294.17 265.106 295.776 265.86 296.667 267.314C297.265 268.124 297.547 269.166 297.514 270.439C297.446 272.985 296.153 275.026 293.634 276.559C292.216 277.482 290.656 277.923 288.953 277.884ZM246.12 368.853C244.572 368.817 243.265 368.468 242.198 367.806C241.287 367.148 240.854 365.944 240.9 364.193C240.959 361.965 241.571 359.351 242.734 356.353C244.053 353.358 245.448 350.364 246.921 347.373C248.549 344.385 249.776 341.945 250.6 340.054C251.743 337.851 253.134 335.017 254.775 331.551C256.574 327.93 258.213 324.545 259.69 321.394C261.326 318.088 262.471 315.806 263.124 314.547C260.894 316.884 258.182 319.846 254.99 323.435C251.956 326.868 249.079 330.224 246.36 333.505C243.64 336.786 241.558 339.365 240.114 341.243C239.633 341.869 239.238 342.178 238.928 342.171C238.619 342.163 238.474 341.762 238.496 340.966C238.529 339.693 238.948 338.508 239.751 337.412C242.793 333.661 246.158 329.44 249.844 324.748C253.685 320.06 257.129 315.761 260.175 311.851C263.226 307.781 265.155 305.119 265.962 303.864C267.673 303.585 270.163 303.165 273.43 302.604C276.852 302.047 279.197 301.225 280.465 300.14C280.942 299.674 281.412 299.446 281.877 299.456C282.186 299.464 282.333 299.786 282.316 300.422C282.458 300.903 282.288 301.457 281.807 302.082C280.849 303.175 279.152 305.843 276.716 310.086C274.281 314.329 271.678 319.046 268.907 324.236C266.296 329.271 263.852 333.833 261.575 337.92C259.295 342.167 257.328 346.262 255.674 350.204C254.021 354.147 253.171 356.994 253.125 358.744C253.066 360.973 254.12 362.112 256.287 362.162C258.299 362.209 260.887 360.995 264.05 358.521C267.368 356.05 270.698 353.102 274.041 349.676C277.389 346.091 280.341 342.816 282.897 339.85C283.696 338.913 284.655 337.82 285.772 336.572C287.048 335.169 287.845 334.312 288.163 334C288.464 334.326 288.604 334.887 288.583 335.682C288.399 336.793 287.982 337.898 287.334 338.997C286.689 339.938 286.047 340.799 285.407 341.58C282.047 345.643 278.373 349.857 274.385 354.223C270.402 358.43 266.049 361.991 261.325 364.907C256.606 367.664 251.537 368.979 246.12 368.853Z" stroke="black" stroke-width="70" stroke-linejoin="round" mask="url(#path-11-outside-1_23_3)"/>
<path d="M288.953 277.884C286.786 277.833 285.257 277.081 284.367 275.627C283.768 274.817 283.486 273.775 283.52 272.502C283.588 269.956 284.803 267.914 287.167 266.376C288.895 265.461 290.455 265.02 291.848 265.052C294.17 265.106 295.776 265.86 296.667 267.314C297.265 268.124 297.547 269.166 297.514 270.439C297.446 272.985 296.153 275.026 293.634 276.559C292.216 277.482 290.656 277.923 288.953 277.884ZM246.12 368.853C244.572 368.817 243.265 368.468 242.198 367.806C241.287 367.148 240.854 365.944 240.9 364.193C240.959 361.965 241.571 359.351 242.734 356.353C244.053 353.358 245.448 350.364 246.921 347.373C248.549 344.385 249.776 341.945 250.6 340.054C251.743 337.851 253.134 335.017 254.775 331.551C256.574 327.93 258.213 324.545 259.69 321.394C261.326 318.088 262.471 315.806 263.124 314.547C260.894 316.884 258.182 319.846 254.99 323.435C251.956 326.868 249.079 330.224 246.36 333.505C243.64 336.786 241.558 339.365 240.114 341.243C239.633 341.869 239.238 342.178 238.928 342.171C238.619 342.163 238.474 341.762 238.496 340.966C238.529 339.693 238.948 338.508 239.751 337.412C242.793 333.661 246.158 329.44 249.844 324.748C253.685 320.06 257.129 315.761 260.175 311.851C263.226 307.781 265.155 305.119 265.962 303.864C267.673 303.585 270.163 303.165 273.43 302.604C276.852 302.047 279.197 301.225 280.465 300.14C280.942 299.674 281.412 299.446 281.877 299.456C282.186 299.464 282.333 299.786 282.316 300.422C282.458 300.903 282.288 301.457 281.807 302.082C280.849 303.175 279.152 305.843 276.716 310.086C274.281 314.329 271.678 319.046 268.907 324.236C266.296 329.271 263.852 333.833 261.575 337.92C259.295 342.167 257.328 346.262 255.674 350.204C254.021 354.147 253.171 356.994 253.125 358.744C253.066 360.973 254.12 362.112 256.287 362.162C258.299 362.209 260.887 360.995 264.05 358.521C267.368 356.05 270.698 353.102 274.041 349.676C277.389 346.091 280.341 342.816 282.897 339.85C283.696 338.913 284.655 337.82 285.772 336.572C287.048 335.169 287.845 334.312 288.163 334C288.464 334.326 288.604 334.887 288.583 335.682C288.399 336.793 287.982 337.898 287.334 338.997C286.689 339.938 286.047 340.799 285.407 341.58C282.047 345.643 278.373 349.857 274.385 354.223C270.402 358.43 266.049 361.991 261.325 364.907C256.606 367.664 251.537 368.979 246.12 368.853Z" stroke="#F34343" stroke-width="70" stroke-linejoin="round" mask="url(#path-11-outside-1_23_3)"/>
<path d="M389.34 280.22C387.173 280.169 385.644 279.417 384.754 277.963C384.156 277.153 383.873 276.111 383.907 274.838C383.975 272.292 385.19 270.25 387.554 268.712C389.282 267.797 390.842 267.356 392.235 267.388C394.557 267.442 396.163 268.196 397.054 269.65C397.652 270.46 397.934 271.502 397.901 272.775C397.833 275.322 396.54 277.362 394.021 278.896C392.603 279.818 391.043 280.26 389.34 280.22ZM346.507 371.189C344.959 371.153 343.652 370.804 342.585 370.142C341.674 369.484 341.241 368.28 341.287 366.529C341.346 364.301 341.958 361.688 343.121 358.689C344.44 355.694 345.835 352.701 347.308 349.709C348.936 346.721 350.163 344.282 350.987 342.39C352.13 340.187 353.521 337.353 355.162 333.888C356.961 330.267 358.6 326.881 360.077 323.73C361.714 320.424 362.858 318.142 363.511 316.883C361.281 319.22 358.569 322.182 355.377 325.771C352.343 329.204 349.466 332.561 346.747 335.842C344.027 339.122 341.945 341.702 340.501 343.579C340.02 344.205 339.625 344.514 339.315 344.507C339.006 344.5 338.861 344.098 338.883 343.302C338.916 342.029 339.335 340.845 340.138 339.749C343.18 335.997 346.545 331.776 350.231 327.084C354.072 322.396 357.516 318.097 360.562 314.187C363.613 310.117 365.542 307.455 366.35 306.2C368.061 305.921 370.55 305.501 373.817 304.94C377.239 304.383 379.584 303.562 380.852 302.476C381.329 302.01 381.799 301.782 382.264 301.793C382.573 301.8 382.72 302.122 382.703 302.758C382.845 303.239 382.675 303.793 382.194 304.419C381.236 305.511 379.539 308.179 377.103 312.422C374.668 316.665 372.065 321.382 369.294 326.572C366.683 331.608 364.239 336.169 361.962 340.256C359.682 344.503 357.715 348.598 356.061 352.541C354.408 356.483 353.558 359.33 353.512 361.081C353.453 363.309 354.507 364.448 356.674 364.498C358.686 364.545 361.274 363.331 364.437 360.857C367.755 358.386 371.085 355.438 374.428 352.012C377.776 348.428 380.728 345.152 383.284 342.186C384.083 341.249 385.042 340.157 386.159 338.909C387.435 337.505 388.232 336.648 388.55 336.337C388.851 336.662 388.991 337.223 388.97 338.019C388.786 339.129 388.369 340.234 387.721 341.334C387.076 342.274 386.434 343.135 385.794 343.916C382.434 347.979 378.76 352.193 374.772 356.559C370.789 360.766 366.436 364.327 361.712 367.243C356.993 370 351.924 371.315 346.507 371.189Z" stroke="black" stroke-width="70" stroke-linejoin="round" mask="url(#path-11-outside-1_23_3)"/>
<path d="M389.34 280.22C387.173 280.169 385.644 279.417 384.754 277.963C384.156 277.153 383.873 276.111 383.907 274.838C383.975 272.292 385.19 270.25 387.554 268.712C389.282 267.797 390.842 267.356 392.235 267.388C394.557 267.442 396.163 268.196 397.054 269.65C397.652 270.46 397.934 271.502 397.901 272.775C397.833 275.322 396.54 277.362 394.021 278.896C392.603 279.818 391.043 280.26 389.34 280.22ZM346.507 371.189C344.959 371.153 343.652 370.804 342.585 370.142C341.674 369.484 341.241 368.28 341.287 366.529C341.346 364.301 341.958 361.688 343.121 358.689C344.44 355.694 345.835 352.701 347.308 349.709C348.936 346.721 350.163 344.282 350.987 342.39C352.13 340.187 353.521 337.353 355.162 333.888C356.961 330.267 358.6 326.881 360.077 323.73C361.714 320.424 362.858 318.142 363.511 316.883C361.281 319.22 358.569 322.182 355.377 325.771C352.343 329.204 349.466 332.561 346.747 335.842C344.027 339.122 341.945 341.702 340.501 343.579C340.02 344.205 339.625 344.514 339.315 344.507C339.006 344.5 338.861 344.098 338.883 343.302C338.916 342.029 339.335 340.845 340.138 339.749C343.18 335.997 346.545 331.776 350.231 327.084C354.072 322.396 357.516 318.097 360.562 314.187C363.613 310.117 365.542 307.455 366.35 306.2C368.061 305.921 370.55 305.501 373.817 304.94C377.239 304.383 379.584 303.562 380.852 302.476C381.329 302.01 381.799 301.782 382.264 301.793C382.573 301.8 382.72 302.122 382.703 302.758C382.845 303.239 382.675 303.793 382.194 304.419C381.236 305.511 379.539 308.179 377.103 312.422C374.668 316.665 372.065 321.382 369.294 326.572C366.683 331.608 364.239 336.169 361.962 340.256C359.682 344.503 357.715 348.598 356.061 352.541C354.408 356.483 353.558 359.33 353.512 361.081C353.453 363.309 354.507 364.448 356.674 364.498C358.686 364.545 361.274 363.331 364.437 360.857C367.755 358.386 371.085 355.438 374.428 352.012C377.776 348.428 380.728 345.152 383.284 342.186C384.083 341.249 385.042 340.157 386.159 338.909C387.435 337.505 388.232 336.648 388.55 336.337C388.851 336.662 388.991 337.223 388.97 338.019C388.786 339.129 388.369 340.234 387.721 341.334C387.076 342.274 386.434 343.135 385.794 343.916C382.434 347.979 378.76 352.193 374.772 356.559C370.789 360.766 366.436 364.327 361.712 367.243C356.993 370 351.924 371.315 346.507 371.189Z" stroke="#F34343" stroke-width="70" stroke-linejoin="round" mask="url(#path-11-outside-1_23_3)"/>
<path d="M452.848 376.769C450.062 376.704 447.132 376.238 444.057 375.37C440.983 374.503 438.231 373.164 435.8 371.356C433.529 369.392 432.049 366.81 431.359 363.609C431.217 363.128 431.159 362.41 431.184 361.455C431.243 359.227 431.773 356.771 432.773 354.087C433.928 351.407 435.295 349.527 436.872 348.449C437.5 348.145 437.964 348.156 438.265 348.482C438.721 348.811 438.79 349.131 438.472 349.442C438.304 349.916 438.055 350.547 437.725 351.336C437.398 351.965 437.147 352.676 436.971 353.468C436.397 357.595 437.152 361.275 439.234 364.509C440.129 365.804 441.181 367.022 442.39 368.165C443.753 369.312 445.044 370.297 446.261 371.122C447.327 371.784 448.63 372.292 450.17 372.646C451.713 372.841 453.259 372.957 454.807 372.993C457.283 373.051 459.691 372.788 462.03 372.205C464.368 371.623 466.098 370.628 467.219 369.221C469.299 366.721 470.381 363.88 470.465 360.697C470.529 358.31 469.977 355.749 468.81 353.015C467.644 350.28 465.785 347.37 463.234 344.285C461.582 342.336 460.012 340.229 458.523 337.965C457.034 335.701 456.091 333.29 455.694 330.733C455.552 330.252 455.41 329.771 455.268 329.29C455.28 328.812 455.293 328.335 455.306 327.858C453.214 330.835 451.048 333.651 448.809 336.306C446.73 338.805 444.891 340.992 443.292 342.866C442.648 343.806 442.094 344.271 441.629 344.26C441.32 344.253 441.173 343.931 441.19 343.295C441.228 341.862 441.887 340.365 443.168 338.802C444.444 337.399 445.883 335.68 447.486 333.647C449.093 331.455 450.377 329.733 451.34 328.482C454.077 324.564 456.094 321.506 457.391 319.307C458.847 316.952 460.375 314.837 461.973 312.964C463.73 310.934 465.864 309.312 468.374 308.096C471.039 306.884 473.765 306.311 476.551 306.376C479.801 306.451 482.727 307.077 485.329 308.252C488.09 309.272 489.493 311.852 489.538 315.994C489.487 317.904 489.048 319.884 488.219 321.935C487.549 323.83 486.804 325.644 485.984 327.377C485.494 328.321 484.779 329.021 483.838 329.477C483.055 329.777 482.673 329.609 482.689 328.973C482.706 328.336 482.803 327.622 482.979 326.829C483.154 326.037 483.251 325.323 483.268 324.686C483.339 321.981 482.938 319.583 482.064 317.492C481.349 315.246 480.231 313.627 478.708 312.637C477.19 311.486 475.58 310.892 473.877 310.852C471.4 310.794 468.974 311.773 466.597 313.788C464.225 315.644 462.997 318.163 462.912 321.346C462.904 321.664 462.893 322.062 462.881 322.54C462.868 323.017 462.935 323.417 463.081 323.739C463.633 326.3 465.414 329.208 468.426 332.463C471.437 335.718 473.762 338.559 475.402 340.985C478.233 345.192 479.592 349.443 479.478 353.741C479.364 358.038 478.02 361.988 475.447 365.59C473.032 369.038 469.785 371.749 465.706 373.724C461.778 375.862 457.492 376.877 452.848 376.769Z" stroke="black" stroke-width="70" stroke-linejoin="round" mask="url(#path-11-outside-1_23_3)"/>
<path d="M452.848 376.769C450.062 376.704 447.132 376.238 444.057 375.37C440.983 374.503 438.231 373.164 435.8 371.356C433.529 369.392 432.049 366.81 431.359 363.609C431.217 363.128 431.159 362.41 431.184 361.455C431.243 359.227 431.773 356.771 432.773 354.087C433.928 351.407 435.295 349.527 436.872 348.449C437.5 348.145 437.964 348.156 438.265 348.482C438.721 348.811 438.79 349.131 438.472 349.442C438.304 349.916 438.055 350.547 437.725 351.336C437.398 351.965 437.147 352.676 436.971 353.468C436.397 357.595 437.152 361.275 439.234 364.509C440.129 365.804 441.181 367.022 442.39 368.165C443.753 369.312 445.044 370.297 446.261 371.122C447.327 371.784 448.63 372.292 450.17 372.646C451.713 372.841 453.259 372.957 454.807 372.993C457.283 373.051 459.691 372.788 462.03 372.205C464.368 371.623 466.098 370.628 467.219 369.221C469.299 366.721 470.381 363.88 470.465 360.697C470.529 358.31 469.977 355.749 468.81 353.015C467.644 350.28 465.785 347.37 463.234 344.285C461.582 342.336 460.012 340.229 458.523 337.965C457.034 335.701 456.091 333.29 455.694 330.733C455.552 330.252 455.41 329.771 455.268 329.29C455.28 328.812 455.293 328.335 455.306 327.858C453.214 330.835 451.048 333.651 448.809 336.306C446.73 338.805 444.891 340.992 443.292 342.866C442.648 343.806 442.094 344.271 441.629 344.26C441.32 344.253 441.173 343.931 441.19 343.295C441.228 341.862 441.887 340.365 443.168 338.802C444.444 337.399 445.883 335.68 447.486 333.647C449.093 331.455 450.377 329.733 451.34 328.482C454.077 324.564 456.094 321.506 457.391 319.307C458.847 316.952 460.375 314.837 461.973 312.964C463.73 310.934 465.864 309.312 468.374 308.096C471.039 306.884 473.765 306.311 476.551 306.376C479.801 306.451 482.727 307.077 485.329 308.252C488.09 309.272 489.493 311.852 489.538 315.994C489.487 317.904 489.048 319.884 488.219 321.935C487.549 323.83 486.804 325.644 485.984 327.377C485.494 328.321 484.779 329.021 483.838 329.477C483.055 329.777 482.673 329.609 482.689 328.973C482.706 328.336 482.803 327.622 482.979 326.829C483.154 326.037 483.251 325.323 483.268 324.686C483.339 321.981 482.938 319.583 482.064 317.492C481.349 315.246 480.231 313.627 478.708 312.637C477.19 311.486 475.58 310.892 473.877 310.852C471.4 310.794 468.974 311.773 466.597 313.788C464.225 315.644 462.997 318.163 462.912 321.346C462.904 321.664 462.893 322.062 462.881 322.54C462.868 323.017 462.935 323.417 463.081 323.739C463.633 326.3 465.414 329.208 468.426 332.463C471.437 335.718 473.762 338.559 475.402 340.985C478.233 345.192 479.592 349.443 479.478 353.741C479.364 358.038 478.02 361.988 475.447 365.59C473.032 369.038 469.785 371.749 465.706 373.724C461.778 375.862 457.492 376.877 452.848 376.769Z" stroke="#F34343" stroke-width="70" stroke-linejoin="round" mask="url(#path-11-outside-1_23_3)"/>
<path d="M590.229 377.339C586.36 377.249 583.455 375.828 581.514 373.075C580.327 371.137 579.164 368.243 578.027 364.395C576.89 360.546 575.912 356.542 575.093 352.383C574.274 348.223 573.589 344.863 573.037 342.302C568.551 347.931 564.53 353.57 560.973 359.22C557.571 364.874 555.286 369.28 554.118 372.438C553.783 373.385 552.679 374.156 550.804 374.749C549.085 375.346 547.374 375.625 545.671 375.585C543.195 375.528 542.287 374.71 542.948 373.133C548.038 362.263 552.884 351.786 557.488 341.701C562.092 331.617 566.93 321.458 572.002 311.225C577.229 300.995 583.086 290.382 589.572 279.386C594.121 271.37 599.513 263.692 605.748 256.353C612.141 248.857 618.884 242.804 625.975 238.191C633.071 233.42 640.179 231.117 647.299 231.282C649.621 231.336 651.771 232.023 653.749 233.343C655.728 234.664 656.681 236.676 656.609 239.382L656.426 246.305C656.409 246.942 655.936 247.249 655.008 247.227C654.543 247.217 654.315 247.052 654.324 246.734C654.391 244.187 653.352 242.491 651.206 241.645C649.065 240.64 646.988 240.113 644.976 240.067C639.558 239.941 634.034 240.927 628.403 243.025C622.144 245.427 616.858 249.126 612.544 254.122C608.23 259.118 604.217 264.439 600.505 270.085C595.668 277.298 590.874 285.786 586.124 295.549C581.378 305.152 576.939 314.843 572.809 324.62C568.832 334.401 565.268 343.236 562.117 351.125C563.878 348.937 565.64 346.748 567.402 344.56C569.163 342.371 570.843 340.34 572.442 338.466C572.45 338.148 572.381 337.828 572.235 337.506C572.243 337.188 572.252 336.869 572.26 336.551C572.29 335.437 572.547 334.488 573.033 333.703C573.518 332.918 574.162 331.977 574.966 330.881C576.091 329.315 577.129 328.145 578.079 327.37C579.033 326.437 580.071 325.267 581.192 323.86L581.781 327.934C588.781 320.931 594.877 315.897 600.069 312.833C603.688 310.688 607.2 309.655 610.606 309.734C614.011 309.813 615.678 311.206 615.606 313.911C615.547 316.14 614.39 318.899 612.134 322.191C611.331 323.287 610.845 324.072 610.678 324.546C610.51 325.02 610.188 325.49 609.711 325.957C609.552 326.112 609.243 326.105 608.783 325.935C608.322 325.765 608.097 325.521 608.105 325.203C608.156 323.293 607.568 322.085 606.342 321.579C605.121 320.913 603.737 320.563 602.189 320.526C599.248 320.458 596.045 321.498 592.581 323.647C589.276 325.64 585.872 328.428 582.37 332.009C583.038 336.006 583.774 340.402 584.576 345.198C585.537 349.839 586.584 354.163 587.717 358.17C588.85 362.178 589.933 365.149 590.966 367.084C591.706 368.376 592.766 369.276 594.146 369.786C595.531 370.137 596.688 370.323 597.616 370.345C599.783 370.395 602.289 369.339 605.134 367.175C608.138 364.856 611.153 362.14 614.178 359.025C617.362 355.755 620.235 352.557 622.796 349.432C625.511 346.31 627.591 343.811 629.035 341.933C629.633 342.743 629.766 343.543 629.436 344.331C629.256 345.283 628.764 346.306 627.96 347.402C627.316 348.343 626.674 349.204 626.034 349.985C622.833 353.892 619.397 357.873 615.728 361.928C612.062 365.824 608.175 369.316 604.067 372.406C602.326 373.798 600.203 375.023 597.697 376.079C595.195 376.977 592.706 377.396 590.229 377.339Z" stroke="black" stroke-width="70" stroke-linejoin="round" mask="url(#path-11-outside-1_23_3)"/>
<path d="M590.229 377.339C586.36 377.249 583.455 375.828 581.514 373.075C580.327 371.137 579.164 368.243 578.027 364.395C576.89 360.546 575.912 356.542 575.093 352.383C574.274 348.223 573.589 344.863 573.037 342.302C568.551 347.931 564.53 353.57 560.973 359.22C557.571 364.874 555.286 369.28 554.118 372.438C553.783 373.385 552.679 374.156 550.804 374.749C549.085 375.346 547.374 375.625 545.671 375.585C543.195 375.528 542.287 374.71 542.948 373.133C548.038 362.263 552.884 351.786 557.488 341.701C562.092 331.617 566.93 321.458 572.002 311.225C577.229 300.995 583.086 290.382 589.572 279.386C594.121 271.37 599.513 263.692 605.748 256.353C612.141 248.857 618.884 242.804 625.975 238.191C633.071 233.42 640.179 231.117 647.299 231.282C649.621 231.336 651.771 232.023 653.749 233.343C655.728 234.664 656.681 236.676 656.609 239.382L656.426 246.305C656.409 246.942 655.936 247.249 655.008 247.227C654.543 247.217 654.315 247.052 654.324 246.734C654.391 244.187 653.352 242.491 651.206 241.645C649.065 240.64 646.988 240.113 644.976 240.067C639.558 239.941 634.034 240.927 628.403 243.025C622.144 245.427 616.858 249.126 612.544 254.122C608.23 259.118 604.217 264.439 600.505 270.085C595.668 277.298 590.874 285.786 586.124 295.549C581.378 305.152 576.939 314.843 572.809 324.62C568.832 334.401 565.268 343.236 562.117 351.125C563.878 348.937 565.64 346.748 567.402 344.56C569.163 342.371 570.843 340.34 572.442 338.466C572.45 338.148 572.381 337.828 572.235 337.506C572.243 337.188 572.252 336.869 572.26 336.551C572.29 335.437 572.547 334.488 573.033 333.703C573.518 332.918 574.162 331.977 574.966 330.881C576.091 329.315 577.129 328.145 578.079 327.37C579.033 326.437 580.071 325.267 581.192 323.86L581.781 327.934C588.781 320.931 594.877 315.897 600.069 312.833C603.688 310.688 607.2 309.655 610.606 309.734C614.011 309.813 615.678 311.206 615.606 313.911C615.547 316.14 614.39 318.899 612.134 322.191C611.331 323.287 610.845 324.072 610.678 324.546C610.51 325.02 610.188 325.49 609.711 325.957C609.552 326.112 609.243 326.105 608.783 325.935C608.322 325.765 608.097 325.521 608.105 325.203C608.156 323.293 607.568 322.085 606.342 321.579C605.121 320.913 603.737 320.563 602.189 320.526C599.248 320.458 596.045 321.498 592.581 323.647C589.276 325.64 585.872 328.428 582.37 332.009C583.038 336.006 583.774 340.402 584.576 345.198C585.537 349.839 586.584 354.163 587.717 358.17C588.85 362.178 589.933 365.149 590.966 367.084C591.706 368.376 592.766 369.276 594.146 369.786C595.531 370.137 596.688 370.323 597.616 370.345C599.783 370.395 602.289 369.339 605.134 367.175C608.138 364.856 611.153 362.14 614.178 359.025C617.362 355.755 620.235 352.557 622.796 349.432C625.511 346.31 627.591 343.811 629.035 341.933C629.633 342.743 629.766 343.543 629.436 344.331C629.256 345.283 628.764 346.306 627.96 347.402C627.316 348.343 626.674 349.204 626.034 349.985C622.833 353.892 619.397 357.873 615.728 361.928C612.062 365.824 608.175 369.316 604.067 372.406C602.326 373.798 600.203 375.023 597.697 376.079C595.195 376.977 592.706 377.396 590.229 377.339Z" stroke="#F34343" stroke-width="70" stroke-linejoin="round" mask="url(#path-11-outside-1_23_3)"/>
<path d="M711.254 379.677C709.706 379.641 708.399 379.293 707.333 378.631C706.266 377.969 705.756 376.763 705.802 375.012C705.861 372.784 706.47 370.25 707.63 367.411C708.789 364.571 710.101 361.815 711.566 359.142C713.035 356.309 714.334 354.031 715.464 352.305C709.891 358.068 704.094 363.506 698.073 368.621C695.064 371.099 691.751 373.411 688.132 375.556C684.513 377.702 680.691 378.727 676.667 378.634C675.119 378.598 674.048 378.095 673.454 377.126C672.865 375.997 672.589 374.717 672.627 373.285C672.648 372.489 672.74 371.934 672.903 371.619C673.842 365.43 675.947 359.029 679.22 352.417C682.493 345.805 686.451 339.607 691.096 333.823C695.741 328.038 700.433 323.37 705.174 319.818C710.546 315.802 716.405 313.868 722.751 314.016L749.451 314.638C750.225 314.656 750.603 314.983 750.586 315.619C750.553 316.893 749.839 317.513 748.446 317.481C746.898 317.445 745.323 318.443 743.721 320.476C742.122 322.35 740.919 323.914 740.111 325.169C738.982 326.895 737.201 329.8 734.77 333.883C732.338 337.967 729.819 342.447 727.212 347.323C724.764 352.044 722.633 356.453 720.821 360.551C719.009 364.65 718.078 367.654 718.027 369.564C717.968 371.792 719.022 372.931 721.189 372.981C723.511 373.035 726.171 371.983 729.171 369.823C732.171 367.663 735.184 365.026 738.209 361.912C741.393 358.641 744.265 355.444 746.826 352.318C749.546 349.037 751.705 346.46 753.304 344.586C754.207 345.563 754.094 346.914 752.964 348.639C751.993 350.209 751.108 351.462 750.309 352.399C747.104 356.465 743.43 360.679 739.287 365.042C735.149 369.245 730.641 372.803 725.763 375.715C721.043 378.472 716.207 379.793 711.254 379.677ZM686.401 370.739C688.258 370.782 690.848 369.488 694.17 366.859C697.651 364.073 701.381 360.656 705.36 356.609C709.344 352.402 713.099 348.03 716.627 343.494C720.158 338.799 723.058 334.566 725.327 330.797C727.754 326.872 728.995 323.876 729.049 321.807C729.096 320.056 728.586 318.85 727.519 318.188C726.607 317.53 725.377 317.183 723.83 317.147C721.353 317.089 718.619 317.981 715.628 319.822C712.795 321.508 710.505 323.206 708.756 324.917C706.852 326.625 704.534 329.358 701.801 333.116C699.228 336.719 696.644 340.72 694.049 345.118C691.455 349.517 689.251 353.765 687.439 357.864C685.627 361.962 684.687 365.284 684.619 367.831C684.569 369.74 685.163 370.71 686.401 370.739Z" stroke="black" stroke-width="70" stroke-linejoin="round" mask="url(#path-11-outside-1_23_3)"/>
<path d="M711.254 379.677C709.706 379.641 708.399 379.293 707.333 378.631C706.266 377.969 705.756 376.763 705.802 375.012C705.861 372.784 706.47 370.25 707.63 367.411C708.789 364.571 710.101 361.815 711.566 359.142C713.035 356.309 714.334 354.031 715.464 352.305C709.891 358.068 704.094 363.506 698.073 368.621C695.064 371.099 691.751 373.411 688.132 375.556C684.513 377.702 680.691 378.727 676.667 378.634C675.119 378.598 674.048 378.095 673.454 377.126C672.865 375.997 672.589 374.717 672.627 373.285C672.648 372.489 672.74 371.934 672.903 371.619C673.842 365.43 675.947 359.029 679.22 352.417C682.493 345.805 686.451 339.607 691.096 333.823C695.741 328.038 700.433 323.37 705.174 319.818C710.546 315.802 716.405 313.868 722.751 314.016L749.451 314.638C750.225 314.656 750.603 314.983 750.586 315.619C750.553 316.893 749.839 317.513 748.446 317.481C746.898 317.445 745.323 318.443 743.721 320.476C742.122 322.35 740.919 323.914 740.111 325.169C738.982 326.895 737.201 329.8 734.77 333.883C732.338 337.967 729.819 342.447 727.212 347.323C724.764 352.044 722.633 356.453 720.821 360.551C719.009 364.65 718.078 367.654 718.027 369.564C717.968 371.792 719.022 372.931 721.189 372.981C723.511 373.035 726.171 371.983 729.171 369.823C732.171 367.663 735.184 365.026 738.209 361.912C741.393 358.641 744.265 355.444 746.826 352.318C749.546 349.037 751.705 346.46 753.304 344.586C754.207 345.563 754.094 346.914 752.964 348.639C751.993 350.209 751.108 351.462 750.309 352.399C747.104 356.465 743.43 360.679 739.287 365.042C735.149 369.245 730.641 372.803 725.763 375.715C721.043 378.472 716.207 379.793 711.254 379.677ZM686.401 370.739C688.258 370.782 690.848 369.488 694.17 366.859C697.651 364.073 701.381 360.656 705.36 356.609C709.344 352.402 713.099 348.03 716.627 343.494C720.158 338.799 723.058 334.566 725.327 330.797C727.754 326.872 728.995 323.876 729.049 321.807C729.096 320.056 728.586 318.85 727.519 318.188C726.607 317.53 725.377 317.183 723.83 317.147C721.353 317.089 718.619 317.981 715.628 319.822C712.795 321.508 710.505 323.206 708.756 324.917C706.852 326.625 704.534 329.358 701.801 333.116C699.228 336.719 696.644 340.72 694.049 345.118C691.455 349.517 689.251 353.765 687.439 357.864C685.627 361.962 684.687 365.284 684.619 367.831C684.569 369.74 685.163 370.71 686.401 370.739Z" stroke="#F34343" stroke-width="70" stroke-linejoin="round" mask="url(#path-11-outside-1_23_3)"/>
</g>
<defs>
<filter id="filter0_f_23_3" x="279.584" y="348.909" width="338.791" height="206.348" filterUnits="userSpaceOnUse" color-interpolation-filters="sRGB">
<feFlood flood-opacity="0" result="BackgroundImageFix"/>
<feBlend mode="normal" in="SourceGraphic" in2="BackgroundImageFix" result="shape"/>
<feGaussianBlur stdDeviation="0.5" result="effect1_foregroundBlur_23_3"/>
</filter>
<filter id="filter1_d_23_3" x="0.118103" y="196.274" width="802.787" height="232.411" filterUnits="userSpaceOnUse" color-interpolation-filters="sRGB">
<feFlood flood-opacity="0" result="BackgroundImageFix"/>
<feColorMatrix in="SourceAlpha" type="matrix" values="0 0 0 0 0 0 0 0 0 0 0 0 0 0 0 0 0 0 127 0" result="hardAlpha"/>
<feOffset dx="10" dy="10"/>
<feGaussianBlur stdDeviation="2"/>
<feComposite in2="hardAlpha" operator="out"/>
<feColorMatrix type="matrix" values="0 0 0 0 0.9875 0 0 0 0 0.345625 0 0 0 0 0.345625 0 0 0 0.25 0"/>
<feBlend mode="normal" in2="BackgroundImageFix" result="effect1_dropShadow_23_3"/>
<feBlend mode="normal" in="SourceGraphic" in2="effect1_dropShadow_23_3" result="shape"/>
</filter>
</defs>
</svg>
