<svg width="329" height="198" viewBox="0 0 329 198" fill="none" xmlns="http://www.w3.org/2000/svg">
<g filter="url(#filter0_d_137_41)">
<path d="M325 99.5C325 151.691 281.572 194 228 194C174.428 194 131 151.691 131 99.5C131 47.3091 174.428 5 228 5C281.572 5 325 47.3091 325 99.5Z" fill="#3FC703"/>
</g>
<g filter="url(#filter1_d_137_41)">
<ellipse cx="101" cy="98.5" rx="97" ry="94.5" fill="#F5BB02"/>
</g>
<path d="M110.16 129.24L111.144 129.216C111.416 129.216 111.96 129.176 112.776 129.096C113.608 129 114.152 128.912 114.408 128.832C114.664 128.736 114.816 128.688 114.864 128.688C115.088 128.688 115.2 128.832 115.2 129.12C115.2 129.536 114.832 129.912 114.096 130.248C113.376 130.584 112.544 130.752 111.6 130.752C111.104 131.072 110.576 131.736 110.016 132.744C109.472 133.736 108.944 135.144 108.432 136.968C107.92 138.776 107.664 140.056 107.664 140.808C107.664 141.56 107.84 142.08 108.192 142.368C108.56 142.656 109.12 142.872 109.872 143.016L109.368 143.904C108.952 143.936 108.64 143.952 108.432 143.952C107.664 143.952 107.064 143.696 106.632 143.184C106.216 142.656 106.008 142.04 106.008 141.336C106.008 140.632 106.072 140.048 106.2 139.584C107.176 135.696 107.992 133.28 108.648 132.336C108.984 131.84 109.472 131.304 110.112 130.728L107.856 130.776C106.8 131.8 105.872 133.592 105.072 136.152C104.288 138.696 103.344 140.64 102.24 141.984C101.152 143.312 99.856 143.976 98.352 143.976C97.76 143.976 97.2 143.784 96.672 143.4L97.224 142.488C97.416 142.584 97.632 142.672 97.872 142.752L98.208 142.8C98.288 142.816 98.408 142.824 98.568 142.824C99.368 142.824 100.08 142.44 100.704 141.672C101.344 140.904 102.008 139.456 102.696 137.328C103.4 135.184 103.944 133.768 104.328 133.08C104.728 132.376 105.416 131.6 106.392 130.752C106.392 130.752 105.248 130.728 102.96 130.68C99.456 130.68 97.704 131.448 97.704 132.984C97.704 133.384 97.848 133.712 98.136 133.968C98.44 134.208 98.888 134.328 99.48 134.328C100.072 134.328 100.848 134.056 101.808 133.512L102.168 134.136C101.672 134.664 101.112 135.08 100.488 135.384C99.864 135.688 99.24 135.84 98.616 135.84C97.992 135.84 97.456 135.632 97.008 135.216C96.56 134.8 96.336 134.28 96.336 133.656C96.336 132.392 97.016 131.288 98.376 130.344C99.752 129.4 101.608 128.928 103.944 128.928C103.992 128.928 104.368 128.952 105.072 129C107.456 129.16 109.152 129.24 110.16 129.24ZM118.009 139.584C119.225 137.76 120.281 136.52 121.177 135.864C122.073 135.192 122.857 134.856 123.529 134.856C124.201 134.856 124.721 135.064 125.089 135.48C125.457 135.88 125.641 136.392 125.641 137.016C125.641 138.744 125.017 140.344 123.769 141.816C122.537 143.272 121.145 144 119.593 144C118.905 144 118.361 143.88 117.961 143.64L118.537 142.608C119.385 142.72 119.905 142.776 120.097 142.776C120.961 142.776 121.769 142.272 122.521 141.264C123.273 140.256 123.649 139.224 123.649 138.168C123.649 137.768 123.529 137.44 123.289 137.184C123.065 136.912 122.769 136.776 122.401 136.776C121.521 136.776 120.521 137.552 119.401 139.104C118.297 140.656 117.257 142.576 116.281 144.864C115.321 147.168 114.481 149.616 113.761 152.208L112.321 151.704C112.353 151.608 112.657 150.776 113.233 149.208C113.793 147.656 114.345 146.112 114.889 144.576C116.393 140.352 117.145 138.04 117.145 137.64C117.145 136.616 116.937 135.688 116.521 134.856L117.721 134.256C118.217 134.944 118.465 135.672 118.465 136.44C118.465 137.192 118.313 138.24 118.009 139.584ZM133.625 136.872C134.041 137.56 134.249 138.32 134.249 139.152C134.249 140.448 133.801 141.608 132.905 142.632C132.009 143.64 130.953 144.144 129.737 144.144C128.809 144.144 128.081 143.88 127.553 143.352C127.041 142.808 126.785 142.064 126.785 141.12C126.785 139.6 127.377 138.24 128.561 137.04C129.745 135.824 131.073 135.216 132.545 135.216C132.817 135.216 133.009 135.224 133.121 135.24L133.193 136.032C131.913 136.032 130.849 136.4 130.001 137.136C129.153 137.872 128.729 138.816 128.729 139.968C128.729 140.656 128.897 141.216 129.233 141.648C129.569 142.064 130.057 142.272 130.697 142.272C131.353 142.272 131.873 141.984 132.257 141.408C132.641 140.832 132.833 140.16 132.833 139.392C132.833 138.608 132.681 137.896 132.377 137.256L133.625 136.872ZM145.543 143.136L145.567 143.712C145.407 143.808 144.679 144.096 143.383 144.576C142.871 147.632 142.119 149.84 141.127 151.2C140.135 152.56 138.919 153.24 137.479 153.24C136.807 153.24 136.271 153.024 135.871 152.592C135.471 152.16 135.271 151.6 135.271 150.912C135.271 149.536 135.903 148.248 137.167 147.048C138.431 145.864 140.119 144.928 142.231 144.24C142.471 143.168 142.903 141.656 143.527 139.704C142.455 141.336 141.479 142.44 140.599 143.016C139.735 143.592 138.951 143.88 138.247 143.88C137.543 143.88 137.007 143.688 136.639 143.304C136.287 142.92 136.111 142.408 136.111 141.768C136.111 140.712 136.551 139.64 137.431 138.552C138.311 137.448 139.415 136.552 140.743 135.864C142.087 135.16 143.383 134.808 144.631 134.808L144.823 135.648C143.047 135.84 141.519 136.464 140.239 137.52C138.975 138.576 138.343 139.592 138.343 140.568C138.343 140.984 138.471 141.328 138.727 141.6C138.983 141.872 139.295 142.008 139.663 142.008C140.207 142.008 141.031 141.432 142.135 140.28C143.239 139.128 144.015 138.144 144.463 137.328L145.351 137.832C144.471 140.184 143.863 142.168 143.527 143.784L145.543 143.136ZM142.087 144.96C140.695 145.6 139.543 146.368 138.631 147.264C137.719 148.16 137.263 148.976 137.263 149.712C137.263 150.096 137.375 150.408 137.599 150.648C137.823 150.888 138.103 151.008 138.439 151.008C139.111 151.008 139.775 150.536 140.431 149.592C141.087 148.648 141.639 147.104 142.087 144.96ZM156.032 142.488L156.104 143.112C156.04 143.16 155.296 143.448 153.872 143.976C153.68 145.032 153.432 146.072 153.128 147.096C152.84 148.136 152.544 148.92 152.24 149.448C151.952 149.992 151.608 150.528 151.208 151.056C150.408 152.112 149.328 152.64 147.968 152.64C147.296 152.64 146.76 152.432 146.36 152.016C145.96 151.6 145.76 151.032 145.76 150.312C145.76 147.544 148.08 145.32 152.72 143.64L154.016 139.08C152.64 141.144 151.4 142.416 150.296 142.896C149.752 143.152 149.176 143.28 148.568 143.28C147.976 143.28 147.496 143.088 147.128 142.704C146.776 142.32 146.6 141.76 146.6 141.024C146.6 140.288 146.848 139.264 147.344 137.952C147.856 136.624 148.424 135.512 149.048 134.616L150.224 135.12C150.176 135.168 149.952 135.592 149.552 136.392C148.848 137.848 148.496 138.928 148.496 139.632C148.496 140.336 148.632 140.808 148.904 141.048C149.176 141.288 149.576 141.408 150.104 141.408C150.632 141.408 151.224 141.096 151.88 140.472C152.552 139.832 153.584 138.576 154.976 136.704L155.84 137.208C155.712 137.736 155.424 138.696 154.976 140.088C154.544 141.464 154.248 142.52 154.088 143.256L156.032 142.488ZM152.576 144.36C151.568 144.824 150.68 145.352 149.912 145.944C148.472 147.032 147.752 148.088 147.752 149.112C147.752 149.496 147.864 149.808 148.088 150.048C148.312 150.288 148.592 150.408 148.928 150.408C150.528 150.408 151.744 148.392 152.576 144.36ZM166.104 141.336L166.704 141.864C165.776 143.384 164.792 144.144 163.752 144.144C163.16 144.144 162.552 143.76 161.928 142.992C161.32 142.224 160.952 141.48 160.824 140.76C160.728 140.936 160.456 141.4 160.008 142.152C159.56 142.904 159.24 143.52 159.048 144L157.608 143.496C157.944 141.528 158.352 139.672 158.832 137.928C159.328 136.184 159.792 134.96 160.224 134.256L161.208 134.568C160.92 135.304 160.44 137.264 159.768 140.448C160.648 138.64 161.536 137.32 162.432 136.488C163.328 135.64 164.312 135.08 165.384 134.808V136.392C164.232 136.44 163.12 137.216 162.048 138.72C162.112 139.76 162.416 140.624 162.96 141.312C163.52 142 164.048 142.344 164.544 142.344C164.784 142.344 165.304 142.008 166.104 141.336ZM184.611 140.88L185.115 141.36C184.203 142.992 183.155 143.808 181.971 143.808C181.491 143.808 181.115 143.68 180.843 143.424C180.587 143.152 180.459 142.8 180.459 142.368C180.459 141.92 180.723 141.16 181.251 140.088C181.779 139.016 182.059 138.2 182.091 137.64C182.107 137.384 182.027 137.176 181.851 137.016C181.691 136.856 181.467 136.776 181.179 136.776C180.891 136.776 180.595 136.848 180.291 136.992C180.003 137.12 179.715 137.336 179.427 137.64C179.155 137.944 178.899 138.24 178.659 138.528C178.435 138.816 178.179 139.224 177.891 139.752C177.619 140.28 177.387 140.72 177.195 141.072C176.859 141.728 176.379 142.712 175.755 144.024L174.315 143.52C174.315 143.472 174.579 142.568 175.107 140.808C175.635 139.048 175.899 138 175.899 137.664C175.899 137.328 175.819 137.088 175.659 136.944C175.499 136.784 175.299 136.704 175.059 136.704C174.339 136.704 173.339 137.6 172.059 139.392C170.795 141.184 169.987 142.712 169.635 143.976L168.267 143.52C168.347 142.672 168.723 141.152 169.395 138.96C170.067 136.752 170.635 135.248 171.099 134.448L172.179 134.832C171.683 135.936 171.339 136.872 171.147 137.64C170.955 138.392 170.787 139.2 170.643 140.064C172.019 138.096 173.171 136.72 174.099 135.936C175.027 135.136 175.867 134.736 176.619 134.736C177.435 134.736 177.843 135.144 177.843 135.96C177.843 136.28 177.699 136.912 177.411 137.856C177.139 138.8 176.923 139.544 176.763 140.088C178.971 136.536 180.947 134.76 182.691 134.76C183.123 134.76 183.467 134.896 183.723 135.168C183.979 135.424 184.107 135.816 184.107 136.344C184.107 136.856 183.803 137.712 183.195 138.912C182.603 140.112 182.307 140.872 182.307 141.192C182.307 141.496 182.371 141.72 182.499 141.864C182.627 142.008 182.787 142.08 182.979 142.08C183.395 142.08 183.939 141.68 184.611 140.88ZM191.239 138.408C192.119 138.376 192.559 138.736 192.559 139.488C192.559 140.48 192.023 141.464 190.951 142.44C189.895 143.4 188.831 143.88 187.759 143.88C186.751 143.88 186.247 143.2 186.247 141.84C186.247 140.768 186.511 139.44 187.039 137.856C187.583 136.256 188.031 135.128 188.383 134.472L189.463 134.832C189.047 136.048 188.623 137.536 188.191 139.296L188.503 139.152C189.575 138.656 190.487 138.408 191.239 138.408ZM190.855 140.88C190.951 140.656 190.999 140.448 190.999 140.256C190.951 139.824 190.575 139.608 189.871 139.608C189.535 139.608 188.911 139.752 187.999 140.04C187.871 140.52 187.807 140.952 187.807 141.336C187.807 141.704 187.895 142 188.071 142.224C188.263 142.448 188.511 142.56 188.815 142.56C189.135 142.56 189.511 142.4 189.943 142.08C190.375 141.744 190.679 141.344 190.855 140.88ZM194.863 140.592L194.143 143.76L192.775 143.544C193.095 141.608 193.495 139.808 193.975 138.144C194.471 136.48 194.943 135.288 195.391 134.568L196.567 134.712C195.991 136.2 195.423 138.16 194.863 140.592ZM234.274 130.56C234.274 129.696 234.594 129.032 235.234 128.568C235.874 128.104 236.778 127.872 237.946 127.872C239.13 127.856 239.93 127.944 240.346 128.136L240.13 129.144C239.57 129.064 238.962 129.024 238.306 129.024C236.898 129.024 236.194 129.608 236.194 130.776C236.194 131.096 236.618 132.04 237.466 133.608C238.33 135.176 238.826 136.12 238.954 136.44C239.098 136.76 239.218 137.184 239.314 137.712C239.426 138.224 239.482 138.608 239.482 138.864C239.482 140.272 239.042 141.488 238.162 142.512C237.282 143.52 236.218 144.024 234.97 144.024C234.042 144.024 233.314 143.76 232.786 143.232C232.274 142.688 232.018 141.912 232.018 140.904C232.018 139.88 232.346 138.872 233.002 137.88C233.658 136.888 234.49 136.144 235.498 135.648L235.81 136.584C234.578 137.352 233.962 138.44 233.962 139.848C233.962 140.536 234.13 141.096 234.466 141.528C234.802 141.944 235.266 142.152 235.858 142.152C236.45 142.152 236.962 141.888 237.394 141.36C237.842 140.832 238.066 140.168 238.066 139.368C238.066 138.568 237.954 137.928 237.73 137.448C237.522 136.968 237.122 136.224 236.53 135.216C235.026 132.576 234.274 131.024 234.274 130.56ZM251.268 141.576L251.82 141.984C251.596 142.464 251.18 142.92 250.572 143.352C249.98 143.784 249.436 144 248.94 144C247.996 144 247.524 143.504 247.524 142.512C247.524 142.048 247.644 141.496 247.884 140.856L246.996 141.768C246.132 142.648 245.38 143.24 244.74 143.544C244.116 143.848 243.5 144 242.892 144C242.284 144 241.82 143.832 241.5 143.496C241.196 143.144 241.044 142.664 241.044 142.056C241.044 140.936 241.476 139.832 242.34 138.744C243.204 137.64 244.308 136.744 245.652 136.056C246.996 135.368 248.34 135.016 249.684 135L249.732 135.792L248.724 136.008C247.268 136.328 245.98 136.968 244.86 137.928C243.756 138.888 243.204 139.848 243.204 140.808C243.204 141.752 243.588 142.224 244.356 142.224C245.076 142.224 245.964 141.72 247.02 140.712C248.076 139.704 248.956 138.52 249.66 137.16L250.668 137.76C249.676 139.76 249.18 141.032 249.18 141.576C249.18 141.8 249.252 141.992 249.396 142.152C249.556 142.296 249.708 142.368 249.852 142.368C250.012 142.368 250.116 142.36 250.164 142.344C250.212 142.328 250.26 142.312 250.308 142.296C250.356 142.264 250.412 142.224 250.476 142.176C250.556 142.128 250.62 142.08 250.668 142.032C250.732 141.984 250.828 141.912 250.956 141.816C251.084 141.72 251.188 141.64 251.268 141.576ZM261.354 141.336L261.954 141.864C261.026 143.384 260.042 144.144 259.002 144.144C258.41 144.144 257.802 143.76 257.178 142.992C256.57 142.224 256.202 141.48 256.074 140.76C255.978 140.936 255.706 141.4 255.258 142.152C254.81 142.904 254.49 143.52 254.298 144L252.858 143.496C253.194 141.528 253.602 139.672 254.082 137.928C254.578 136.184 255.042 134.96 255.474 134.256L256.458 134.568C256.17 135.304 255.69 137.264 255.018 140.448C255.898 138.64 256.786 137.32 257.682 136.488C258.578 135.64 259.562 135.08 260.634 134.808V136.392C259.482 136.44 258.37 137.216 257.298 138.72C257.362 139.76 257.666 140.624 258.21 141.312C258.77 142 259.298 142.344 259.794 142.344C260.034 142.344 260.554 142.008 261.354 141.336ZM273.909 141.576L274.461 141.984C274.237 142.464 273.821 142.92 273.213 143.352C272.621 143.784 272.077 144 271.581 144C270.637 144 270.165 143.504 270.165 142.512C270.165 142.048 270.285 141.496 270.525 140.856L269.637 141.768C268.773 142.648 268.021 143.24 267.381 143.544C266.757 143.848 266.141 144 265.533 144C264.925 144 264.461 143.832 264.141 143.496C263.837 143.144 263.685 142.664 263.685 142.056C263.685 140.936 264.117 139.832 264.981 138.744C265.845 137.64 266.949 136.744 268.293 136.056C269.637 135.368 270.981 135.016 272.325 135L272.373 135.792L271.365 136.008C269.909 136.328 268.621 136.968 267.501 137.928C266.397 138.888 265.845 139.848 265.845 140.808C265.845 141.752 266.229 142.224 266.997 142.224C267.717 142.224 268.605 141.72 269.661 140.712C270.717 139.704 271.597 138.52 272.301 137.16L273.309 137.76C272.317 139.76 271.821 141.032 271.821 141.576C271.821 141.8 271.893 141.992 272.037 142.152C272.197 142.296 272.349 142.368 272.493 142.368C272.653 142.368 272.757 142.36 272.805 142.344C272.853 142.328 272.901 142.312 272.949 142.296C272.997 142.264 273.053 142.224 273.117 142.176C273.197 142.128 273.261 142.08 273.309 142.032C273.373 141.984 273.469 141.912 273.597 141.816C273.725 141.72 273.829 141.64 273.909 141.576ZM276.435 141.888L277.635 141.288C277.635 141.576 277.739 141.824 277.947 142.032C278.171 142.24 278.427 142.344 278.715 142.344C280.075 142.344 281.627 140.552 283.371 136.968C283.467 136.76 283.579 136.528 283.707 136.272C283.835 136 283.931 135.8 283.995 135.672C284.059 135.528 284.131 135.368 284.211 135.192C284.307 135.016 284.379 134.888 284.427 134.808C284.491 134.712 284.555 134.624 284.619 134.544C284.763 134.4 284.923 134.328 285.099 134.328C285.291 134.328 285.459 134.416 285.603 134.592C285.747 134.768 285.819 134.976 285.819 135.216C285.819 135.44 285.515 136.432 284.907 138.192C284.315 139.936 284.019 140.992 284.019 141.36C284.019 141.728 284.091 142 284.235 142.176C284.395 142.352 284.547 142.44 284.691 142.44C284.851 142.44 284.971 142.432 285.051 142.416C285.131 142.4 285.211 142.368 285.291 142.32C285.371 142.272 285.435 142.232 285.483 142.2C285.547 142.168 285.619 142.112 285.699 142.032L285.867 141.84C285.915 141.808 285.979 141.744 286.059 141.648C286.155 141.536 286.219 141.464 286.251 141.432L286.755 141.84C286.483 142.512 286.051 143.08 285.459 143.544C284.883 144.008 284.355 144.24 283.875 144.24C283.411 144.24 283.043 144.08 282.771 143.76C282.499 143.424 282.363 142.992 282.363 142.464C282.363 141.936 282.451 141.256 282.627 140.424C281.891 141.576 281.083 142.456 280.203 143.064C279.323 143.656 278.611 143.952 278.067 143.952C277.523 143.952 277.115 143.752 276.843 143.352C276.571 142.952 276.435 142.464 276.435 141.888ZM295.903 141.168L296.455 141.6C295.959 142.288 295.279 142.864 294.415 143.328C293.551 143.776 292.711 144 291.895 144C291.079 144 290.423 143.76 289.927 143.28C289.431 142.8 289.183 142.168 289.183 141.384C289.183 139.912 289.959 138.464 291.511 137.04C293.079 135.616 294.663 134.904 296.263 134.904C297.319 134.904 297.847 135.32 297.847 136.152C297.847 137.016 297.287 137.888 296.167 138.768C295.063 139.648 293.503 140.448 291.487 141.168C291.631 141.536 291.855 141.824 292.159 142.032C292.463 142.24 292.775 142.344 293.095 142.344C293.783 142.344 294.719 141.952 295.903 141.168ZM291.367 140.448C292.663 140 293.775 139.44 294.703 138.768C295.631 138.096 296.095 137.48 296.095 136.92C296.095 136.712 296.015 136.528 295.855 136.368C295.695 136.208 295.511 136.128 295.303 136.128C294.551 136.128 293.735 136.6 292.855 137.544C291.991 138.472 291.495 139.44 291.367 140.448ZM298.164 142.2L299.052 141.72C299.1 141.784 299.164 141.928 299.244 142.152C299.404 142.664 299.612 142.92 299.868 142.92C300.428 142.888 300.956 142.632 301.452 142.152C301.964 141.672 302.268 141.168 302.364 140.64C301.852 140.736 301.436 140.784 301.116 140.784C300.796 140.784 300.5 140.768 300.228 140.736C299.972 140.688 299.708 140.608 299.436 140.496C298.86 140.272 298.572 139.712 298.572 138.816C298.572 137.904 299.044 136.96 299.988 135.984C300.932 135.008 302.036 134.52 303.3 134.52C303.972 134.52 304.484 134.76 304.836 135.24C305.188 135.72 305.364 136.56 305.364 137.76C305.364 138.176 305.308 138.808 305.196 139.656C305.916 137.944 306.292 136.312 306.324 134.76L307.812 135.024C307.812 136.144 307.46 137.84 306.756 140.112C306.068 142.384 305.524 143.832 305.124 144.456L303.612 144.168C304.092 142.92 304.332 141.528 304.332 139.992C304.332 138.456 304.22 137.448 303.996 136.968C303.756 136.44 303.356 136.176 302.796 136.176C302.252 136.176 301.724 136.36 301.212 136.728C300.716 137.096 300.46 137.528 300.444 138.024C300.428 138.52 300.604 138.904 300.972 139.176C301.356 139.432 301.772 139.6 302.22 139.68C303.436 139.92 304.044 140.224 304.044 140.592C304.044 140.896 303.748 141.376 303.156 142.032C302.564 142.688 301.876 143.296 301.092 143.856C300.324 144.4 299.732 144.672 299.316 144.672C298.916 144.672 298.612 144.48 298.404 144.096C298.212 143.728 298.116 143.384 298.116 143.064C298.116 142.744 298.132 142.456 298.164 142.2Z" fill="black"/>
<path d="M218.519 141.192L219.023 141.6C218.751 142.272 218.319 142.84 217.727 143.304C217.151 143.768 216.623 144 216.143 144C215.679 144 215.311 143.84 215.039 143.52C214.767 143.184 214.631 142.752 214.631 142.224C214.631 141.696 214.719 141.016 214.895 140.184C214.143 141.368 213.335 142.296 212.471 142.968C211.607 143.64 210.879 143.976 210.287 143.976C209.391 143.976 208.943 143.44 208.943 142.368C208.943 141.296 209.311 139.856 210.047 138.048C210.799 136.224 211.335 135.184 211.655 134.928L212.807 135.432C212.151 136.488 211.655 137.528 211.319 138.552C210.983 139.576 210.815 140.264 210.815 140.616C210.815 140.952 210.919 141.224 211.127 141.432C211.351 141.64 211.607 141.744 211.895 141.744C212.535 141.744 213.327 141.16 214.271 139.992C215.231 138.808 216.207 137.048 217.199 134.712L218.423 135.264C218.391 135.392 218.023 136.32 217.319 138.048C216.631 139.776 216.287 140.816 216.287 141.168C216.287 141.504 216.359 141.76 216.503 141.936C216.663 142.112 216.815 142.2 216.959 142.2C217.119 142.2 217.239 142.192 217.319 142.176C217.399 142.16 217.479 142.128 217.559 142.08C217.639 142.032 217.703 141.992 217.751 141.96C217.815 141.928 217.887 141.872 217.967 141.792L218.135 141.6C218.183 141.568 218.247 141.504 218.327 141.408C218.423 141.296 218.487 141.224 218.519 141.192Z" fill="#413F3F"/>
<path d="M85 124.15L85.55 129.32C83.4967 129.687 81.7 129.87 80.16 129.87C76.7133 129.87 73.4133 127.56 70.26 122.94C67.1067 118.393 64.6133 113.04 62.78 106.88C61.02 100.72 59.92 94.78 59.48 89.06C55.8133 98.5933 52.33 105.523 49.03 109.85C45.8033 114.103 42.4667 116.23 39.02 116.23C37.26 116.23 35.8667 115.533 34.84 114.14C33.8133 112.673 33.3 110.767 33.3 108.42C33.3 102.993 35.7933 96.1 40.78 87.74C45.84 79.38 51.7433 72.5233 58.49 67.17C58.6367 66.73 59.26 64.0533 60.36 59.14C61.5333 54.2267 62.23 51.5133 62.45 51L68.83 50.45C68.83 51.6967 68.5 54.3 67.84 58.26C77.74 50.7067 85.88 46.93 92.26 46.93C95.2667 46.93 97.65 47.7733 99.41 49.46C101.17 51.0733 102.05 53.2733 102.05 56.06C102.05 63.0267 98.53 70.0667 91.49 77.18C84.45 84.22 76.9333 88.3633 68.94 89.61C69.5267 100.243 71.36 108.567 74.44 114.58C77.5933 120.593 81.1133 123.783 85 124.15ZM52.99 87.41C54.97 82.13 56.3267 77.9133 57.06 74.76C53.0267 78.5 49.2867 83.4867 45.84 89.72C42.4667 95.9533 40.78 100.573 40.78 103.58C40.78 105.12 41.4033 105.89 42.65 105.89C44.85 105.89 48.2967 99.73 52.99 87.41ZM60.47 85.87C68.2433 85.87 75.21 83.1567 81.37 77.73C87.53 72.3033 90.61 66.9133 90.61 61.56C90.61 59.58 90.0967 58.04 89.07 56.94C88.1167 55.84 86.5767 55.29 84.45 55.29C82.3233 55.29 79.2433 56.5 75.21 58.92C71.1767 61.2667 68.28 63.21 66.52 64.75C64.2467 73.77 62.23 80.81 60.47 85.87ZM123.364 70.36C119.258 70.36 117.204 68.71 117.204 65.41C117.204 63.5767 117.718 62.0367 118.744 60.79C119.771 59.5433 121.091 58.92 122.704 58.92C124.318 58.92 125.638 59.3967 126.664 60.35C127.691 61.3033 128.204 62.55 128.204 64.09C128.204 65.63 127.764 67.06 126.884 68.38C126.004 69.7 124.831 70.36 123.364 70.36ZM121.934 102.81L124.134 104.68C122.374 108.053 120.028 110.95 117.094 113.37C114.234 115.717 111.631 116.89 109.284 116.89C105.178 116.89 103.124 114.03 103.124 108.31C103.124 101.197 106.058 91.92 111.924 80.48C113.244 77.9867 114.014 76.52 114.234 76.08L118.964 78.94C117.424 81.7267 115.518 86.1633 113.244 92.25C111.044 98.3367 109.944 102.26 109.944 104.02C109.944 105.707 110.311 106.917 111.044 107.65C111.778 108.383 112.658 108.75 113.684 108.75C115.664 108.75 118.414 106.77 121.934 102.81ZM152.798 70.36C148.691 70.36 146.638 68.71 146.638 65.41C146.638 63.5767 147.151 62.0367 148.178 60.79C149.204 59.5433 150.524 58.92 152.138 58.92C153.751 58.92 155.071 59.3967 156.098 60.35C157.124 61.3033 157.638 62.55 157.638 64.09C157.638 65.63 157.198 67.06 156.318 68.38C155.438 69.7 154.264 70.36 152.798 70.36ZM151.368 102.81L153.568 104.68C151.808 108.053 149.461 110.95 146.528 113.37C143.668 115.717 141.064 116.89 138.718 116.89C134.611 116.89 132.558 114.03 132.558 108.31C132.558 101.197 135.491 91.92 141.358 80.48C142.678 77.9867 143.448 76.52 143.668 76.08L148.398 78.94C146.858 81.7267 144.951 86.1633 142.678 92.25C140.478 98.3367 139.378 102.26 139.378 104.02C139.378 105.707 139.744 106.917 140.478 107.65C141.211 108.383 142.091 108.75 143.118 108.75C145.098 108.75 147.848 106.77 151.368 102.81ZM195.761 73.99L194.771 78.28C193.525 78.1333 191.911 78.06 189.931 78.06C182.598 78.06 178.931 80.48 178.931 85.32C178.931 86.3467 180.398 89.3533 183.331 94.34C186.338 99.3267 187.841 102.663 187.841 104.35C187.841 108.31 186.485 111.427 183.771 113.7C181.131 115.9 177.575 117 173.101 117C166.941 117 161.991 113.59 158.251 106.77L162.431 103.8C163.458 104.607 164.558 105.597 165.731 106.77C166.905 107.87 167.785 108.64 168.371 109.08C169.765 110.327 171.305 110.95 172.991 110.95C174.678 110.95 176.145 110.363 177.391 109.19C178.638 107.943 179.261 106.44 179.261 104.68C179.261 102.847 177.648 99.4733 174.421 94.56C171.268 89.6467 169.691 86.2 169.691 84.22C169.691 80.6267 171.195 77.8767 174.201 75.97C177.281 74.0633 181.278 73.11 186.191 73.11C191.178 73.11 194.368 73.4033 195.761 73.99ZM240.647 105.78L243.397 108.2C239.144 115.167 234.634 118.65 229.867 118.65C226.934 118.65 223.927 116.487 220.847 112.16C217.767 107.833 216.227 104.277 216.227 101.49C216.227 99.73 218.867 97.97 224.147 96.21C226.127 95.55 227.924 94.56 229.537 93.24C231.224 91.8467 232.067 90.4167 232.067 88.95C232.067 87.4833 231.664 86.3833 230.857 85.65C230.051 84.8433 229.024 84.44 227.777 84.44C219.711 85.1733 211.277 96.0267 202.477 117L195.767 114.69C195.767 111.537 200.021 98.7767 208.527 76.41C217.107 54.0433 223.194 40.5133 226.787 35.82L232.177 37.8C222.277 55.0333 213.991 75.0533 207.317 97.86C213.037 89.28 217.951 83.56 222.057 80.7C226.164 77.84 230.087 76.41 233.827 76.41C236.101 76.41 237.897 77.1067 239.217 78.5C240.611 79.8933 241.307 81.69 241.307 83.89C241.307 86.0167 240.757 87.96 239.657 89.72C238.631 91.48 237.127 93.02 235.147 94.34C232.287 96.2467 228.767 98.1167 224.587 99.95C225.247 103.397 226.384 106 227.997 107.76C229.611 109.52 231.444 110.4 233.497 110.4C234.597 110.4 236.981 108.86 240.647 105.78ZM293.241 105.89L295.771 107.76C294.745 109.96 292.838 112.05 290.051 114.03C287.338 116.01 284.845 117 282.571 117C278.245 117 276.081 114.727 276.081 110.18C276.081 108.053 276.631 105.523 277.731 102.59L273.661 106.77C269.701 110.803 266.255 113.517 263.321 114.91C260.461 116.303 257.638 117 254.851 117C252.065 117 249.938 116.23 248.471 114.69C247.078 113.077 246.381 110.877 246.381 108.09C246.381 102.957 248.361 97.8967 252.321 92.91C256.281 87.85 261.341 83.7433 267.501 80.59C273.661 77.4367 279.821 75.8233 285.981 75.75L286.201 79.38L281.581 80.37C274.908 81.8367 269.005 84.77 263.871 89.17C258.811 93.57 256.281 97.97 256.281 102.37C256.281 106.697 258.041 108.86 261.561 108.86C264.861 108.86 268.931 106.55 273.771 101.93C278.611 97.31 282.645 91.8833 285.871 85.65L290.491 88.4C285.945 97.5667 283.671 103.397 283.671 105.89C283.671 106.917 284.001 107.797 284.661 108.53C285.395 109.19 286.091 109.52 286.751 109.52C287.485 109.52 287.961 109.483 288.181 109.41C288.401 109.337 288.621 109.263 288.841 109.19C289.061 109.043 289.318 108.86 289.611 108.64C289.978 108.42 290.271 108.2 290.491 107.98C290.785 107.76 291.225 107.43 291.811 106.99C292.398 106.55 292.875 106.183 293.241 105.89Z" fill="black"/>
<path d="M65.7207 31.5537C65.7207 32.2158 65.5977 32.793 65.3516 33.2852C65.1113 33.7715 64.7803 34.1787 64.3584 34.5068C63.9424 34.835 63.4502 35.0811 62.8818 35.2451C62.3193 35.4033 61.7158 35.4824 61.0713 35.4824H61.0186C60.9014 35.4824 60.7725 35.4795 60.6318 35.4736C60.4971 35.4678 60.3652 35.4619 60.2363 35.4561C60.1133 35.4443 60.0049 35.4355 59.9111 35.4297C59.8232 35.4238 59.7676 35.418 59.7441 35.4121V38.7607C59.7441 38.8486 59.7734 38.9336 59.832 39.0156C59.8965 39.0977 59.9932 39.1445 60.1221 39.1562L61.3086 39.2266V40H56.5801V39.2266L57.5293 39.1562C57.6582 39.1445 57.7549 39.0977 57.8193 39.0156C57.8896 38.9336 57.9248 38.8486 57.9248 38.7607V29.1631C57.9248 29.0752 57.8896 28.9902 57.8193 28.9082C57.7549 28.8262 57.6582 28.7793 57.5293 28.7676L56.4482 28.6973V27.9238H60.7549C61.6045 27.9238 62.3398 27.9883 62.9609 28.1172C63.5879 28.2461 64.1035 28.4541 64.5078 28.7412C64.918 29.0283 65.2227 29.4033 65.4219 29.8662C65.6211 30.3232 65.7207 30.8857 65.7207 31.5537ZM63.8486 31.5801C63.8486 31.1406 63.79 30.751 63.6729 30.4111C63.5557 30.0654 63.3682 29.7754 63.1104 29.541C62.8584 29.3008 62.5303 29.1191 62.126 28.9961C61.7217 28.8672 61.2324 28.8027 60.6582 28.8027C60.5762 28.8027 60.4824 28.8057 60.377 28.8115C60.2715 28.8115 60.1719 28.8115 60.0781 28.8115C59.9727 28.8174 59.8613 28.8203 59.7441 28.8203V34.4893C59.7559 34.4893 59.7998 34.4951 59.876 34.5068C59.9521 34.5127 60.04 34.5244 60.1396 34.542C60.2393 34.5537 60.3447 34.5654 60.4561 34.5771C60.5674 34.583 60.667 34.5859 60.7549 34.5859H60.8076C61.2705 34.5859 61.6895 34.5273 62.0645 34.4102C62.4395 34.2871 62.7588 34.1025 63.0225 33.8564C63.2861 33.6104 63.4883 33.2998 63.6289 32.9248C63.7754 32.5439 63.8486 32.0957 63.8486 31.5801ZM67.0215 40V39.2266L68.0938 39.1562C68.2227 39.1445 68.3164 39.0977 68.375 39.0156C68.4395 38.9336 68.4717 38.8486 68.4717 38.7607V29.1631C68.4717 29.0752 68.4395 28.9932 68.375 28.917C68.3164 28.8408 68.2227 28.7969 68.0938 28.7852L67.0215 28.7148V27.9238H71.7676V28.7148L70.6689 28.7852C70.5459 28.7969 70.4521 28.8408 70.3877 28.917C70.3232 28.9932 70.291 29.0752 70.291 29.1631V38.7607C70.291 38.8486 70.3232 38.9336 70.3877 39.0156C70.4521 39.0977 70.5459 39.1445 70.6689 39.1562L71.7676 39.2266V40H67.0215ZM73.0684 40V39.209L79.7656 28.8203H75.0811C74.999 28.8203 74.9316 28.8496 74.8789 28.9082C74.832 28.9668 74.7969 29.04 74.7734 29.1279L74.5098 30.7979H73.4463V27.9238H81.9189V28.75L75.2129 39.0859H80.3369C80.4189 39.0859 80.4863 39.0537 80.5391 38.9893C80.5977 38.9248 80.6328 38.8486 80.6445 38.7607L80.9521 36.6689H82.0156V40H73.0684ZM83.4219 40V39.209L90.1191 28.8203H85.4346C85.3525 28.8203 85.2852 28.8496 85.2324 28.9082C85.1855 28.9668 85.1504 29.04 85.127 29.1279L84.8633 30.7979H83.7998V27.9238H92.2725V28.75L85.5664 39.0859H90.6904C90.7725 39.0859 90.8398 39.0537 90.8926 38.9893C90.9512 38.9248 90.9863 38.8486 90.998 38.7607L91.3057 36.6689H92.3691V40H83.4219ZM100.833 40V39.2266L101.87 39.1387C101.917 39.1387 101.961 39.1094 102.002 39.0508C102.043 38.9863 102.063 38.9277 102.063 38.875C102.063 38.8516 102.061 38.8369 102.055 38.8311L100.815 35.5352H96.6582L95.4629 38.7783C95.457 38.79 95.4541 38.8076 95.4541 38.8311C95.4541 38.9014 95.4834 38.9717 95.542 39.042C95.6064 39.1064 95.665 39.1387 95.7178 39.1387L96.7812 39.2266V40H93.1602V39.2266L94.2061 39.0068L98.3984 27.6338H99.752L103.927 38.7432C103.968 38.8662 104.006 38.9482 104.041 38.9893C104.082 39.0303 104.17 39.0625 104.305 39.0859L105.113 39.2266V40H100.833ZM98.7236 29.9541L96.9746 34.6738H100.49L98.7236 29.9541Z" fill="black"/>
<defs>
<filter id="filter0_d_137_41" x="127" y="1" width="202" height="197" filterUnits="userSpaceOnUse" color-interpolation-filters="sRGB">
<feFlood flood-opacity="0" result="BackgroundImageFix"/>
<feColorMatrix in="SourceAlpha" type="matrix" values="0 0 0 0 0 0 0 0 0 0 0 0 0 0 0 0 0 0 127 0" result="hardAlpha"/>
<feOffset/>
<feGaussianBlur stdDeviation="2"/>
<feComposite in2="hardAlpha" operator="out"/>
<feColorMatrix type="matrix" values="0 0 0 0 0.247059 0 0 0 0 0.780392 0 0 0 0 0.0117647 0 0 0 1 0"/>
<feBlend mode="normal" in2="BackgroundImageFix" result="effect1_dropShadow_137_41"/>
<feBlend mode="normal" in="SourceGraphic" in2="effect1_dropShadow_137_41" result="shape"/>
</filter>
<filter id="filter1_d_137_41" x="0" y="0" width="202" height="197" filterUnits="userSpaceOnUse" color-interpolation-filters="sRGB">
<feFlood flood-opacity="0" result="BackgroundImageFix"/>
<feColorMatrix in="SourceAlpha" type="matrix" values="0 0 0 0 0 0 0 0 0 0 0 0 0 0 0 0 0 0 127 0" result="hardAlpha"/>
<feOffset/>
<feGaussianBlur stdDeviation="2"/>
<feComposite in2="hardAlpha" operator="out"/>
<feColorMatrix type="matrix" values="0 0 0 0 0.960784 0 0 0 0 0.733333 0 0 0 0 0.00784314 0 0 0 1 0"/>
<feBlend mode="normal" in2="BackgroundImageFix" result="effect1_dropShadow_137_41"/>
<feBlend mode="normal" in="SourceGraphic" in2="effect1_dropShadow_137_41" result="shape"/>
</filter>
</defs>
</svg>
