<svg width="329" height="200" viewBox="0 0 329 200" fill="none" xmlns="http://www.w3.org/2000/svg">
<g filter="url(#filter0_d_135_42)">
<path d="M325 98.5C325 150.691 281.572 193 228 193C174.428 193 131 150.691 131 98.5C131 46.3091 174.428 4 228 4C281.572 4 325 46.3091 325 98.5Z" fill="#3FC703"/>
</g>
<g filter="url(#filter1_d_135_42)">
<ellipse cx="101" cy="97.5" rx="97" ry="94.5" fill="#F5BB02"/>
</g>
<path d="M110.16 128.24L111.144 128.216C111.416 128.216 111.96 128.176 112.776 128.096C113.608 128 114.152 127.912 114.408 127.832C114.664 127.736 114.816 127.688 114.864 127.688C115.088 127.688 115.2 127.832 115.2 128.12C115.2 128.536 114.832 128.912 114.096 129.248C113.376 129.584 112.544 129.752 111.6 129.752C111.104 130.072 110.576 130.736 110.016 131.744C109.472 132.736 108.944 134.144 108.432 135.968C107.92 137.776 107.664 139.056 107.664 139.808C107.664 140.56 107.84 141.08 108.192 141.368C108.56 141.656 109.12 141.872 109.872 142.016L109.368 142.904C108.952 142.936 108.64 142.952 108.432 142.952C107.664 142.952 107.064 142.696 106.632 142.184C106.216 141.656 106.008 141.04 106.008 140.336C106.008 139.632 106.072 139.048 106.2 138.584C107.176 134.696 107.992 132.28 108.648 131.336C108.984 130.84 109.472 130.304 110.112 129.728L107.856 129.776C106.8 130.8 105.872 132.592 105.072 135.152C104.288 137.696 103.344 139.64 102.24 140.984C101.152 142.312 99.856 142.976 98.352 142.976C97.76 142.976 97.2 142.784 96.672 142.4L97.224 141.488C97.416 141.584 97.632 141.672 97.872 141.752L98.208 141.8C98.288 141.816 98.408 141.824 98.568 141.824C99.368 141.824 100.08 141.44 100.704 140.672C101.344 139.904 102.008 138.456 102.696 136.328C103.4 134.184 103.944 132.768 104.328 132.08C104.728 131.376 105.416 130.6 106.392 129.752C106.392 129.752 105.248 129.728 102.96 129.68C99.456 129.68 97.704 130.448 97.704 131.984C97.704 132.384 97.848 132.712 98.136 132.968C98.44 133.208 98.888 133.328 99.48 133.328C100.072 133.328 100.848 133.056 101.808 132.512L102.168 133.136C101.672 133.664 101.112 134.08 100.488 134.384C99.864 134.688 99.24 134.84 98.616 134.84C97.992 134.84 97.456 134.632 97.008 134.216C96.56 133.8 96.336 133.28 96.336 132.656C96.336 131.392 97.016 130.288 98.376 129.344C99.752 128.4 101.608 127.928 103.944 127.928C103.992 127.928 104.368 127.952 105.072 128C107.456 128.16 109.152 128.24 110.16 128.24ZM118.009 138.584C119.225 136.76 120.281 135.52 121.177 134.864C122.073 134.192 122.857 133.856 123.529 133.856C124.201 133.856 124.721 134.064 125.089 134.48C125.457 134.88 125.641 135.392 125.641 136.016C125.641 137.744 125.017 139.344 123.769 140.816C122.537 142.272 121.145 143 119.593 143C118.905 143 118.361 142.88 117.961 142.64L118.537 141.608C119.385 141.72 119.905 141.776 120.097 141.776C120.961 141.776 121.769 141.272 122.521 140.264C123.273 139.256 123.649 138.224 123.649 137.168C123.649 136.768 123.529 136.44 123.289 136.184C123.065 135.912 122.769 135.776 122.401 135.776C121.521 135.776 120.521 136.552 119.401 138.104C118.297 139.656 117.257 141.576 116.281 143.864C115.321 146.168 114.481 148.616 113.761 151.208L112.321 150.704C112.353 150.608 112.657 149.776 113.233 148.208C113.793 146.656 114.345 145.112 114.889 143.576C116.393 139.352 117.145 137.04 117.145 136.64C117.145 135.616 116.937 134.688 116.521 133.856L117.721 133.256C118.217 133.944 118.465 134.672 118.465 135.44C118.465 136.192 118.313 137.24 118.009 138.584ZM133.625 135.872C134.041 136.56 134.249 137.32 134.249 138.152C134.249 139.448 133.801 140.608 132.905 141.632C132.009 142.64 130.953 143.144 129.737 143.144C128.809 143.144 128.081 142.88 127.553 142.352C127.041 141.808 126.785 141.064 126.785 140.12C126.785 138.6 127.377 137.24 128.561 136.04C129.745 134.824 131.073 134.216 132.545 134.216C132.817 134.216 133.009 134.224 133.121 134.24L133.193 135.032C131.913 135.032 130.849 135.4 130.001 136.136C129.153 136.872 128.729 137.816 128.729 138.968C128.729 139.656 128.897 140.216 129.233 140.648C129.569 141.064 130.057 141.272 130.697 141.272C131.353 141.272 131.873 140.984 132.257 140.408C132.641 139.832 132.833 139.16 132.833 138.392C132.833 137.608 132.681 136.896 132.377 136.256L133.625 135.872ZM145.543 142.136L145.567 142.712C145.407 142.808 144.679 143.096 143.383 143.576C142.871 146.632 142.119 148.84 141.127 150.2C140.135 151.56 138.919 152.24 137.479 152.24C136.807 152.24 136.271 152.024 135.871 151.592C135.471 151.16 135.271 150.6 135.271 149.912C135.271 148.536 135.903 147.248 137.167 146.048C138.431 144.864 140.119 143.928 142.231 143.24C142.471 142.168 142.903 140.656 143.527 138.704C142.455 140.336 141.479 141.44 140.599 142.016C139.735 142.592 138.951 142.88 138.247 142.88C137.543 142.88 137.007 142.688 136.639 142.304C136.287 141.92 136.111 141.408 136.111 140.768C136.111 139.712 136.551 138.64 137.431 137.552C138.311 136.448 139.415 135.552 140.743 134.864C142.087 134.16 143.383 133.808 144.631 133.808L144.823 134.648C143.047 134.84 141.519 135.464 140.239 136.52C138.975 137.576 138.343 138.592 138.343 139.568C138.343 139.984 138.471 140.328 138.727 140.6C138.983 140.872 139.295 141.008 139.663 141.008C140.207 141.008 141.031 140.432 142.135 139.28C143.239 138.128 144.015 137.144 144.463 136.328L145.351 136.832C144.471 139.184 143.863 141.168 143.527 142.784L145.543 142.136ZM142.087 143.96C140.695 144.6 139.543 145.368 138.631 146.264C137.719 147.16 137.263 147.976 137.263 148.712C137.263 149.096 137.375 149.408 137.599 149.648C137.823 149.888 138.103 150.008 138.439 150.008C139.111 150.008 139.775 149.536 140.431 148.592C141.087 147.648 141.639 146.104 142.087 143.96ZM156.032 141.488L156.104 142.112C156.04 142.16 155.296 142.448 153.872 142.976C153.68 144.032 153.432 145.072 153.128 146.096C152.84 147.136 152.544 147.92 152.24 148.448C151.952 148.992 151.608 149.528 151.208 150.056C150.408 151.112 149.328 151.64 147.968 151.64C147.296 151.64 146.76 151.432 146.36 151.016C145.96 150.6 145.76 150.032 145.76 149.312C145.76 146.544 148.08 144.32 152.72 142.64L154.016 138.08C152.64 140.144 151.4 141.416 150.296 141.896C149.752 142.152 149.176 142.28 148.568 142.28C147.976 142.28 147.496 142.088 147.128 141.704C146.776 141.32 146.6 140.76 146.6 140.024C146.6 139.288 146.848 138.264 147.344 136.952C147.856 135.624 148.424 134.512 149.048 133.616L150.224 134.12C150.176 134.168 149.952 134.592 149.552 135.392C148.848 136.848 148.496 137.928 148.496 138.632C148.496 139.336 148.632 139.808 148.904 140.048C149.176 140.288 149.576 140.408 150.104 140.408C150.632 140.408 151.224 140.096 151.88 139.472C152.552 138.832 153.584 137.576 154.976 135.704L155.84 136.208C155.712 136.736 155.424 137.696 154.976 139.088C154.544 140.464 154.248 141.52 154.088 142.256L156.032 141.488ZM152.576 143.36C151.568 143.824 150.68 144.352 149.912 144.944C148.472 146.032 147.752 147.088 147.752 148.112C147.752 148.496 147.864 148.808 148.088 149.048C148.312 149.288 148.592 149.408 148.928 149.408C150.528 149.408 151.744 147.392 152.576 143.36ZM166.104 140.336L166.704 140.864C165.776 142.384 164.792 143.144 163.752 143.144C163.16 143.144 162.552 142.76 161.928 141.992C161.32 141.224 160.952 140.48 160.824 139.76C160.728 139.936 160.456 140.4 160.008 141.152C159.56 141.904 159.24 142.52 159.048 143L157.608 142.496C157.944 140.528 158.352 138.672 158.832 136.928C159.328 135.184 159.792 133.96 160.224 133.256L161.208 133.568C160.92 134.304 160.44 136.264 159.768 139.448C160.648 137.64 161.536 136.32 162.432 135.488C163.328 134.64 164.312 134.08 165.384 133.808V135.392C164.232 135.44 163.12 136.216 162.048 137.72C162.112 138.76 162.416 139.624 162.96 140.312C163.52 141 164.048 141.344 164.544 141.344C164.784 141.344 165.304 141.008 166.104 140.336ZM184.611 139.88L185.115 140.36C184.203 141.992 183.155 142.808 181.971 142.808C181.491 142.808 181.115 142.68 180.843 142.424C180.587 142.152 180.459 141.8 180.459 141.368C180.459 140.92 180.723 140.16 181.251 139.088C181.779 138.016 182.059 137.2 182.091 136.64C182.107 136.384 182.027 136.176 181.851 136.016C181.691 135.856 181.467 135.776 181.179 135.776C180.891 135.776 180.595 135.848 180.291 135.992C180.003 136.12 179.715 136.336 179.427 136.64C179.155 136.944 178.899 137.24 178.659 137.528C178.435 137.816 178.179 138.224 177.891 138.752C177.619 139.28 177.387 139.72 177.195 140.072C176.859 140.728 176.379 141.712 175.755 143.024L174.315 142.52C174.315 142.472 174.579 141.568 175.107 139.808C175.635 138.048 175.899 137 175.899 136.664C175.899 136.328 175.819 136.088 175.659 135.944C175.499 135.784 175.299 135.704 175.059 135.704C174.339 135.704 173.339 136.6 172.059 138.392C170.795 140.184 169.987 141.712 169.635 142.976L168.267 142.52C168.347 141.672 168.723 140.152 169.395 137.96C170.067 135.752 170.635 134.248 171.099 133.448L172.179 133.832C171.683 134.936 171.339 135.872 171.147 136.64C170.955 137.392 170.787 138.2 170.643 139.064C172.019 137.096 173.171 135.72 174.099 134.936C175.027 134.136 175.867 133.736 176.619 133.736C177.435 133.736 177.843 134.144 177.843 134.96C177.843 135.28 177.699 135.912 177.411 136.856C177.139 137.8 176.923 138.544 176.763 139.088C178.971 135.536 180.947 133.76 182.691 133.76C183.123 133.76 183.467 133.896 183.723 134.168C183.979 134.424 184.107 134.816 184.107 135.344C184.107 135.856 183.803 136.712 183.195 137.912C182.603 139.112 182.307 139.872 182.307 140.192C182.307 140.496 182.371 140.72 182.499 140.864C182.627 141.008 182.787 141.08 182.979 141.08C183.395 141.08 183.939 140.68 184.611 139.88ZM191.239 137.408C192.119 137.376 192.559 137.736 192.559 138.488C192.559 139.48 192.023 140.464 190.951 141.44C189.895 142.4 188.831 142.88 187.759 142.88C186.751 142.88 186.247 142.2 186.247 140.84C186.247 139.768 186.511 138.44 187.039 136.856C187.583 135.256 188.031 134.128 188.383 133.472L189.463 133.832C189.047 135.048 188.623 136.536 188.191 138.296L188.503 138.152C189.575 137.656 190.487 137.408 191.239 137.408ZM190.855 139.88C190.951 139.656 190.999 139.448 190.999 139.256C190.951 138.824 190.575 138.608 189.871 138.608C189.535 138.608 188.911 138.752 187.999 139.04C187.871 139.52 187.807 139.952 187.807 140.336C187.807 140.704 187.895 141 188.071 141.224C188.263 141.448 188.511 141.56 188.815 141.56C189.135 141.56 189.511 141.4 189.943 141.08C190.375 140.744 190.679 140.344 190.855 139.88ZM194.863 139.592L194.143 142.76L192.775 142.544C193.095 140.608 193.495 138.808 193.975 137.144C194.471 135.48 194.943 134.288 195.391 133.568L196.567 133.712C195.991 135.2 195.423 137.16 194.863 139.592ZM234.274 129.56C234.274 128.696 234.594 128.032 235.234 127.568C235.874 127.104 236.778 126.872 237.946 126.872C239.13 126.856 239.93 126.944 240.346 127.136L240.13 128.144C239.57 128.064 238.962 128.024 238.306 128.024C236.898 128.024 236.194 128.608 236.194 129.776C236.194 130.096 236.618 131.04 237.466 132.608C238.33 134.176 238.826 135.12 238.954 135.44C239.098 135.76 239.218 136.184 239.314 136.712C239.426 137.224 239.482 137.608 239.482 137.864C239.482 139.272 239.042 140.488 238.162 141.512C237.282 142.52 236.218 143.024 234.97 143.024C234.042 143.024 233.314 142.76 232.786 142.232C232.274 141.688 232.018 140.912 232.018 139.904C232.018 138.88 232.346 137.872 233.002 136.88C233.658 135.888 234.49 135.144 235.498 134.648L235.81 135.584C234.578 136.352 233.962 137.44 233.962 138.848C233.962 139.536 234.13 140.096 234.466 140.528C234.802 140.944 235.266 141.152 235.858 141.152C236.45 141.152 236.962 140.888 237.394 140.36C237.842 139.832 238.066 139.168 238.066 138.368C238.066 137.568 237.954 136.928 237.73 136.448C237.522 135.968 237.122 135.224 236.53 134.216C235.026 131.576 234.274 130.024 234.274 129.56ZM251.268 140.576L251.82 140.984C251.596 141.464 251.18 141.92 250.572 142.352C249.98 142.784 249.436 143 248.94 143C247.996 143 247.524 142.504 247.524 141.512C247.524 141.048 247.644 140.496 247.884 139.856L246.996 140.768C246.132 141.648 245.38 142.24 244.74 142.544C244.116 142.848 243.5 143 242.892 143C242.284 143 241.82 142.832 241.5 142.496C241.196 142.144 241.044 141.664 241.044 141.056C241.044 139.936 241.476 138.832 242.34 137.744C243.204 136.64 244.308 135.744 245.652 135.056C246.996 134.368 248.34 134.016 249.684 134L249.732 134.792L248.724 135.008C247.268 135.328 245.98 135.968 244.86 136.928C243.756 137.888 243.204 138.848 243.204 139.808C243.204 140.752 243.588 141.224 244.356 141.224C245.076 141.224 245.964 140.72 247.02 139.712C248.076 138.704 248.956 137.52 249.66 136.16L250.668 136.76C249.676 138.76 249.18 140.032 249.18 140.576C249.18 140.8 249.252 140.992 249.396 141.152C249.556 141.296 249.708 141.368 249.852 141.368C250.012 141.368 250.116 141.36 250.164 141.344C250.212 141.328 250.26 141.312 250.308 141.296C250.356 141.264 250.412 141.224 250.476 141.176C250.556 141.128 250.62 141.08 250.668 141.032C250.732 140.984 250.828 140.912 250.956 140.816C251.084 140.72 251.188 140.64 251.268 140.576ZM261.354 140.336L261.954 140.864C261.026 142.384 260.042 143.144 259.002 143.144C258.41 143.144 257.802 142.76 257.178 141.992C256.57 141.224 256.202 140.48 256.074 139.76C255.978 139.936 255.706 140.4 255.258 141.152C254.81 141.904 254.49 142.52 254.298 143L252.858 142.496C253.194 140.528 253.602 138.672 254.082 136.928C254.578 135.184 255.042 133.96 255.474 133.256L256.458 133.568C256.17 134.304 255.69 136.264 255.018 139.448C255.898 137.64 256.786 136.32 257.682 135.488C258.578 134.64 259.562 134.08 260.634 133.808V135.392C259.482 135.44 258.37 136.216 257.298 137.72C257.362 138.76 257.666 139.624 258.21 140.312C258.77 141 259.298 141.344 259.794 141.344C260.034 141.344 260.554 141.008 261.354 140.336ZM273.909 140.576L274.461 140.984C274.237 141.464 273.821 141.92 273.213 142.352C272.621 142.784 272.077 143 271.581 143C270.637 143 270.165 142.504 270.165 141.512C270.165 141.048 270.285 140.496 270.525 139.856L269.637 140.768C268.773 141.648 268.021 142.24 267.381 142.544C266.757 142.848 266.141 143 265.533 143C264.925 143 264.461 142.832 264.141 142.496C263.837 142.144 263.685 141.664 263.685 141.056C263.685 139.936 264.117 138.832 264.981 137.744C265.845 136.64 266.949 135.744 268.293 135.056C269.637 134.368 270.981 134.016 272.325 134L272.373 134.792L271.365 135.008C269.909 135.328 268.621 135.968 267.501 136.928C266.397 137.888 265.845 138.848 265.845 139.808C265.845 140.752 266.229 141.224 266.997 141.224C267.717 141.224 268.605 140.72 269.661 139.712C270.717 138.704 271.597 137.52 272.301 136.16L273.309 136.76C272.317 138.76 271.821 140.032 271.821 140.576C271.821 140.8 271.893 140.992 272.037 141.152C272.197 141.296 272.349 141.368 272.493 141.368C272.653 141.368 272.757 141.36 272.805 141.344C272.853 141.328 272.901 141.312 272.949 141.296C272.997 141.264 273.053 141.224 273.117 141.176C273.197 141.128 273.261 141.08 273.309 141.032C273.373 140.984 273.469 140.912 273.597 140.816C273.725 140.72 273.829 140.64 273.909 140.576ZM276.435 140.888L277.635 140.288C277.635 140.576 277.739 140.824 277.947 141.032C278.171 141.24 278.427 141.344 278.715 141.344C280.075 141.344 281.627 139.552 283.371 135.968C283.467 135.76 283.579 135.528 283.707 135.272C283.835 135 283.931 134.8 283.995 134.672C284.059 134.528 284.131 134.368 284.211 134.192C284.307 134.016 284.379 133.888 284.427 133.808C284.491 133.712 284.555 133.624 284.619 133.544C284.763 133.4 284.923 133.328 285.099 133.328C285.291 133.328 285.459 133.416 285.603 133.592C285.747 133.768 285.819 133.976 285.819 134.216C285.819 134.44 285.515 135.432 284.907 137.192C284.315 138.936 284.019 139.992 284.019 140.36C284.019 140.728 284.091 141 284.235 141.176C284.395 141.352 284.547 141.44 284.691 141.44C284.851 141.44 284.971 141.432 285.051 141.416C285.131 141.4 285.211 141.368 285.291 141.32C285.371 141.272 285.435 141.232 285.483 141.2C285.547 141.168 285.619 141.112 285.699 141.032L285.867 140.84C285.915 140.808 285.979 140.744 286.059 140.648C286.155 140.536 286.219 140.464 286.251 140.432L286.755 140.84C286.483 141.512 286.051 142.08 285.459 142.544C284.883 143.008 284.355 143.24 283.875 143.24C283.411 143.24 283.043 143.08 282.771 142.76C282.499 142.424 282.363 141.992 282.363 141.464C282.363 140.936 282.451 140.256 282.627 139.424C281.891 140.576 281.083 141.456 280.203 142.064C279.323 142.656 278.611 142.952 278.067 142.952C277.523 142.952 277.115 142.752 276.843 142.352C276.571 141.952 276.435 141.464 276.435 140.888ZM295.903 140.168L296.455 140.6C295.959 141.288 295.279 141.864 294.415 142.328C293.551 142.776 292.711 143 291.895 143C291.079 143 290.423 142.76 289.927 142.28C289.431 141.8 289.183 141.168 289.183 140.384C289.183 138.912 289.959 137.464 291.511 136.04C293.079 134.616 294.663 133.904 296.263 133.904C297.319 133.904 297.847 134.32 297.847 135.152C297.847 136.016 297.287 136.888 296.167 137.768C295.063 138.648 293.503 139.448 291.487 140.168C291.631 140.536 291.855 140.824 292.159 141.032C292.463 141.24 292.775 141.344 293.095 141.344C293.783 141.344 294.719 140.952 295.903 140.168ZM291.367 139.448C292.663 139 293.775 138.44 294.703 137.768C295.631 137.096 296.095 136.48 296.095 135.92C296.095 135.712 296.015 135.528 295.855 135.368C295.695 135.208 295.511 135.128 295.303 135.128C294.551 135.128 293.735 135.6 292.855 136.544C291.991 137.472 291.495 138.44 291.367 139.448ZM298.164 141.2L299.052 140.72C299.1 140.784 299.164 140.928 299.244 141.152C299.404 141.664 299.612 141.92 299.868 141.92C300.428 141.888 300.956 141.632 301.452 141.152C301.964 140.672 302.268 140.168 302.364 139.64C301.852 139.736 301.436 139.784 301.116 139.784C300.796 139.784 300.5 139.768 300.228 139.736C299.972 139.688 299.708 139.608 299.436 139.496C298.86 139.272 298.572 138.712 298.572 137.816C298.572 136.904 299.044 135.96 299.988 134.984C300.932 134.008 302.036 133.52 303.3 133.52C303.972 133.52 304.484 133.76 304.836 134.24C305.188 134.72 305.364 135.56 305.364 136.76C305.364 137.176 305.308 137.808 305.196 138.656C305.916 136.944 306.292 135.312 306.324 133.76L307.812 134.024C307.812 135.144 307.46 136.84 306.756 139.112C306.068 141.384 305.524 142.832 305.124 143.456L303.612 143.168C304.092 141.92 304.332 140.528 304.332 138.992C304.332 137.456 304.22 136.448 303.996 135.968C303.756 135.44 303.356 135.176 302.796 135.176C302.252 135.176 301.724 135.36 301.212 135.728C300.716 136.096 300.46 136.528 300.444 137.024C300.428 137.52 300.604 137.904 300.972 138.176C301.356 138.432 301.772 138.6 302.22 138.68C303.436 138.92 304.044 139.224 304.044 139.592C304.044 139.896 303.748 140.376 303.156 141.032C302.564 141.688 301.876 142.296 301.092 142.856C300.324 143.4 299.732 143.672 299.316 143.672C298.916 143.672 298.612 143.48 298.404 143.096C298.212 142.728 298.116 142.384 298.116 142.064C298.116 141.744 298.132 141.456 298.164 141.2Z" fill="black"/>
<path d="M218.519 140.192L219.023 140.6C218.751 141.272 218.319 141.84 217.727 142.304C217.151 142.768 216.623 143 216.143 143C215.679 143 215.311 142.84 215.039 142.52C214.767 142.184 214.631 141.752 214.631 141.224C214.631 140.696 214.719 140.016 214.895 139.184C214.143 140.368 213.335 141.296 212.471 141.968C211.607 142.64 210.879 142.976 210.287 142.976C209.391 142.976 208.943 142.44 208.943 141.368C208.943 140.296 209.311 138.856 210.047 137.048C210.799 135.224 211.335 134.184 211.655 133.928L212.807 134.432C212.151 135.488 211.655 136.528 211.319 137.552C210.983 138.576 210.815 139.264 210.815 139.616C210.815 139.952 210.919 140.224 211.127 140.432C211.351 140.64 211.607 140.744 211.895 140.744C212.535 140.744 213.327 140.16 214.271 138.992C215.231 137.808 216.207 136.048 217.199 133.712L218.423 134.264C218.391 134.392 218.023 135.32 217.319 137.048C216.631 138.776 216.287 139.816 216.287 140.168C216.287 140.504 216.359 140.76 216.503 140.936C216.663 141.112 216.815 141.2 216.959 141.2C217.119 141.2 217.239 141.192 217.319 141.176C217.399 141.16 217.479 141.128 217.559 141.08C217.639 141.032 217.703 140.992 217.751 140.96C217.815 140.928 217.887 140.872 217.967 140.792L218.135 140.6C218.183 140.568 218.247 140.504 218.327 140.408C218.423 140.296 218.487 140.224 218.519 140.192Z" fill="#413F3F"/>
<path d="M85 123.15L85.55 128.32C83.4967 128.687 81.7 128.87 80.16 128.87C76.7133 128.87 73.4133 126.56 70.26 121.94C67.1067 117.393 64.6133 112.04 62.78 105.88C61.02 99.72 59.92 93.78 59.48 88.06C55.8133 97.5933 52.33 104.523 49.03 108.85C45.8033 113.103 42.4667 115.23 39.02 115.23C37.26 115.23 35.8667 114.533 34.84 113.14C33.8133 111.673 33.3 109.767 33.3 107.42C33.3 101.993 35.7933 95.1 40.78 86.74C45.84 78.38 51.7433 71.5233 58.49 66.17C58.6367 65.73 59.26 63.0533 60.36 58.14C61.5333 53.2267 62.23 50.5133 62.45 50L68.83 49.45C68.83 50.6967 68.5 53.3 67.84 57.26C77.74 49.7067 85.88 45.93 92.26 45.93C95.2667 45.93 97.65 46.7733 99.41 48.46C101.17 50.0733 102.05 52.2733 102.05 55.06C102.05 62.0267 98.53 69.0667 91.49 76.18C84.45 83.22 76.9333 87.3633 68.94 88.61C69.5267 99.2433 71.36 107.567 74.44 113.58C77.5933 119.593 81.1133 122.783 85 123.15ZM52.99 86.41C54.97 81.13 56.3267 76.9133 57.06 73.76C53.0267 77.5 49.2867 82.4867 45.84 88.72C42.4667 94.9533 40.78 99.5733 40.78 102.58C40.78 104.12 41.4033 104.89 42.65 104.89C44.85 104.89 48.2967 98.73 52.99 86.41ZM60.47 84.87C68.2433 84.87 75.21 82.1567 81.37 76.73C87.53 71.3033 90.61 65.9133 90.61 60.56C90.61 58.58 90.0967 57.04 89.07 55.94C88.1167 54.84 86.5767 54.29 84.45 54.29C82.3233 54.29 79.2433 55.5 75.21 57.92C71.1767 60.2667 68.28 62.21 66.52 63.75C64.2467 72.77 62.23 79.81 60.47 84.87ZM123.364 69.36C119.258 69.36 117.204 67.71 117.204 64.41C117.204 62.5767 117.718 61.0367 118.744 59.79C119.771 58.5433 121.091 57.92 122.704 57.92C124.318 57.92 125.638 58.3967 126.664 59.35C127.691 60.3033 128.204 61.55 128.204 63.09C128.204 64.63 127.764 66.06 126.884 67.38C126.004 68.7 124.831 69.36 123.364 69.36ZM121.934 101.81L124.134 103.68C122.374 107.053 120.028 109.95 117.094 112.37C114.234 114.717 111.631 115.89 109.284 115.89C105.178 115.89 103.124 113.03 103.124 107.31C103.124 100.197 106.058 90.92 111.924 79.48C113.244 76.9867 114.014 75.52 114.234 75.08L118.964 77.94C117.424 80.7267 115.518 85.1633 113.244 91.25C111.044 97.3367 109.944 101.26 109.944 103.02C109.944 104.707 110.311 105.917 111.044 106.65C111.778 107.383 112.658 107.75 113.684 107.75C115.664 107.75 118.414 105.77 121.934 101.81ZM152.798 69.36C148.691 69.36 146.638 67.71 146.638 64.41C146.638 62.5767 147.151 61.0367 148.178 59.79C149.204 58.5433 150.524 57.92 152.138 57.92C153.751 57.92 155.071 58.3967 156.098 59.35C157.124 60.3033 157.638 61.55 157.638 63.09C157.638 64.63 157.198 66.06 156.318 67.38C155.438 68.7 154.264 69.36 152.798 69.36ZM151.368 101.81L153.568 103.68C151.808 107.053 149.461 109.95 146.528 112.37C143.668 114.717 141.064 115.89 138.718 115.89C134.611 115.89 132.558 113.03 132.558 107.31C132.558 100.197 135.491 90.92 141.358 79.48C142.678 76.9867 143.448 75.52 143.668 75.08L148.398 77.94C146.858 80.7267 144.951 85.1633 142.678 91.25C140.478 97.3367 139.378 101.26 139.378 103.02C139.378 104.707 139.744 105.917 140.478 106.65C141.211 107.383 142.091 107.75 143.118 107.75C145.098 107.75 147.848 105.77 151.368 101.81ZM195.761 72.99L194.771 77.28C193.525 77.1333 191.911 77.06 189.931 77.06C182.598 77.06 178.931 79.48 178.931 84.32C178.931 85.3467 180.398 88.3533 183.331 93.34C186.338 98.3267 187.841 101.663 187.841 103.35C187.841 107.31 186.485 110.427 183.771 112.7C181.131 114.9 177.575 116 173.101 116C166.941 116 161.991 112.59 158.251 105.77L162.431 102.8C163.458 103.607 164.558 104.597 165.731 105.77C166.905 106.87 167.785 107.64 168.371 108.08C169.765 109.327 171.305 109.95 172.991 109.95C174.678 109.95 176.145 109.363 177.391 108.19C178.638 106.943 179.261 105.44 179.261 103.68C179.261 101.847 177.648 98.4733 174.421 93.56C171.268 88.6467 169.691 85.2 169.691 83.22C169.691 79.6267 171.195 76.8767 174.201 74.97C177.281 73.0633 181.278 72.11 186.191 72.11C191.178 72.11 194.368 72.4033 195.761 72.99ZM240.647 104.78L243.397 107.2C239.144 114.167 234.634 117.65 229.867 117.65C226.934 117.65 223.927 115.487 220.847 111.16C217.767 106.833 216.227 103.277 216.227 100.49C216.227 98.73 218.867 96.97 224.147 95.21C226.127 94.55 227.924 93.56 229.537 92.24C231.224 90.8467 232.067 89.4167 232.067 87.95C232.067 86.4833 231.664 85.3833 230.857 84.65C230.051 83.8433 229.024 83.44 227.777 83.44C219.711 84.1733 211.277 95.0267 202.477 116L195.767 113.69C195.767 110.537 200.021 97.7767 208.527 75.41C217.107 53.0433 223.194 39.5133 226.787 34.82L232.177 36.8C222.277 54.0333 213.991 74.0533 207.317 96.86C213.037 88.28 217.951 82.56 222.057 79.7C226.164 76.84 230.087 75.41 233.827 75.41C236.101 75.41 237.897 76.1067 239.217 77.5C240.611 78.8933 241.307 80.69 241.307 82.89C241.307 85.0167 240.757 86.96 239.657 88.72C238.631 90.48 237.127 92.02 235.147 93.34C232.287 95.2467 228.767 97.1167 224.587 98.95C225.247 102.397 226.384 105 227.997 106.76C229.611 108.52 231.444 109.4 233.497 109.4C234.597 109.4 236.981 107.86 240.647 104.78ZM293.241 104.89L295.771 106.76C294.745 108.96 292.838 111.05 290.051 113.03C287.338 115.01 284.845 116 282.571 116C278.245 116 276.081 113.727 276.081 109.18C276.081 107.053 276.631 104.523 277.731 101.59L273.661 105.77C269.701 109.803 266.255 112.517 263.321 113.91C260.461 115.303 257.638 116 254.851 116C252.065 116 249.938 115.23 248.471 113.69C247.078 112.077 246.381 109.877 246.381 107.09C246.381 101.957 248.361 96.8967 252.321 91.91C256.281 86.85 261.341 82.7433 267.501 79.59C273.661 76.4367 279.821 74.8233 285.981 74.75L286.201 78.38L281.581 79.37C274.908 80.8367 269.005 83.77 263.871 88.17C258.811 92.57 256.281 96.97 256.281 101.37C256.281 105.697 258.041 107.86 261.561 107.86C264.861 107.86 268.931 105.55 273.771 100.93C278.611 96.31 282.645 90.8833 285.871 84.65L290.491 87.4C285.945 96.5667 283.671 102.397 283.671 104.89C283.671 105.917 284.001 106.797 284.661 107.53C285.395 108.19 286.091 108.52 286.751 108.52C287.485 108.52 287.961 108.483 288.181 108.41C288.401 108.337 288.621 108.263 288.841 108.19C289.061 108.043 289.318 107.86 289.611 107.64C289.978 107.42 290.271 107.2 290.491 106.98C290.785 106.76 291.225 106.43 291.811 105.99C292.398 105.55 292.875 105.183 293.241 104.89Z" fill="black"/>
<defs>
<filter id="filter0_d_135_42" x="127" y="0" width="202" height="197" filterUnits="userSpaceOnUse" color-interpolation-filters="sRGB">
<feFlood flood-opacity="0" result="BackgroundImageFix"/>
<feColorMatrix in="SourceAlpha" type="matrix" values="0 0 0 0 0 0 0 0 0 0 0 0 0 0 0 0 0 0 127 0" result="hardAlpha"/>
<feOffset/>
<feGaussianBlur stdDeviation="2"/>
<feComposite in2="hardAlpha" operator="out"/>
<feColorMatrix type="matrix" values="0 0 0 0 0.247059 0 0 0 0 0.780392 0 0 0 0 0.0117647 0 0 0 1 0"/>
<feBlend mode="normal" in2="BackgroundImageFix" result="effect1_dropShadow_135_42"/>
<feBlend mode="normal" in="SourceGraphic" in2="effect1_dropShadow_135_42" result="shape"/>
</filter>
<filter id="filter1_d_135_42" x="0" y="3" width="202" height="197" filterUnits="userSpaceOnUse" color-interpolation-filters="sRGB">
<feFlood flood-opacity="0" result="BackgroundImageFix"/>
<feColorMatrix in="SourceAlpha" type="matrix" values="0 0 0 0 0 0 0 0 0 0 0 0 0 0 0 0 0 0 127 0" result="hardAlpha"/>
<feOffset dy="4"/>
<feGaussianBlur stdDeviation="2"/>
<feComposite in2="hardAlpha" operator="out"/>
<feColorMatrix type="matrix" values="0 0 0 0 0.960784 0 0 0 0 0.733333 0 0 0 0 0.00784314 0 0 0 1 0"/>
<feBlend mode="normal" in2="BackgroundImageFix" result="effect1_dropShadow_135_42"/>
<feBlend mode="normal" in="SourceGraphic" in2="effect1_dropShadow_135_42" result="shape"/>
</filter>
</defs>
</svg>
