<svg width="329" height="198" viewBox="0 0 329 198" fill="none" xmlns="http://www.w3.org/2000/svg">
<g filter="url(#filter0_d_142_9)">
<path d="M325 99.5C325 151.691 281.572 194 228 194C174.428 194 131 151.691 131 99.5C131 47.3091 174.428 5 228 5C281.572 5 325 47.3091 325 99.5Z" fill="#3FC703"/>
</g>
<g filter="url(#filter1_d_142_9)">
<ellipse cx="101" cy="98.5" rx="97" ry="94.5" fill="#F5BB02"/>
</g>
<path d="M89.16 135.24L90.144 135.216C90.416 135.216 90.96 135.176 91.776 135.096C92.608 135 93.152 134.912 93.408 134.832C93.664 134.736 93.816 134.688 93.864 134.688C94.088 134.688 94.2 134.832 94.2 135.12C94.2 135.536 93.832 135.912 93.096 136.248C92.376 136.584 91.544 136.752 90.6 136.752C90.104 137.072 89.576 137.736 89.016 138.744C88.472 139.736 87.944 141.144 87.432 142.968C86.92 144.776 86.664 146.056 86.664 146.808C86.664 147.56 86.84 148.08 87.192 148.368C87.56 148.656 88.12 148.872 88.872 149.016L88.368 149.904C87.952 149.936 87.64 149.952 87.432 149.952C86.664 149.952 86.064 149.696 85.632 149.184C85.216 148.656 85.008 148.04 85.008 147.336C85.008 146.632 85.072 146.048 85.2 145.584C86.176 141.696 86.992 139.28 87.648 138.336C87.984 137.84 88.472 137.304 89.112 136.728L86.856 136.776C85.8 137.8 84.872 139.592 84.072 142.152C83.288 144.696 82.344 146.64 81.24 147.984C80.152 149.312 78.856 149.976 77.352 149.976C76.76 149.976 76.2 149.784 75.672 149.4L76.224 148.488C76.416 148.584 76.632 148.672 76.872 148.752L77.208 148.8C77.288 148.816 77.408 148.824 77.568 148.824C78.368 148.824 79.08 148.44 79.704 147.672C80.344 146.904 81.008 145.456 81.696 143.328C82.4 141.184 82.944 139.768 83.328 139.08C83.728 138.376 84.416 137.6 85.392 136.752C85.392 136.752 84.248 136.728 81.96 136.68C78.456 136.68 76.704 137.448 76.704 138.984C76.704 139.384 76.848 139.712 77.136 139.968C77.44 140.208 77.888 140.328 78.48 140.328C79.072 140.328 79.848 140.056 80.808 139.512L81.168 140.136C80.672 140.664 80.112 141.08 79.488 141.384C78.864 141.688 78.24 141.84 77.616 141.84C76.992 141.84 76.456 141.632 76.008 141.216C75.56 140.8 75.336 140.28 75.336 139.656C75.336 138.392 76.016 137.288 77.376 136.344C78.752 135.4 80.608 134.928 82.944 134.928C82.992 134.928 83.368 134.952 84.072 135C86.456 135.16 88.152 135.24 89.16 135.24ZM97.0091 145.584C98.2251 143.76 99.2811 142.52 100.177 141.864C101.073 141.192 101.857 140.856 102.529 140.856C103.201 140.856 103.721 141.064 104.089 141.48C104.457 141.88 104.641 142.392 104.641 143.016C104.641 144.744 104.017 146.344 102.769 147.816C101.537 149.272 100.145 150 98.5931 150C97.9051 150 97.3611 149.88 96.9611 149.64L97.5371 148.608C98.3851 148.72 98.9051 148.776 99.0971 148.776C99.9611 148.776 100.769 148.272 101.521 147.264C102.273 146.256 102.649 145.224 102.649 144.168C102.649 143.768 102.529 143.44 102.289 143.184C102.065 142.912 101.769 142.776 101.401 142.776C100.521 142.776 99.5211 143.552 98.4011 145.104C97.2971 146.656 96.2571 148.576 95.2811 150.864C94.3211 153.168 93.4811 155.616 92.7611 158.208L91.3211 157.704C91.3531 157.608 91.6571 156.776 92.2331 155.208C92.7931 153.656 93.3451 152.112 93.8891 150.576C95.3931 146.352 96.1451 144.04 96.1451 143.64C96.1451 142.616 95.9371 141.688 95.5211 140.856L96.7211 140.256C97.2171 140.944 97.4651 141.672 97.4651 142.44C97.4651 143.192 97.3131 144.24 97.0091 145.584ZM112.625 142.872C113.041 143.56 113.249 144.32 113.249 145.152C113.249 146.448 112.801 147.608 111.905 148.632C111.009 149.64 109.953 150.144 108.737 150.144C107.809 150.144 107.081 149.88 106.553 149.352C106.041 148.808 105.785 148.064 105.785 147.12C105.785 145.6 106.377 144.24 107.561 143.04C108.745 141.824 110.073 141.216 111.545 141.216C111.817 141.216 112.009 141.224 112.121 141.24L112.193 142.032C110.913 142.032 109.849 142.4 109.001 143.136C108.153 143.872 107.729 144.816 107.729 145.968C107.729 146.656 107.897 147.216 108.233 147.648C108.569 148.064 109.057 148.272 109.697 148.272C110.353 148.272 110.873 147.984 111.257 147.408C111.641 146.832 111.833 146.16 111.833 145.392C111.833 144.608 111.681 143.896 111.377 143.256L112.625 142.872ZM124.543 149.136L124.567 149.712C124.407 149.808 123.679 150.096 122.383 150.576C121.871 153.632 121.119 155.84 120.127 157.2C119.135 158.56 117.919 159.24 116.479 159.24C115.807 159.24 115.271 159.024 114.871 158.592C114.471 158.16 114.271 157.6 114.271 156.912C114.271 155.536 114.903 154.248 116.167 153.048C117.431 151.864 119.119 150.928 121.231 150.24C121.471 149.168 121.903 147.656 122.527 145.704C121.455 147.336 120.479 148.44 119.599 149.016C118.735 149.592 117.951 149.88 117.247 149.88C116.543 149.88 116.007 149.688 115.639 149.304C115.287 148.92 115.111 148.408 115.111 147.768C115.111 146.712 115.551 145.64 116.431 144.552C117.311 143.448 118.415 142.552 119.743 141.864C121.087 141.16 122.383 140.808 123.631 140.808L123.823 141.648C122.047 141.84 120.519 142.464 119.239 143.52C117.975 144.576 117.343 145.592 117.343 146.568C117.343 146.984 117.471 147.328 117.727 147.6C117.983 147.872 118.295 148.008 118.663 148.008C119.207 148.008 120.031 147.432 121.135 146.28C122.239 145.128 123.015 144.144 123.463 143.328L124.351 143.832C123.471 146.184 122.863 148.168 122.527 149.784L124.543 149.136ZM121.087 150.96C119.695 151.6 118.543 152.368 117.631 153.264C116.719 154.16 116.263 154.976 116.263 155.712C116.263 156.096 116.375 156.408 116.599 156.648C116.823 156.888 117.103 157.008 117.439 157.008C118.111 157.008 118.775 156.536 119.431 155.592C120.087 154.648 120.639 153.104 121.087 150.96ZM135.032 148.488L135.104 149.112C135.04 149.16 134.296 149.448 132.872 149.976C132.68 151.032 132.432 152.072 132.128 153.096C131.84 154.136 131.544 154.92 131.24 155.448C130.952 155.992 130.608 156.528 130.208 157.056C129.408 158.112 128.328 158.64 126.968 158.64C126.296 158.64 125.76 158.432 125.36 158.016C124.96 157.6 124.76 157.032 124.76 156.312C124.76 153.544 127.08 151.32 131.72 149.64L133.016 145.08C131.64 147.144 130.4 148.416 129.296 148.896C128.752 149.152 128.176 149.28 127.568 149.28C126.976 149.28 126.496 149.088 126.128 148.704C125.776 148.32 125.6 147.76 125.6 147.024C125.6 146.288 125.848 145.264 126.344 143.952C126.856 142.624 127.424 141.512 128.048 140.616L129.224 141.12C129.176 141.168 128.952 141.592 128.552 142.392C127.848 143.848 127.496 144.928 127.496 145.632C127.496 146.336 127.632 146.808 127.904 147.048C128.176 147.288 128.576 147.408 129.104 147.408C129.632 147.408 130.224 147.096 130.88 146.472C131.552 145.832 132.584 144.576 133.976 142.704L134.84 143.208C134.712 143.736 134.424 144.696 133.976 146.088C133.544 147.464 133.248 148.52 133.088 149.256L135.032 148.488ZM131.576 150.36C130.568 150.824 129.68 151.352 128.912 151.944C127.472 153.032 126.752 154.088 126.752 155.112C126.752 155.496 126.864 155.808 127.088 156.048C127.312 156.288 127.592 156.408 127.928 156.408C129.528 156.408 130.744 154.392 131.576 150.36ZM145.104 147.336L145.704 147.864C144.776 149.384 143.792 150.144 142.752 150.144C142.16 150.144 141.552 149.76 140.928 148.992C140.32 148.224 139.952 147.48 139.824 146.76C139.728 146.936 139.456 147.4 139.008 148.152C138.56 148.904 138.24 149.52 138.048 150L136.608 149.496C136.944 147.528 137.352 145.672 137.832 143.928C138.328 142.184 138.792 140.96 139.224 140.256L140.208 140.568C139.92 141.304 139.44 143.264 138.768 146.448C139.648 144.64 140.536 143.32 141.432 142.488C142.328 141.64 143.312 141.08 144.384 140.808V142.392C143.232 142.44 142.12 143.216 141.048 144.72C141.112 145.76 141.416 146.624 141.96 147.312C142.52 148 143.048 148.344 143.544 148.344C143.784 148.344 144.304 148.008 145.104 147.336ZM163.611 146.88L164.115 147.36C163.203 148.992 162.155 149.808 160.971 149.808C160.491 149.808 160.115 149.68 159.843 149.424C159.587 149.152 159.459 148.8 159.459 148.368C159.459 147.92 159.723 147.16 160.251 146.088C160.779 145.016 161.059 144.2 161.091 143.64C161.107 143.384 161.027 143.176 160.851 143.016C160.691 142.856 160.467 142.776 160.179 142.776C159.891 142.776 159.595 142.848 159.291 142.992C159.003 143.12 158.715 143.336 158.427 143.64C158.155 143.944 157.899 144.24 157.659 144.528C157.435 144.816 157.179 145.224 156.891 145.752C156.619 146.28 156.387 146.72 156.195 147.072C155.859 147.728 155.379 148.712 154.755 150.024L153.315 149.52C153.315 149.472 153.579 148.568 154.107 146.808C154.635 145.048 154.899 144 154.899 143.664C154.899 143.328 154.819 143.088 154.659 142.944C154.499 142.784 154.299 142.704 154.059 142.704C153.339 142.704 152.339 143.6 151.059 145.392C149.795 147.184 148.987 148.712 148.635 149.976L147.267 149.52C147.347 148.672 147.723 147.152 148.395 144.96C149.067 142.752 149.635 141.248 150.099 140.448L151.179 140.832C150.683 141.936 150.339 142.872 150.147 143.64C149.955 144.392 149.787 145.2 149.643 146.064C151.019 144.096 152.171 142.72 153.099 141.936C154.027 141.136 154.867 140.736 155.619 140.736C156.435 140.736 156.843 141.144 156.843 141.96C156.843 142.28 156.699 142.912 156.411 143.856C156.139 144.8 155.923 145.544 155.763 146.088C157.971 142.536 159.947 140.76 161.691 140.76C162.123 140.76 162.467 140.896 162.723 141.168C162.979 141.424 163.107 141.816 163.107 142.344C163.107 142.856 162.803 143.712 162.195 144.912C161.603 146.112 161.307 146.872 161.307 147.192C161.307 147.496 161.371 147.72 161.499 147.864C161.627 148.008 161.787 148.08 161.979 148.08C162.395 148.08 162.939 147.68 163.611 146.88ZM170.239 144.408C171.119 144.376 171.559 144.736 171.559 145.488C171.559 146.48 171.023 147.464 169.951 148.44C168.895 149.4 167.831 149.88 166.759 149.88C165.751 149.88 165.247 149.2 165.247 147.84C165.247 146.768 165.511 145.44 166.039 143.856C166.583 142.256 167.031 141.128 167.383 140.472L168.463 140.832C168.047 142.048 167.623 143.536 167.191 145.296L167.503 145.152C168.575 144.656 169.487 144.408 170.239 144.408ZM169.855 146.88C169.951 146.656 169.999 146.448 169.999 146.256C169.951 145.824 169.575 145.608 168.871 145.608C168.535 145.608 167.911 145.752 166.999 146.04C166.871 146.52 166.807 146.952 166.807 147.336C166.807 147.704 166.895 148 167.071 148.224C167.263 148.448 167.511 148.56 167.815 148.56C168.135 148.56 168.511 148.4 168.943 148.08C169.375 147.744 169.679 147.344 169.855 146.88ZM173.863 146.592L173.143 149.76L171.775 149.544C172.095 147.608 172.495 145.808 172.975 144.144C173.471 142.48 173.943 141.288 174.391 140.568L175.567 140.712C174.991 142.2 174.423 144.16 173.863 146.592ZM197.519 147.192L198.023 147.6C197.751 148.272 197.319 148.84 196.727 149.304C196.151 149.768 195.623 150 195.143 150C194.679 150 194.311 149.84 194.039 149.52C193.767 149.184 193.631 148.752 193.631 148.224C193.631 147.696 193.719 147.016 193.895 146.184C193.143 147.368 192.335 148.296 191.471 148.968C190.607 149.64 189.879 149.976 189.287 149.976C188.391 149.976 187.943 149.44 187.943 148.368C187.943 147.296 188.311 145.856 189.047 144.048C189.799 142.224 190.335 141.184 190.655 140.928L191.807 141.432C191.151 142.488 190.655 143.528 190.319 144.552C189.983 145.576 189.815 146.264 189.815 146.616C189.815 146.952 189.919 147.224 190.127 147.432C190.351 147.64 190.607 147.744 190.895 147.744C191.535 147.744 192.327 147.16 193.271 145.992C194.231 144.808 195.207 143.048 196.199 140.712L197.423 141.264C197.391 141.392 197.023 142.32 196.319 144.048C195.631 145.776 195.287 146.816 195.287 147.168C195.287 147.504 195.359 147.76 195.503 147.936C195.663 148.112 195.815 148.2 195.959 148.2C196.119 148.2 196.239 148.192 196.319 148.176C196.399 148.16 196.479 148.128 196.559 148.08C196.639 148.032 196.703 147.992 196.751 147.96C196.815 147.928 196.887 147.872 196.967 147.792L197.135 147.6C197.183 147.568 197.247 147.504 197.327 147.408C197.423 147.296 197.487 147.224 197.519 147.192ZM220.738 140.664L221.674 140.88C221.658 140.992 221.426 141.48 220.978 142.344C220.546 143.192 220.082 144.312 219.586 145.704C219.09 147.08 218.77 148.472 218.626 149.88L217.09 149.76C217.09 148.88 217.37 147.744 217.93 146.352C217.786 146.336 217.49 146.328 217.042 146.328C216.61 146.328 215.81 146.432 214.642 146.64C213.826 148.464 213.418 150.024 213.418 151.32L211.81 151.104C211.81 149.968 212.234 148.568 213.082 146.904C212.266 147.032 211.45 147.224 210.634 147.48L210.394 146.544C210.394 146.496 210.818 146.36 211.666 146.136C212.53 145.912 213.17 145.768 213.586 145.704C214.866 142.76 215.738 141.056 216.202 140.592L217.234 141C217.154 141.16 216.97 141.52 216.682 142.08C215.962 143.472 215.474 144.56 215.218 145.344C216.61 145.2 217.442 145.128 217.714 145.128C218.002 145.128 218.242 145.136 218.434 145.152C219.554 142.576 220.322 141.08 220.738 140.664ZM233.057 147.576L233.609 147.984C233.385 148.464 232.969 148.92 232.361 149.352C231.769 149.784 231.225 150 230.729 150C229.785 150 229.313 149.504 229.313 148.512C229.313 148.048 229.433 147.496 229.673 146.856L228.785 147.768C227.921 148.648 227.169 149.24 226.529 149.544C225.905 149.848 225.289 150 224.681 150C224.073 150 223.609 149.832 223.289 149.496C222.985 149.144 222.833 148.664 222.833 148.056C222.833 146.936 223.265 145.832 224.129 144.744C224.993 143.64 226.097 142.744 227.441 142.056C228.785 141.368 230.129 141.016 231.473 141L231.521 141.792L230.513 142.008C229.057 142.328 227.769 142.968 226.649 143.928C225.545 144.888 224.993 145.848 224.993 146.808C224.993 147.752 225.377 148.224 226.145 148.224C226.865 148.224 227.753 147.72 228.809 146.712C229.865 145.704 230.745 144.52 231.449 143.16L232.457 143.76C231.465 145.76 230.969 147.032 230.969 147.576C230.969 147.8 231.041 147.992 231.185 148.152C231.345 148.296 231.497 148.368 231.641 148.368C231.801 148.368 231.905 148.36 231.953 148.344C232.001 148.328 232.049 148.312 232.097 148.296C232.145 148.264 232.201 148.224 232.265 148.176C232.345 148.128 232.409 148.08 232.457 148.032C232.521 147.984 232.617 147.912 232.745 147.816C232.873 147.72 232.977 147.64 233.057 147.576ZM244.559 147.096L245.063 147.48C244.711 148.184 244.223 148.776 243.599 149.256C242.991 149.736 242.439 149.976 241.943 149.976C241.447 149.976 241.055 149.832 240.767 149.544C240.479 149.256 240.335 148.896 240.335 148.464C240.335 148.032 240.607 147.28 241.151 146.208C241.711 145.12 241.991 144.32 241.991 143.808C241.991 143.584 241.895 143.384 241.703 143.208C241.527 143.016 241.311 142.92 241.055 142.92C240.239 142.92 239.415 143.544 238.583 144.792C237.751 146.024 236.823 147.808 235.799 150.144L234.359 149.64C234.663 147.784 235.095 145.976 235.655 144.216C236.231 142.44 236.759 141.168 237.239 140.4L238.223 140.712C237.775 141.848 237.207 143.808 236.519 146.592C238.727 142.816 240.759 140.928 242.615 140.928C243.015 140.928 243.343 141.064 243.599 141.336C243.871 141.608 244.007 141.928 244.007 142.296C244.007 142.664 243.959 143 243.863 143.304C243.767 143.592 243.463 144.28 242.951 145.368C242.455 146.44 242.207 147.112 242.207 147.384C242.207 147.656 242.287 147.872 242.447 148.032C242.607 148.176 242.759 148.248 242.903 148.248C243.047 148.248 243.167 148.224 243.263 148.176C243.359 148.128 243.463 148.056 243.575 147.96C243.703 147.864 243.815 147.776 243.911 147.696C244.007 147.616 244.119 147.512 244.247 147.384C244.391 147.24 244.495 147.144 244.559 147.096ZM256.112 147.192L256.616 147.6C256.344 148.272 255.912 148.84 255.32 149.304C254.744 149.768 254.216 150 253.736 150C253.272 150 252.904 149.84 252.632 149.52C252.36 149.184 252.224 148.752 252.224 148.224C252.224 147.696 252.312 147.016 252.488 146.184C251.736 147.368 250.928 148.296 250.064 148.968C249.2 149.64 248.472 149.976 247.88 149.976C246.984 149.976 246.536 149.44 246.536 148.368C246.536 147.296 246.904 145.856 247.64 144.048C248.392 142.224 248.928 141.184 249.248 140.928L250.4 141.432C249.744 142.488 249.248 143.528 248.912 144.552C248.576 145.576 248.408 146.264 248.408 146.616C248.408 146.952 248.512 147.224 248.72 147.432C248.944 147.64 249.2 147.744 249.488 147.744C250.128 147.744 250.92 147.16 251.864 145.992C252.824 144.808 253.8 143.048 254.792 140.712L256.016 141.264C255.984 141.392 255.616 142.32 254.912 144.048C254.224 145.776 253.88 146.816 253.88 147.168C253.88 147.504 253.952 147.76 254.096 147.936C254.256 148.112 254.408 148.2 254.552 148.2C254.712 148.2 254.832 148.192 254.912 148.176C254.992 148.16 255.072 148.128 255.152 148.08C255.232 148.032 255.296 147.992 255.344 147.96C255.408 147.928 255.48 147.872 255.56 147.792L255.728 147.6C255.776 147.568 255.84 147.504 255.92 147.408C256.016 147.296 256.08 147.224 256.112 147.192ZM274.376 146.88L274.88 147.36C273.968 148.992 272.92 149.808 271.736 149.808C271.256 149.808 270.88 149.68 270.608 149.424C270.352 149.152 270.224 148.8 270.224 148.368C270.224 147.92 270.488 147.16 271.016 146.088C271.544 145.016 271.824 144.2 271.856 143.64C271.872 143.384 271.792 143.176 271.616 143.016C271.456 142.856 271.232 142.776 270.944 142.776C270.656 142.776 270.36 142.848 270.056 142.992C269.768 143.12 269.48 143.336 269.192 143.64C268.92 143.944 268.664 144.24 268.424 144.528C268.2 144.816 267.944 145.224 267.656 145.752C267.384 146.28 267.152 146.72 266.96 147.072C266.624 147.728 266.144 148.712 265.52 150.024L264.08 149.52C264.08 149.472 264.344 148.568 264.872 146.808C265.4 145.048 265.664 144 265.664 143.664C265.664 143.328 265.584 143.088 265.424 142.944C265.264 142.784 265.064 142.704 264.824 142.704C264.104 142.704 263.104 143.6 261.824 145.392C260.56 147.184 259.752 148.712 259.4 149.976L258.032 149.52C258.112 148.672 258.488 147.152 259.16 144.96C259.832 142.752 260.4 141.248 260.864 140.448L261.944 140.832C261.448 141.936 261.104 142.872 260.912 143.64C260.72 144.392 260.552 145.2 260.408 146.064C261.784 144.096 262.936 142.72 263.864 141.936C264.792 141.136 265.632 140.736 266.384 140.736C267.2 140.736 267.608 141.144 267.608 141.96C267.608 142.28 267.464 142.912 267.176 143.856C266.904 144.8 266.688 145.544 266.528 146.088C268.736 142.536 270.712 140.76 272.456 140.76C272.888 140.76 273.232 140.896 273.488 141.168C273.744 141.424 273.872 141.816 273.872 142.344C273.872 142.856 273.568 143.712 272.96 144.912C272.368 146.112 272.072 146.872 272.072 147.192C272.072 147.496 272.136 147.72 272.264 147.864C272.392 148.008 272.552 148.08 272.744 148.08C273.16 148.08 273.704 147.68 274.376 146.88ZM284.581 147.336L285.181 147.864C284.253 149.384 283.269 150.144 282.229 150.144C281.637 150.144 281.029 149.76 280.405 148.992C279.797 148.224 279.429 147.48 279.301 146.76C279.205 146.936 278.933 147.4 278.485 148.152C278.037 148.904 277.717 149.52 277.525 150L276.085 149.496C276.421 147.528 276.829 145.672 277.309 143.928C277.805 142.184 278.269 140.96 278.701 140.256L279.685 140.568C279.397 141.304 278.917 143.264 278.245 146.448C279.125 144.64 280.013 143.32 280.909 142.488C281.805 141.64 282.789 141.08 283.861 140.808V142.392C282.709 142.44 281.597 143.216 280.525 144.72C280.589 145.76 280.893 146.624 281.437 147.312C281.997 148 282.525 148.344 283.021 148.344C283.261 148.344 283.781 148.008 284.581 147.336ZM296.823 147.192L297.327 147.6C297.055 148.272 296.623 148.84 296.031 149.304C295.455 149.768 294.927 150 294.447 150C293.983 150 293.615 149.84 293.343 149.52C293.071 149.184 292.935 148.752 292.935 148.224C292.935 147.696 293.023 147.016 293.199 146.184C292.447 147.368 291.639 148.296 290.775 148.968C289.911 149.64 289.183 149.976 288.591 149.976C287.695 149.976 287.247 149.44 287.247 148.368C287.247 147.296 287.615 145.856 288.351 144.048C289.103 142.224 289.639 141.184 289.959 140.928L291.111 141.432C290.455 142.488 289.959 143.528 289.623 144.552C289.287 145.576 289.119 146.264 289.119 146.616C289.119 146.952 289.223 147.224 289.431 147.432C289.655 147.64 289.911 147.744 290.199 147.744C290.839 147.744 291.631 147.16 292.575 145.992C293.535 144.808 294.511 143.048 295.503 140.712L296.727 141.264C296.695 141.392 296.327 142.32 295.623 144.048C294.935 145.776 294.591 146.816 294.591 147.168C294.591 147.504 294.663 147.76 294.807 147.936C294.967 148.112 295.119 148.2 295.263 148.2C295.423 148.2 295.543 148.192 295.623 148.176C295.703 148.16 295.783 148.128 295.863 148.08C295.943 148.032 296.007 147.992 296.055 147.96C296.119 147.928 296.191 147.872 296.271 147.792L296.439 147.6C296.487 147.568 296.551 147.504 296.631 147.408C296.727 147.296 296.791 147.224 296.823 147.192Z" fill="black"/>
<path d="M85 124.15L85.55 129.32C83.4967 129.687 81.7 129.87 80.16 129.87C76.7133 129.87 73.4133 127.56 70.26 122.94C67.1067 118.393 64.6133 113.04 62.78 106.88C61.02 100.72 59.92 94.78 59.48 89.06C55.8133 98.5933 52.33 105.523 49.03 109.85C45.8033 114.103 42.4667 116.23 39.02 116.23C37.26 116.23 35.8667 115.533 34.84 114.14C33.8133 112.673 33.3 110.767 33.3 108.42C33.3 102.993 35.7933 96.1 40.78 87.74C45.84 79.38 51.7433 72.5233 58.49 67.17C58.6367 66.73 59.26 64.0533 60.36 59.14C61.5333 54.2267 62.23 51.5133 62.45 51L68.83 50.45C68.83 51.6967 68.5 54.3 67.84 58.26C77.74 50.7067 85.88 46.93 92.26 46.93C95.2667 46.93 97.65 47.7733 99.41 49.46C101.17 51.0733 102.05 53.2733 102.05 56.06C102.05 63.0267 98.53 70.0667 91.49 77.18C84.45 84.22 76.9333 88.3633 68.94 89.61C69.5267 100.243 71.36 108.567 74.44 114.58C77.5933 120.593 81.1133 123.783 85 124.15ZM52.99 87.41C54.97 82.13 56.3267 77.9133 57.06 74.76C53.0267 78.5 49.2867 83.4867 45.84 89.72C42.4667 95.9533 40.78 100.573 40.78 103.58C40.78 105.12 41.4033 105.89 42.65 105.89C44.85 105.89 48.2967 99.73 52.99 87.41ZM60.47 85.87C68.2433 85.87 75.21 83.1567 81.37 77.73C87.53 72.3033 90.61 66.9133 90.61 61.56C90.61 59.58 90.0967 58.04 89.07 56.94C88.1167 55.84 86.5767 55.29 84.45 55.29C82.3233 55.29 79.2433 56.5 75.21 58.92C71.1767 61.2667 68.28 63.21 66.52 64.75C64.2467 73.77 62.23 80.81 60.47 85.87ZM123.364 70.36C119.258 70.36 117.204 68.71 117.204 65.41C117.204 63.5767 117.718 62.0367 118.744 60.79C119.771 59.5433 121.091 58.92 122.704 58.92C124.318 58.92 125.638 59.3967 126.664 60.35C127.691 61.3033 128.204 62.55 128.204 64.09C128.204 65.63 127.764 67.06 126.884 68.38C126.004 69.7 124.831 70.36 123.364 70.36ZM121.934 102.81L124.134 104.68C122.374 108.053 120.028 110.95 117.094 113.37C114.234 115.717 111.631 116.89 109.284 116.89C105.178 116.89 103.124 114.03 103.124 108.31C103.124 101.197 106.058 91.92 111.924 80.48C113.244 77.9867 114.014 76.52 114.234 76.08L118.964 78.94C117.424 81.7267 115.518 86.1633 113.244 92.25C111.044 98.3367 109.944 102.26 109.944 104.02C109.944 105.707 110.311 106.917 111.044 107.65C111.778 108.383 112.658 108.75 113.684 108.75C115.664 108.75 118.414 106.77 121.934 102.81ZM152.798 70.36C148.691 70.36 146.638 68.71 146.638 65.41C146.638 63.5767 147.151 62.0367 148.178 60.79C149.204 59.5433 150.524 58.92 152.138 58.92C153.751 58.92 155.071 59.3967 156.098 60.35C157.124 61.3033 157.638 62.55 157.638 64.09C157.638 65.63 157.198 67.06 156.318 68.38C155.438 69.7 154.264 70.36 152.798 70.36ZM151.368 102.81L153.568 104.68C151.808 108.053 149.461 110.95 146.528 113.37C143.668 115.717 141.064 116.89 138.718 116.89C134.611 116.89 132.558 114.03 132.558 108.31C132.558 101.197 135.491 91.92 141.358 80.48C142.678 77.9867 143.448 76.52 143.668 76.08L148.398 78.94C146.858 81.7267 144.951 86.1633 142.678 92.25C140.478 98.3367 139.378 102.26 139.378 104.02C139.378 105.707 139.744 106.917 140.478 107.65C141.211 108.383 142.091 108.75 143.118 108.75C145.098 108.75 147.848 106.77 151.368 102.81ZM195.761 73.99L194.771 78.28C193.525 78.1333 191.911 78.06 189.931 78.06C182.598 78.06 178.931 80.48 178.931 85.32C178.931 86.3467 180.398 89.3533 183.331 94.34C186.338 99.3267 187.841 102.663 187.841 104.35C187.841 108.31 186.485 111.427 183.771 113.7C181.131 115.9 177.575 117 173.101 117C166.941 117 161.991 113.59 158.251 106.77L162.431 103.8C163.458 104.607 164.558 105.597 165.731 106.77C166.905 107.87 167.785 108.64 168.371 109.08C169.765 110.327 171.305 110.95 172.991 110.95C174.678 110.95 176.145 110.363 177.391 109.19C178.638 107.943 179.261 106.44 179.261 104.68C179.261 102.847 177.648 99.4733 174.421 94.56C171.268 89.6467 169.691 86.2 169.691 84.22C169.691 80.6267 171.195 77.8767 174.201 75.97C177.281 74.0633 181.278 73.11 186.191 73.11C191.178 73.11 194.368 73.4033 195.761 73.99ZM240.647 105.78L243.397 108.2C239.144 115.167 234.634 118.65 229.867 118.65C226.934 118.65 223.927 116.487 220.847 112.16C217.767 107.833 216.227 104.277 216.227 101.49C216.227 99.73 218.867 97.97 224.147 96.21C226.127 95.55 227.924 94.56 229.537 93.24C231.224 91.8467 232.067 90.4167 232.067 88.95C232.067 87.4833 231.664 86.3833 230.857 85.65C230.051 84.8433 229.024 84.44 227.777 84.44C219.711 85.1733 211.277 96.0267 202.477 117L195.767 114.69C195.767 111.537 200.021 98.7767 208.527 76.41C217.107 54.0433 223.194 40.5133 226.787 35.82L232.177 37.8C222.277 55.0333 213.991 75.0533 207.317 97.86C213.037 89.28 217.951 83.56 222.057 80.7C226.164 77.84 230.087 76.41 233.827 76.41C236.101 76.41 237.897 77.1067 239.217 78.5C240.611 79.8933 241.307 81.69 241.307 83.89C241.307 86.0167 240.757 87.96 239.657 89.72C238.631 91.48 237.127 93.02 235.147 94.34C232.287 96.2467 228.767 98.1167 224.587 99.95C225.247 103.397 226.384 106 227.997 107.76C229.611 109.52 231.444 110.4 233.497 110.4C234.597 110.4 236.981 108.86 240.647 105.78ZM293.241 105.89L295.771 107.76C294.745 109.96 292.838 112.05 290.051 114.03C287.338 116.01 284.845 117 282.571 117C278.245 117 276.081 114.727 276.081 110.18C276.081 108.053 276.631 105.523 277.731 102.59L273.661 106.77C269.701 110.803 266.255 113.517 263.321 114.91C260.461 116.303 257.638 117 254.851 117C252.065 117 249.938 116.23 248.471 114.69C247.078 113.077 246.381 110.877 246.381 108.09C246.381 102.957 248.361 97.8967 252.321 92.91C256.281 87.85 261.341 83.7433 267.501 80.59C273.661 77.4367 279.821 75.8233 285.981 75.75L286.201 79.38L281.581 80.37C274.908 81.8367 269.005 84.77 263.871 89.17C258.811 93.57 256.281 97.97 256.281 102.37C256.281 106.697 258.041 108.86 261.561 108.86C264.861 108.86 268.931 106.55 273.771 101.93C278.611 97.31 282.645 91.8833 285.871 85.65L290.491 88.4C285.945 97.5667 283.671 103.397 283.671 105.89C283.671 106.917 284.001 107.797 284.661 108.53C285.395 109.19 286.091 109.52 286.751 109.52C287.485 109.52 287.961 109.483 288.181 109.41C288.401 109.337 288.621 109.263 288.841 109.19C289.061 109.043 289.318 108.86 289.611 108.64C289.978 108.42 290.271 108.2 290.491 107.98C290.785 107.76 291.225 107.43 291.811 106.99C292.398 106.55 292.875 106.183 293.241 105.89Z" fill="black"/>
<path d="M65.7207 31.5537C65.7207 32.2158 65.5977 32.793 65.3516 33.2852C65.1113 33.7715 64.7803 34.1787 64.3584 34.5068C63.9424 34.835 63.4502 35.0811 62.8818 35.2451C62.3193 35.4033 61.7158 35.4824 61.0713 35.4824H61.0186C60.9014 35.4824 60.7725 35.4795 60.6318 35.4736C60.4971 35.4678 60.3652 35.4619 60.2363 35.4561C60.1133 35.4443 60.0049 35.4355 59.9111 35.4297C59.8232 35.4238 59.7676 35.418 59.7441 35.4121V38.7607C59.7441 38.8486 59.7734 38.9336 59.832 39.0156C59.8965 39.0977 59.9932 39.1445 60.1221 39.1562L61.3086 39.2266V40H56.5801V39.2266L57.5293 39.1562C57.6582 39.1445 57.7549 39.0977 57.8193 39.0156C57.8896 38.9336 57.9248 38.8486 57.9248 38.7607V29.1631C57.9248 29.0752 57.8896 28.9902 57.8193 28.9082C57.7549 28.8262 57.6582 28.7793 57.5293 28.7676L56.4482 28.6973V27.9238H60.7549C61.6045 27.9238 62.3398 27.9883 62.9609 28.1172C63.5879 28.2461 64.1035 28.4541 64.5078 28.7412C64.918 29.0283 65.2227 29.4033 65.4219 29.8662C65.6211 30.3232 65.7207 30.8857 65.7207 31.5537ZM63.8486 31.5801C63.8486 31.1406 63.79 30.751 63.6729 30.4111C63.5557 30.0654 63.3682 29.7754 63.1104 29.541C62.8584 29.3008 62.5303 29.1191 62.126 28.9961C61.7217 28.8672 61.2324 28.8027 60.6582 28.8027C60.5762 28.8027 60.4824 28.8057 60.377 28.8115C60.2715 28.8115 60.1719 28.8115 60.0781 28.8115C59.9727 28.8174 59.8613 28.8203 59.7441 28.8203V34.4893C59.7559 34.4893 59.7998 34.4951 59.876 34.5068C59.9521 34.5127 60.04 34.5244 60.1396 34.542C60.2393 34.5537 60.3447 34.5654 60.4561 34.5771C60.5674 34.583 60.667 34.5859 60.7549 34.5859H60.8076C61.2705 34.5859 61.6895 34.5273 62.0645 34.4102C62.4395 34.2871 62.7588 34.1025 63.0225 33.8564C63.2861 33.6104 63.4883 33.2998 63.6289 32.9248C63.7754 32.5439 63.8486 32.0957 63.8486 31.5801ZM67.0215 40V39.2266L68.0938 39.1562C68.2227 39.1445 68.3164 39.0977 68.375 39.0156C68.4395 38.9336 68.4717 38.8486 68.4717 38.7607V29.1631C68.4717 29.0752 68.4395 28.9932 68.375 28.917C68.3164 28.8408 68.2227 28.7969 68.0938 28.7852L67.0215 28.7148V27.9238H71.7676V28.7148L70.6689 28.7852C70.5459 28.7969 70.4521 28.8408 70.3877 28.917C70.3232 28.9932 70.291 29.0752 70.291 29.1631V38.7607C70.291 38.8486 70.3232 38.9336 70.3877 39.0156C70.4521 39.0977 70.5459 39.1445 70.6689 39.1562L71.7676 39.2266V40H67.0215ZM73.0684 40V39.209L79.7656 28.8203H75.0811C74.999 28.8203 74.9316 28.8496 74.8789 28.9082C74.832 28.9668 74.7969 29.04 74.7734 29.1279L74.5098 30.7979H73.4463V27.9238H81.9189V28.75L75.2129 39.0859H80.3369C80.4189 39.0859 80.4863 39.0537 80.5391 38.9893C80.5977 38.9248 80.6328 38.8486 80.6445 38.7607L80.9521 36.6689H82.0156V40H73.0684ZM83.4219 40V39.209L90.1191 28.8203H85.4346C85.3525 28.8203 85.2852 28.8496 85.2324 28.9082C85.1855 28.9668 85.1504 29.04 85.127 29.1279L84.8633 30.7979H83.7998V27.9238H92.2725V28.75L85.5664 39.0859H90.6904C90.7725 39.0859 90.8398 39.0537 90.8926 38.9893C90.9512 38.9248 90.9863 38.8486 90.998 38.7607L91.3057 36.6689H92.3691V40H83.4219ZM100.833 40V39.2266L101.87 39.1387C101.917 39.1387 101.961 39.1094 102.002 39.0508C102.043 38.9863 102.063 38.9277 102.063 38.875C102.063 38.8516 102.061 38.8369 102.055 38.8311L100.815 35.5352H96.6582L95.4629 38.7783C95.457 38.79 95.4541 38.8076 95.4541 38.8311C95.4541 38.9014 95.4834 38.9717 95.542 39.042C95.6064 39.1064 95.665 39.1387 95.7178 39.1387L96.7812 39.2266V40H93.1602V39.2266L94.2061 39.0068L98.3984 27.6338H99.752L103.927 38.7432C103.968 38.8662 104.006 38.9482 104.041 38.9893C104.082 39.0303 104.17 39.0625 104.305 39.0859L105.113 39.2266V40H100.833ZM98.7236 29.9541L96.9746 34.6738H100.49L98.7236 29.9541Z" fill="black"/>
<defs>
<filter id="filter0_d_142_9" x="127" y="1" width="202" height="197" filterUnits="userSpaceOnUse" color-interpolation-filters="sRGB">
<feFlood flood-opacity="0" result="BackgroundImageFix"/>
<feColorMatrix in="SourceAlpha" type="matrix" values="0 0 0 0 0 0 0 0 0 0 0 0 0 0 0 0 0 0 127 0" result="hardAlpha"/>
<feOffset/>
<feGaussianBlur stdDeviation="2"/>
<feComposite in2="hardAlpha" operator="out"/>
<feColorMatrix type="matrix" values="0 0 0 0 0.247059 0 0 0 0 0.780392 0 0 0 0 0.0117647 0 0 0 1 0"/>
<feBlend mode="normal" in2="BackgroundImageFix" result="effect1_dropShadow_142_9"/>
<feBlend mode="normal" in="SourceGraphic" in2="effect1_dropShadow_142_9" result="shape"/>
</filter>
<filter id="filter1_d_142_9" x="0" y="0" width="202" height="197" filterUnits="userSpaceOnUse" color-interpolation-filters="sRGB">
<feFlood flood-opacity="0" result="BackgroundImageFix"/>
<feColorMatrix in="SourceAlpha" type="matrix" values="0 0 0 0 0 0 0 0 0 0 0 0 0 0 0 0 0 0 127 0" result="hardAlpha"/>
<feOffset/>
<feGaussianBlur stdDeviation="2"/>
<feComposite in2="hardAlpha" operator="out"/>
<feColorMatrix type="matrix" values="0 0 0 0 0.960784 0 0 0 0 0.733333 0 0 0 0 0.00784314 0 0 0 1 0"/>
<feBlend mode="normal" in2="BackgroundImageFix" result="effect1_dropShadow_142_9"/>
<feBlend mode="normal" in="SourceGraphic" in2="effect1_dropShadow_142_9" result="shape"/>
</filter>
</defs>
</svg>
