<svg width="283" height="159" viewBox="0 0 283 159" fill="none" xmlns="http://www.w3.org/2000/svg">
<g filter="url(#filter0_d_124_122)">
<mask id="path-1-outside-1_124_122" maskUnits="userSpaceOnUse" x="-4.27848" y="-23.3311" width="281.027" height="193.197" fill="black">
<rect fill="white" x="-4.27848" y="-23.3311" width="281.027" height="193.197"/>
<path d="M67.1459 105.639C66.1142 105.625 65.0959 105.029 64.0909 103.853C63.123 102.749 62.1748 100.956 61.2462 98.4732C60.1126 95.2608 59.1768 92.1965 58.4388 89.2804C57.7009 86.3642 57.1067 83.8132 56.6564 81.6276C56.2474 79.4425 55.926 77.8761 55.6924 76.9284C55.6924 76.9284 55.8083 76.7121 56.0401 76.2795C56.2762 75.7744 56.5514 75.3061 56.8657 74.8747C57.2256 74.3713 57.5087 74.121 57.715 74.124C59.6545 74.1514 61.3898 74.1396 62.9209 74.0887C64.4975 73.9657 65.9054 73.5498 67.1446 72.8409C68.4293 72.06 69.6014 70.7327 70.661 68.8589C71.7205 66.9852 72.6824 64.311 73.5465 60.8363C73.8038 59.9683 73.9785 59.099 74.0708 58.2286C74.2085 57.2862 74.3029 56.3795 74.3538 55.5085C74.4982 53.0406 74.2749 50.8582 73.6838 48.9611C73.0927 47.064 72.1454 45.9609 70.8419 45.6519C70.6811 45.577 70.4975 45.5381 70.2912 45.5351C70.0848 45.5322 69.8785 45.5293 69.6722 45.5264C68.8881 45.5153 68.0109 45.6845 67.0405 46.034C66.1115 46.384 65.3902 47.0639 64.8768 48.0737C63.705 50.4543 62.5554 53.1622 61.4279 56.1972C60.3046 59.1597 59.2184 62.1954 58.1691 65.3042C57.1242 68.3404 56.1311 71.1958 55.1899 73.8703C54.9411 74.5932 54.4726 75.8941 53.7845 77.7731C53.1005 79.5795 52.3378 81.6754 51.4961 84.0607C50.6586 86.3735 49.8625 88.6868 49.1076 91.0007C48.3527 93.3146 47.7364 95.3762 47.2589 97.1856C46.8225 98.9955 46.6678 100.228 46.7946 100.884C46.8317 100.957 46.8459 101.066 46.8374 101.211C46.8247 101.429 46.7564 101.537 46.6326 101.535C46.3025 101.531 45.9809 101.381 45.6677 101.086C45.3546 100.791 44.971 100.64 44.5171 100.634C44.1045 100.628 43.6812 100.803 43.2473 101.16C42.8176 101.445 42.2493 101.982 41.5423 102.771C40.8354 103.56 40.0544 104.203 39.1993 104.699C39.1125 104.77 38.9866 104.805 38.8215 104.803C38.5327 104.799 38.3142 104.65 38.1661 104.358C38.0138 104.137 38.0244 103.956 38.198 103.813C39.1228 103.536 39.9409 102.966 40.6521 102.104C41.3676 101.17 41.972 100.016 42.4653 98.6432C43.4806 96.1151 44.4752 93.5866 45.4491 91.0579C46.4686 88.4571 47.4469 85.8558 48.3838 83.2539C49.5198 80.0737 50.6764 76.8937 51.8537 73.7141C53.0352 70.4619 54.2146 67.2459 55.3919 64.0663C56.5151 61.1038 57.5288 58.2487 58.433 55.5011C59.3372 52.7534 60.0111 50.7653 60.4547 49.5366C60.7988 48.5971 61.3428 47.7694 62.0868 47.0535C62.8763 46.2656 63.6346 45.6589 64.3616 45.2333C64.114 45.2298 63.8664 45.2263 63.6188 45.2228C63.3754 45.1467 63.1093 45.1066 62.8205 45.1025C61.5412 45.0844 60.1297 45.2097 58.5859 45.4784C57.0875 45.6751 55.6013 46.0173 54.1273 46.505C52.6945 46.9932 51.4162 47.6652 50.2923 48.521C49.1684 49.3768 48.3847 50.4191 47.9411 51.6477C47.7378 52.2987 47.5551 52.9499 47.3931 53.6014C47.2311 54.2529 47.131 54.9052 47.0927 55.5585C46.9951 57.2279 47.2551 58.4302 47.8729 59.1654C47.9142 59.166 47.9305 59.2388 47.9221 59.384C47.9136 59.5292 47.8225 59.6732 47.649 59.816C47.5167 59.9594 47.4114 59.9942 47.3331 59.9205C46.9417 59.5517 46.5181 58.674 46.0623 57.2873C45.6521 55.8287 45.392 54.6264 45.2822 53.6804C45.2093 52.8077 45.1942 52.0084 45.2366 51.2826C45.3471 49.3954 45.7828 47.9487 46.5438 46.9425C47.309 45.8636 48.2408 45.1141 49.3392 44.6938C50.4419 44.2009 51.5524 43.926 52.6708 43.8692C53.8348 43.7404 54.85 43.6821 55.7166 43.6944C57.0371 43.7131 58.6053 43.7353 60.421 43.761C62.2409 43.7141 63.9143 43.7014 65.4412 43.7231C65.8126 43.7283 66.2252 43.7341 66.6791 43.7406C67.1373 43.6744 67.614 43.6448 68.1092 43.6518C69.2234 43.6676 70.3725 43.7929 71.5564 44.0275C72.7404 44.2622 73.8063 44.7495 74.7543 45.4893C75.7022 46.2292 76.3998 47.365 76.847 48.8969C77.4296 50.9392 77.6445 53.2668 77.4916 55.8798C77.258 59.8719 76.4643 63.2022 75.1104 65.8709C74.6425 66.8086 74.1355 67.7095 73.5893 68.5735C73.0432 69.4375 72.4166 70.264 71.7096 71.0531C70.5603 72.3444 69.2152 73.4513 67.6744 74.3739C66.1379 75.2239 64.5521 75.8552 62.9173 76.2679C61.3237 76.6812 59.8624 76.9511 58.5334 77.0776C58.9509 79.1175 59.5963 81.8508 60.4696 85.2774C61.3842 88.7046 62.5257 92.135 63.8942 95.5686C64.6134 97.3949 65.385 98.677 66.2091 99.4151C67.0332 100.153 67.8579 100.528 68.6833 100.54C70.0038 100.559 71.2821 99.8865 72.5183 98.5237C73.7957 97.1616 74.962 95.58 76.0173 93.7788C77.1181 91.9057 77.9978 90.2836 78.6562 88.9127C78.8012 88.5516 78.915 88.3716 78.9975 88.3727C79.1213 88.3745 79.1705 88.5931 79.145 89.0286C79.111 89.6093 78.9532 90.1882 78.6717 90.7654C76.5059 95.3112 74.4757 98.951 72.5811 101.685C70.6908 104.346 68.879 105.664 67.1459 105.639Z"/>
<path d="M107.581 62.0808C107.003 62.0727 106.61 61.7402 106.401 61.0834C106.257 60.7182 106.202 60.2452 106.236 59.6646C106.304 58.5032 106.668 57.564 107.33 56.847C107.809 56.4179 108.235 56.206 108.606 56.2112C109.225 56.22 109.639 56.5527 109.849 57.2095C109.992 57.5748 110.047 58.0477 110.013 58.6284C109.945 59.7897 109.56 60.7286 108.857 61.4451C108.461 61.8754 108.035 62.0873 107.581 62.0808ZM94.358 103.845C93.9453 103.839 93.6031 103.689 93.3312 103.395C93.1006 103.101 93.0086 102.555 93.0554 101.757C93.1148 100.74 93.3293 99.5448 93.6989 98.1698C94.1097 96.7953 94.5412 95.4212 94.9933 94.0474C95.4866 92.6742 95.862 91.5535 96.1193 90.6854C96.4676 89.6733 96.8948 88.3718 97.4009 86.7808C97.9525 85.1178 98.4565 83.5631 98.9128 82.1167C99.4147 80.5983 99.7651 79.5499 99.9642 78.9716C99.3227 80.0522 98.5405 81.4213 97.6175 83.0791C96.74 84.6648 95.9059 86.2148 95.1152 87.7292C94.3245 89.2435 93.7179 90.4335 93.2956 91.2992C93.1548 91.5878 93.0431 91.7315 92.9606 91.7304C92.8781 91.7292 92.8474 91.5471 92.8686 91.1842C92.9026 90.6036 93.0376 90.0607 93.2737 89.5555C94.1597 87.8246 95.141 85.8771 96.2175 83.713C97.3353 81.5496 98.3393 79.5661 99.2295 77.7626C100.124 75.8865 100.691 74.6596 100.932 74.0819C101.394 73.9431 102.067 73.7347 102.951 73.4566C103.876 73.1792 104.518 72.7887 104.878 72.2853C105.014 72.0693 105.144 71.9622 105.268 71.9639C105.351 71.9651 105.384 72.1109 105.367 72.4012C105.395 72.6195 105.339 72.873 105.198 73.1616C104.921 73.6661 104.415 74.8939 103.682 76.8449C102.948 78.7959 102.16 80.9641 101.319 83.3494C100.523 85.6627 99.7804 87.7589 99.0922 89.6378C98.3998 91.5894 97.7942 93.4696 97.2754 95.2783C96.7565 97.0871 96.4737 98.3906 96.427 99.1891C96.3676 100.205 96.6267 100.717 97.2044 100.726C97.7409 100.733 98.4557 100.162 99.349 99.0125C100.284 97.8634 101.231 96.4966 102.191 94.912C103.155 93.2549 104.008 91.7414 104.749 90.3717C104.981 89.9391 105.258 89.4345 105.581 88.858C105.949 88.2094 106.179 87.8131 106.27 87.6691C106.344 87.8154 106.37 88.0701 106.349 88.433C106.278 88.9405 106.145 89.4471 105.95 89.9529C105.76 90.386 105.571 90.7829 105.385 91.1435C104.408 93.0184 103.344 94.9647 102.194 96.9824C101.047 98.9276 99.8148 100.581 98.4961 101.942C97.1817 103.231 95.8023 103.866 94.358 103.845Z"/>
<path d="M134.345 62.4597C133.768 62.4515 133.374 62.119 133.165 61.4623C133.021 61.097 132.966 60.6241 133 60.0434C133.068 58.8821 133.433 57.9429 134.094 57.2258C134.573 56.7967 134.999 56.5848 135.37 56.5901C135.989 56.5988 136.403 56.9316 136.613 57.5883C136.757 57.9536 136.812 58.4265 136.778 59.0072C136.71 60.1685 136.324 61.1075 135.622 61.8239C135.225 62.2542 134.799 62.4661 134.345 62.4597ZM121.122 104.224C120.709 104.218 120.367 104.068 120.095 103.774C119.865 103.48 119.773 102.934 119.819 102.135C119.879 101.119 120.093 99.9236 120.463 98.5486C120.874 97.1742 121.305 95.8001 121.757 94.4262C122.251 93.053 122.626 91.9323 122.883 91.0642C123.232 90.0522 123.659 88.7506 124.165 87.1596C124.717 85.4966 125.221 83.9419 125.677 82.4955C126.179 80.9771 126.529 79.9288 126.728 79.3504C126.087 80.431 125.305 81.8002 124.382 83.4579C123.504 85.0436 122.67 86.5937 121.879 88.108C121.089 89.6223 120.482 90.8123 120.06 91.6781C119.919 91.9667 119.807 92.1104 119.725 92.1092C119.642 92.108 119.612 91.926 119.633 91.5631C119.667 90.9824 119.802 90.4395 120.038 89.9343C120.924 88.2034 121.905 86.2559 122.982 84.0919C124.099 81.9284 125.103 79.9449 125.994 78.1414C126.888 76.2653 127.456 75.0384 127.696 74.4607C128.158 74.3219 128.831 74.1135 129.715 73.8355C130.64 73.558 131.282 73.1675 131.642 72.6641C131.778 72.4481 131.909 72.341 132.032 72.3428C132.115 72.3439 132.148 72.4897 132.131 72.78C132.159 72.9984 132.103 73.2518 131.962 73.5404C131.685 74.045 131.18 75.2728 130.446 77.2237C129.712 79.1747 128.924 81.3429 128.083 83.7282C127.287 86.0415 126.544 88.1377 125.856 90.0167C125.164 91.9683 124.558 93.8484 124.039 95.6571C123.521 97.4659 123.238 98.7695 123.191 99.5679C123.132 100.584 123.391 101.096 123.969 101.104C124.505 101.112 125.22 100.541 126.113 99.3913C127.048 98.2423 127.995 96.8754 128.955 95.2909C129.919 93.6337 130.772 92.1203 131.513 90.7505C131.745 90.3179 132.022 89.8134 132.345 89.2368C132.713 88.5882 132.943 88.1919 133.034 88.0479C133.108 88.1943 133.134 88.4489 133.113 88.8118C133.042 89.3193 132.909 89.8259 132.714 90.3317C132.524 90.7648 132.335 91.1617 132.149 91.5223C131.172 93.3972 130.108 95.3435 128.958 97.3612C127.811 99.3064 126.579 100.96 125.26 102.321C123.946 103.61 122.566 104.245 121.122 104.224Z"/>
<path d="M149.413 106.041C148.67 106.031 147.897 105.838 147.092 105.463C146.288 105.089 145.58 104.498 144.966 103.69C144.398 102.81 144.053 101.643 143.932 100.188C143.903 99.97 143.902 99.6431 143.927 99.2076C143.987 98.1914 144.176 97.0682 144.496 95.8377C144.857 94.6079 145.259 93.7419 145.701 93.2396C145.875 93.0968 145.999 93.0985 146.073 93.2449C146.188 93.3918 146.2 93.5373 146.109 93.6813C146.055 93.8984 145.976 94.1879 145.873 94.5496C145.773 94.8388 145.692 95.1646 145.63 95.5269C145.395 97.4123 145.525 99.0849 146.017 100.545C146.231 101.129 146.488 101.677 146.788 102.19C147.13 102.704 147.455 103.144 147.764 103.512C148.036 103.806 148.374 104.029 148.778 104.18C149.187 104.258 149.597 104.3 150.01 104.306C150.67 104.315 151.318 104.179 151.954 103.898C152.59 103.616 153.072 103.151 153.399 102.502C154.003 101.348 154.348 100.045 154.433 98.5935C154.497 97.5048 154.399 96.3411 154.142 95.1025C153.884 93.8639 153.444 92.5502 152.823 91.1611C152.42 90.2837 152.042 89.334 151.689 88.312C151.336 87.29 151.131 86.1974 151.076 85.0343C151.047 84.816 151.019 84.5977 150.99 84.3793C151.003 84.1616 151.016 83.9438 151.028 83.7261C150.411 85.0976 149.778 86.3962 149.128 87.6219C148.523 88.7757 147.989 89.7851 147.526 90.6503C147.335 91.0834 147.178 91.2992 147.054 91.2974C146.972 91.2962 146.939 91.1505 146.956 90.8602C146.994 90.2069 147.199 89.5197 147.572 88.7985C147.94 88.15 148.358 87.3568 148.826 86.4191C149.298 85.4087 149.675 84.615 149.957 84.0378C150.765 82.2332 151.363 80.8251 151.753 79.8136C152.188 78.7301 152.637 77.7558 153.101 76.8906C153.61 75.9535 154.212 75.1992 154.906 74.6279C155.642 74.0572 156.381 73.7771 157.123 73.7876C157.99 73.7998 158.759 74.065 159.431 74.583C160.148 75.029 160.472 76.1959 160.403 78.0836C160.352 78.9546 160.196 79.8605 159.934 80.8011C159.718 81.6698 159.484 82.5019 159.231 83.2974C159.082 83.7311 158.877 84.0551 158.616 84.2694C158.402 84.4116 158.303 84.3376 158.32 84.0472C158.337 83.7569 158.376 83.4306 158.439 83.0682C158.501 82.7059 158.541 82.3796 158.558 82.0892C158.63 80.8553 158.57 79.7648 158.378 78.8177C158.231 77.7986 157.964 77.0684 157.577 76.6271C157.194 76.1131 156.775 75.853 156.321 75.8465C155.661 75.8372 154.994 76.2999 154.32 77.2348C153.65 78.097 153.272 79.254 153.187 80.7056C153.179 80.8508 153.168 81.0322 153.156 81.25C153.143 81.4678 153.153 81.6495 153.186 81.7953C153.283 82.9589 153.701 84.2724 154.442 85.7358C155.182 87.1991 155.748 88.4784 156.138 89.5736C156.811 91.4718 157.091 93.4008 156.976 95.3606C156.862 97.3203 156.425 99.1303 155.667 100.79C154.955 102.378 154.035 103.637 152.906 104.565C151.815 105.567 150.651 106.059 149.413 106.041Z"/>
<path d="M186.091 105.362C185.06 105.347 184.312 104.719 183.847 103.477C183.568 102.602 183.315 101.291 183.086 99.5439C182.858 97.7973 182.676 95.9786 182.538 94.0879C182.401 92.1973 182.284 90.6701 182.187 89.5064C180.879 92.1031 179.694 94.7015 178.633 97.3016C177.614 99.9023 176.917 101.927 176.543 103.374C176.435 103.808 176.125 104.167 175.613 104.451C175.142 104.734 174.68 104.873 174.226 104.867C173.566 104.857 173.339 104.491 173.547 103.768C175.119 98.7774 176.619 93.9678 178.046 89.3388C179.473 84.7099 180.965 80.0455 182.52 75.3457C184.117 70.6464 185.889 65.7681 187.837 60.7106C189.209 57.0252 190.799 53.4882 192.608 50.0995C194.463 46.6389 196.382 43.833 198.367 41.6818C200.355 39.458 202.299 38.3595 204.197 38.3864C204.816 38.3951 205.377 38.6936 205.879 39.2819C206.382 39.8702 206.597 40.7812 206.525 42.0152L206.34 45.1725C206.323 45.4629 206.191 45.6063 205.943 45.6028C205.819 45.601 205.762 45.5276 205.77 45.3824C205.838 44.2211 205.594 43.4549 205.037 43.0838C204.485 42.6401 203.941 42.4144 203.404 42.4069C201.96 42.3864 200.465 42.8738 198.92 43.8689C197.202 45.0069 195.717 46.7293 194.467 49.0362C193.217 51.3431 192.041 53.7963 190.939 56.3959C189.506 59.7172 188.059 63.6195 186.599 68.1027C185.143 72.5134 183.768 76.9615 182.473 81.447C181.219 85.9332 180.094 89.9853 179.098 93.6034C179.611 92.5936 180.124 91.5839 180.638 90.5741C181.151 89.5644 181.64 88.6269 182.103 87.7618C182.112 87.6166 182.1 87.4712 182.067 87.3254C182.075 87.1802 182.084 87.0351 182.092 86.8899C182.122 86.3818 182.209 85.9472 182.354 85.586C182.499 85.2249 182.69 84.7917 182.926 84.2865C183.257 83.5648 183.557 83.0242 183.826 82.6648C184.099 82.2328 184.399 81.6922 184.727 81.0431L184.804 82.8966C186.811 79.656 188.538 77.3196 189.984 75.8872C190.993 74.8844 191.951 74.3895 192.859 74.4023C193.767 74.4152 194.185 75.0386 194.112 76.2725C194.053 77.2887 193.69 78.5548 193.023 80.0708C192.787 80.576 192.642 80.9372 192.588 81.1543C192.534 81.3715 192.438 81.5881 192.302 81.8041C192.256 81.8761 192.174 81.8749 192.054 81.8006C191.935 81.7262 191.879 81.6165 191.888 81.4713C191.939 80.6003 191.806 80.0536 191.488 79.8312C191.175 79.5362 190.812 79.3858 190.399 79.3799C189.615 79.3688 188.74 79.8649 187.772 80.8682C186.851 81.7996 185.887 83.0935 184.881 84.7501C184.982 86.5676 185.092 88.5668 185.212 90.7478C185.378 92.8569 185.572 94.821 185.796 96.6402C186.02 98.4595 186.251 99.8067 186.489 100.682C186.661 101.265 186.927 101.669 187.286 101.892C187.648 102.042 187.954 102.119 188.201 102.123C188.779 102.131 189.469 101.632 190.271 100.626C191.119 99.5487 191.977 98.2896 192.846 96.849C193.761 95.3364 194.591 93.859 195.336 92.4167C196.122 90.9749 196.727 89.8212 197.149 88.9554C197.293 89.3207 197.313 89.6842 197.209 90.0459C197.143 90.4809 196.991 90.9509 196.755 91.4561C196.565 91.8892 196.376 92.2861 196.19 92.6467C195.258 94.4496 194.263 96.2879 193.203 98.1616C192.148 99.9628 191.041 101.582 189.884 103.018C189.391 103.665 188.8 104.238 188.11 104.736C187.425 105.163 186.752 105.371 186.091 105.362Z"/>
<path d="M218.367 105.601C217.954 105.595 217.612 105.445 217.34 105.15C217.068 104.856 216.956 104.309 217.003 103.511C217.062 102.495 217.274 101.335 217.64 100.033C218.005 98.7306 218.409 97.4651 218.853 96.2364C219.301 94.9352 219.693 93.8874 220.028 93.0931C218.427 95.7582 216.772 98.2773 215.064 100.65C214.212 101.801 213.281 102.877 212.273 103.88C211.264 104.883 210.223 105.376 209.15 105.361C208.738 105.355 208.462 105.133 208.322 104.696C208.187 104.185 208.138 103.603 208.176 102.95C208.198 102.587 208.233 102.333 208.283 102.189C208.655 99.361 209.343 96.4287 210.346 93.3919C211.35 90.3551 212.529 87.5023 213.883 84.8337C215.237 82.165 216.581 80.0048 217.917 78.3529C219.431 76.4856 221.033 75.5639 222.725 75.5878L229.844 75.6886C230.05 75.6915 230.145 75.8381 230.128 76.1285C230.094 76.7091 229.891 76.9968 229.52 76.9916C229.107 76.9857 228.667 77.4517 228.199 78.3894C227.735 79.2546 227.383 79.976 227.143 80.5538C226.807 81.3481 226.275 82.6845 225.545 84.5629C224.816 86.4413 224.055 88.5009 223.263 90.7416C222.517 92.9103 221.862 94.9351 221.297 96.8158C220.733 98.6966 220.425 100.072 220.374 100.943C220.315 101.96 220.574 102.472 221.152 102.48C221.771 102.489 222.502 101.991 223.345 100.985C224.189 99.9804 225.045 98.7576 225.914 97.317C226.829 95.8045 227.659 94.327 228.404 92.8847C229.194 91.3704 229.822 90.1806 230.285 89.3155C230.507 89.7545 230.451 90.3712 230.115 91.1655C229.825 91.8878 229.564 92.4653 229.332 92.8978C228.396 94.7733 227.333 96.7196 226.141 98.7368C224.953 100.681 223.679 102.334 222.319 103.695C221.005 104.984 219.688 105.619 218.367 105.601ZM211.905 101.695C212.4 101.702 213.117 101.095 214.056 99.8733C215.04 98.5797 216.103 96.9966 217.245 95.124C218.392 93.1789 219.481 91.1602 220.512 89.0682C221.547 86.9035 222.404 84.9543 223.084 83.2205C223.809 81.4146 224.199 80.0399 224.254 79.0964C224.301 78.2979 224.189 77.7515 223.917 77.4571C223.686 77.1633 223.365 77.0134 222.952 77.0076C222.292 76.9982 221.544 77.4235 220.709 78.2834C219.919 79.0713 219.274 79.8613 218.774 80.6533C218.232 81.4447 217.559 82.7064 216.756 84.4385C215.998 86.0986 215.229 87.9401 214.45 89.9631C213.671 91.9861 212.999 93.9379 212.435 95.8187C211.87 97.6994 211.554 99.2204 211.486 100.382C211.435 101.253 211.575 101.691 211.905 101.695Z"/>
</mask>
<path d="M67.1459 105.639C66.1142 105.625 65.0959 105.029 64.0909 103.853C63.123 102.749 62.1748 100.956 61.2462 98.4732C60.1126 95.2608 59.1768 92.1965 58.4388 89.2804C57.7009 86.3642 57.1067 83.8132 56.6564 81.6276C56.2474 79.4425 55.926 77.8761 55.6924 76.9284C55.6924 76.9284 55.8083 76.7121 56.0401 76.2795C56.2762 75.7744 56.5514 75.3061 56.8657 74.8747C57.2256 74.3713 57.5087 74.121 57.715 74.124C59.6545 74.1514 61.3898 74.1396 62.9209 74.0887C64.4975 73.9657 65.9054 73.5498 67.1446 72.8409C68.4293 72.06 69.6014 70.7327 70.661 68.8589C71.7205 66.9852 72.6824 64.311 73.5465 60.8363C73.8038 59.9683 73.9785 59.099 74.0708 58.2286C74.2085 57.2862 74.3029 56.3795 74.3538 55.5085C74.4982 53.0406 74.2749 50.8582 73.6838 48.9611C73.0927 47.064 72.1454 45.9609 70.8419 45.6519C70.6811 45.577 70.4975 45.5381 70.2912 45.5351C70.0848 45.5322 69.8785 45.5293 69.6722 45.5264C68.8881 45.5153 68.0109 45.6845 67.0405 46.034C66.1115 46.384 65.3902 47.0639 64.8768 48.0737C63.705 50.4543 62.5554 53.1622 61.4279 56.1972C60.3046 59.1597 59.2184 62.1954 58.1691 65.3042C57.1242 68.3404 56.1311 71.1958 55.1899 73.8703C54.9411 74.5932 54.4726 75.8941 53.7845 77.7731C53.1005 79.5795 52.3378 81.6754 51.4961 84.0607C50.6586 86.3735 49.8625 88.6868 49.1076 91.0007C48.3527 93.3146 47.7364 95.3762 47.2589 97.1856C46.8225 98.9955 46.6678 100.228 46.7946 100.884C46.8317 100.957 46.8459 101.066 46.8374 101.211C46.8247 101.429 46.7564 101.537 46.6326 101.535C46.3025 101.531 45.9809 101.381 45.6677 101.086C45.3546 100.791 44.971 100.64 44.5171 100.634C44.1045 100.628 43.6812 100.803 43.2473 101.16C42.8176 101.445 42.2493 101.982 41.5423 102.771C40.8354 103.56 40.0544 104.203 39.1993 104.699C39.1125 104.77 38.9866 104.805 38.8215 104.803C38.5327 104.799 38.3142 104.65 38.1661 104.358C38.0138 104.137 38.0244 103.956 38.198 103.813C39.1228 103.536 39.9409 102.966 40.6521 102.104C41.3676 101.17 41.972 100.016 42.4653 98.6432C43.4806 96.1151 44.4752 93.5866 45.4491 91.0579C46.4686 88.4571 47.4469 85.8558 48.3838 83.2539C49.5198 80.0737 50.6764 76.8937 51.8537 73.7141C53.0352 70.4619 54.2146 67.2459 55.3919 64.0663C56.5151 61.1038 57.5288 58.2487 58.433 55.5011C59.3372 52.7534 60.0111 50.7653 60.4547 49.5366C60.7988 48.5971 61.3428 47.7694 62.0868 47.0535C62.8763 46.2656 63.6346 45.6589 64.3616 45.2333C64.114 45.2298 63.8664 45.2263 63.6188 45.2228C63.3754 45.1467 63.1093 45.1066 62.8205 45.1025C61.5412 45.0844 60.1297 45.2097 58.5859 45.4784C57.0875 45.6751 55.6013 46.0173 54.1273 46.505C52.6945 46.9932 51.4162 47.6652 50.2923 48.521C49.1684 49.3768 48.3847 50.4191 47.9411 51.6477C47.7378 52.2987 47.5551 52.9499 47.3931 53.6014C47.2311 54.2529 47.131 54.9052 47.0927 55.5585C46.9951 57.2279 47.2551 58.4302 47.8729 59.1654C47.9142 59.166 47.9305 59.2388 47.9221 59.384C47.9136 59.5292 47.8225 59.6732 47.649 59.816C47.5167 59.9594 47.4114 59.9942 47.3331 59.9205C46.9417 59.5517 46.5181 58.674 46.0623 57.2873C45.6521 55.8287 45.392 54.6264 45.2822 53.6804C45.2093 52.8077 45.1942 52.0084 45.2366 51.2826C45.3471 49.3954 45.7828 47.9487 46.5438 46.9425C47.309 45.8636 48.2408 45.1141 49.3392 44.6938C50.4419 44.2009 51.5524 43.926 52.6708 43.8692C53.8348 43.7404 54.85 43.6821 55.7166 43.6944C57.0371 43.7131 58.6053 43.7353 60.421 43.761C62.2409 43.7141 63.9143 43.7014 65.4412 43.7231C65.8126 43.7283 66.2252 43.7341 66.6791 43.7406C67.1373 43.6744 67.614 43.6448 68.1092 43.6518C69.2234 43.6676 70.3725 43.7929 71.5564 44.0275C72.7404 44.2622 73.8063 44.7495 74.7543 45.4893C75.7022 46.2292 76.3998 47.365 76.847 48.8969C77.4296 50.9392 77.6445 53.2668 77.4916 55.8798C77.258 59.8719 76.4643 63.2022 75.1104 65.8709C74.6425 66.8086 74.1355 67.7095 73.5893 68.5735C73.0432 69.4375 72.4166 70.264 71.7096 71.0531C70.5603 72.3444 69.2152 73.4513 67.6744 74.3739C66.1379 75.2239 64.5521 75.8552 62.9173 76.2679C61.3237 76.6812 59.8624 76.9511 58.5334 77.0776C58.9509 79.1175 59.5963 81.8508 60.4696 85.2774C61.3842 88.7046 62.5257 92.135 63.8942 95.5686C64.6134 97.3949 65.385 98.677 66.2091 99.4151C67.0332 100.153 67.8579 100.528 68.6833 100.54C70.0038 100.559 71.2821 99.8865 72.5183 98.5237C73.7957 97.1616 74.962 95.58 76.0173 93.7788C77.1181 91.9057 77.9978 90.2836 78.6562 88.9127C78.8012 88.5516 78.915 88.3716 78.9975 88.3727C79.1213 88.3745 79.1705 88.5931 79.145 89.0286C79.111 89.6093 78.9532 90.1882 78.6717 90.7654C76.5059 95.3112 74.4757 98.951 72.5811 101.685C70.6908 104.346 68.879 105.664 67.1459 105.639Z" fill="#645A5A"/>
<path d="M107.581 62.0808C107.003 62.0727 106.61 61.7402 106.401 61.0834C106.257 60.7182 106.202 60.2452 106.236 59.6646C106.304 58.5032 106.668 57.564 107.33 56.847C107.809 56.4179 108.235 56.206 108.606 56.2112C109.225 56.22 109.639 56.5527 109.849 57.2095C109.992 57.5748 110.047 58.0477 110.013 58.6284C109.945 59.7897 109.56 60.7286 108.857 61.4451C108.461 61.8754 108.035 62.0873 107.581 62.0808ZM94.358 103.845C93.9453 103.839 93.6031 103.689 93.3312 103.395C93.1006 103.101 93.0086 102.555 93.0554 101.757C93.1148 100.74 93.3293 99.5448 93.6989 98.1698C94.1097 96.7953 94.5412 95.4212 94.9933 94.0474C95.4866 92.6742 95.862 91.5535 96.1193 90.6854C96.4676 89.6733 96.8948 88.3718 97.4009 86.7808C97.9525 85.1178 98.4565 83.5631 98.9128 82.1167C99.4147 80.5983 99.7651 79.5499 99.9642 78.9716C99.3227 80.0522 98.5405 81.4213 97.6175 83.0791C96.74 84.6648 95.9059 86.2148 95.1152 87.7292C94.3245 89.2435 93.7179 90.4335 93.2956 91.2992C93.1548 91.5878 93.0431 91.7315 92.9606 91.7304C92.8781 91.7292 92.8474 91.5471 92.8686 91.1842C92.9026 90.6036 93.0376 90.0607 93.2737 89.5555C94.1597 87.8246 95.141 85.8771 96.2175 83.713C97.3353 81.5496 98.3393 79.5661 99.2295 77.7626C100.124 75.8865 100.691 74.6596 100.932 74.0819C101.394 73.9431 102.067 73.7347 102.951 73.4566C103.876 73.1792 104.518 72.7887 104.878 72.2853C105.014 72.0693 105.144 71.9622 105.268 71.9639C105.351 71.9651 105.384 72.1109 105.367 72.4012C105.395 72.6195 105.339 72.873 105.198 73.1616C104.921 73.6661 104.415 74.8939 103.682 76.8449C102.948 78.7959 102.16 80.9641 101.319 83.3494C100.523 85.6627 99.7804 87.7589 99.0922 89.6378C98.3998 91.5894 97.7942 93.4696 97.2754 95.2783C96.7565 97.0871 96.4737 98.3906 96.427 99.1891C96.3676 100.205 96.6267 100.717 97.2044 100.726C97.7409 100.733 98.4557 100.162 99.349 99.0125C100.284 97.8634 101.231 96.4966 102.191 94.912C103.155 93.2549 104.008 91.7414 104.749 90.3717C104.981 89.9391 105.258 89.4345 105.581 88.858C105.949 88.2094 106.179 87.8131 106.27 87.6691C106.344 87.8154 106.37 88.0701 106.349 88.433C106.278 88.9405 106.145 89.4471 105.95 89.9529C105.76 90.386 105.571 90.7829 105.385 91.1435C104.408 93.0184 103.344 94.9647 102.194 96.9824C101.047 98.9276 99.8148 100.581 98.4961 101.942C97.1817 103.231 95.8023 103.866 94.358 103.845Z" fill="#645A5A"/>
<path d="M134.345 62.4597C133.768 62.4515 133.374 62.119 133.165 61.4623C133.021 61.097 132.966 60.6241 133 60.0434C133.068 58.8821 133.433 57.9429 134.094 57.2258C134.573 56.7967 134.999 56.5848 135.37 56.5901C135.989 56.5988 136.403 56.9316 136.613 57.5883C136.757 57.9536 136.812 58.4265 136.778 59.0072C136.71 60.1685 136.324 61.1075 135.622 61.8239C135.225 62.2542 134.799 62.4661 134.345 62.4597ZM121.122 104.224C120.709 104.218 120.367 104.068 120.095 103.774C119.865 103.48 119.773 102.934 119.819 102.135C119.879 101.119 120.093 99.9236 120.463 98.5486C120.874 97.1742 121.305 95.8001 121.757 94.4262C122.251 93.053 122.626 91.9323 122.883 91.0642C123.232 90.0522 123.659 88.7506 124.165 87.1596C124.717 85.4966 125.221 83.9419 125.677 82.4955C126.179 80.9771 126.529 79.9288 126.728 79.3504C126.087 80.431 125.305 81.8002 124.382 83.4579C123.504 85.0436 122.67 86.5937 121.879 88.108C121.089 89.6223 120.482 90.8123 120.06 91.6781C119.919 91.9667 119.807 92.1104 119.725 92.1092C119.642 92.108 119.612 91.926 119.633 91.5631C119.667 90.9824 119.802 90.4395 120.038 89.9343C120.924 88.2034 121.905 86.2559 122.982 84.0919C124.099 81.9284 125.103 79.9449 125.994 78.1414C126.888 76.2653 127.456 75.0384 127.696 74.4607C128.158 74.3219 128.831 74.1135 129.715 73.8355C130.64 73.558 131.282 73.1675 131.642 72.6641C131.778 72.4481 131.909 72.341 132.032 72.3428C132.115 72.3439 132.148 72.4897 132.131 72.78C132.159 72.9984 132.103 73.2518 131.962 73.5404C131.685 74.045 131.18 75.2728 130.446 77.2237C129.712 79.1747 128.924 81.3429 128.083 83.7282C127.287 86.0415 126.544 88.1377 125.856 90.0167C125.164 91.9683 124.558 93.8484 124.039 95.6571C123.521 97.4659 123.238 98.7695 123.191 99.5679C123.132 100.584 123.391 101.096 123.969 101.104C124.505 101.112 125.22 100.541 126.113 99.3913C127.048 98.2423 127.995 96.8754 128.955 95.2909C129.919 93.6337 130.772 92.1203 131.513 90.7505C131.745 90.3179 132.022 89.8134 132.345 89.2368C132.713 88.5882 132.943 88.1919 133.034 88.0479C133.108 88.1943 133.134 88.4489 133.113 88.8118C133.042 89.3193 132.909 89.8259 132.714 90.3317C132.524 90.7648 132.335 91.1617 132.149 91.5223C131.172 93.3972 130.108 95.3435 128.958 97.3612C127.811 99.3064 126.579 100.96 125.26 102.321C123.946 103.61 122.566 104.245 121.122 104.224Z" fill="#645A5A"/>
<path d="M149.413 106.041C148.67 106.031 147.897 105.838 147.092 105.463C146.288 105.089 145.58 104.498 144.966 103.69C144.398 102.81 144.053 101.643 143.932 100.188C143.903 99.97 143.902 99.6431 143.927 99.2076C143.987 98.1914 144.176 97.0682 144.496 95.8377C144.857 94.6079 145.259 93.7419 145.701 93.2396C145.875 93.0968 145.999 93.0985 146.073 93.2449C146.188 93.3918 146.2 93.5373 146.109 93.6813C146.055 93.8984 145.976 94.1879 145.873 94.5496C145.773 94.8388 145.692 95.1646 145.63 95.5269C145.395 97.4123 145.525 99.0849 146.017 100.545C146.231 101.129 146.488 101.677 146.788 102.19C147.13 102.704 147.455 103.144 147.764 103.512C148.036 103.806 148.374 104.029 148.778 104.18C149.187 104.258 149.597 104.3 150.01 104.306C150.67 104.315 151.318 104.179 151.954 103.898C152.59 103.616 153.072 103.151 153.399 102.502C154.003 101.348 154.348 100.045 154.433 98.5935C154.497 97.5048 154.399 96.3411 154.142 95.1025C153.884 93.8639 153.444 92.5502 152.823 91.1611C152.42 90.2837 152.042 89.334 151.689 88.312C151.336 87.29 151.131 86.1974 151.076 85.0343C151.047 84.816 151.019 84.5977 150.99 84.3793C151.003 84.1616 151.016 83.9438 151.028 83.7261C150.411 85.0976 149.778 86.3962 149.128 87.6219C148.523 88.7757 147.989 89.7851 147.526 90.6503C147.335 91.0834 147.178 91.2992 147.054 91.2974C146.972 91.2962 146.939 91.1505 146.956 90.8602C146.994 90.2069 147.199 89.5197 147.572 88.7985C147.94 88.15 148.358 87.3568 148.826 86.4191C149.298 85.4087 149.675 84.615 149.957 84.0378C150.765 82.2332 151.363 80.8251 151.753 79.8136C152.188 78.7301 152.637 77.7558 153.101 76.8906C153.61 75.9535 154.212 75.1992 154.906 74.6279C155.642 74.0572 156.381 73.7771 157.123 73.7876C157.99 73.7998 158.759 74.065 159.431 74.583C160.148 75.029 160.472 76.1959 160.403 78.0836C160.352 78.9546 160.196 79.8605 159.934 80.8011C159.718 81.6698 159.484 82.5019 159.231 83.2974C159.082 83.7311 158.877 84.0551 158.616 84.2694C158.402 84.4116 158.303 84.3376 158.32 84.0472C158.337 83.7569 158.376 83.4306 158.439 83.0682C158.501 82.7059 158.541 82.3796 158.558 82.0892C158.63 80.8553 158.57 79.7648 158.378 78.8177C158.231 77.7986 157.964 77.0684 157.577 76.6271C157.194 76.1131 156.775 75.853 156.321 75.8465C155.661 75.8372 154.994 76.2999 154.32 77.2348C153.65 78.097 153.272 79.254 153.187 80.7056C153.179 80.8508 153.168 81.0322 153.156 81.25C153.143 81.4678 153.153 81.6495 153.186 81.7953C153.283 82.9589 153.701 84.2724 154.442 85.7358C155.182 87.1991 155.748 88.4784 156.138 89.5736C156.811 91.4718 157.091 93.4008 156.976 95.3606C156.862 97.3203 156.425 99.1303 155.667 100.79C154.955 102.378 154.035 103.637 152.906 104.565C151.815 105.567 150.651 106.059 149.413 106.041Z" fill="#645A5A"/>
<path d="M186.091 105.362C185.06 105.347 184.312 104.719 183.847 103.477C183.568 102.602 183.315 101.291 183.086 99.5439C182.858 97.7973 182.676 95.9786 182.538 94.0879C182.401 92.1973 182.284 90.6701 182.187 89.5064C180.879 92.1031 179.694 94.7015 178.633 97.3016C177.614 99.9023 176.917 101.927 176.543 103.374C176.435 103.808 176.125 104.167 175.613 104.451C175.142 104.734 174.68 104.873 174.226 104.867C173.566 104.857 173.339 104.491 173.547 103.768C175.119 98.7774 176.619 93.9678 178.046 89.3388C179.473 84.7099 180.965 80.0455 182.52 75.3457C184.117 70.6464 185.889 65.7681 187.837 60.7106C189.209 57.0252 190.799 53.4882 192.608 50.0995C194.463 46.6389 196.382 43.833 198.367 41.6818C200.355 39.458 202.299 38.3595 204.197 38.3864C204.816 38.3951 205.377 38.6936 205.879 39.2819C206.382 39.8702 206.597 40.7812 206.525 42.0152L206.34 45.1725C206.323 45.4629 206.191 45.6063 205.943 45.6028C205.819 45.601 205.762 45.5276 205.77 45.3824C205.838 44.2211 205.594 43.4549 205.037 43.0838C204.485 42.6401 203.941 42.4144 203.404 42.4069C201.96 42.3864 200.465 42.8738 198.92 43.8689C197.202 45.0069 195.717 46.7293 194.467 49.0362C193.217 51.3431 192.041 53.7963 190.939 56.3959C189.506 59.7172 188.059 63.6195 186.599 68.1027C185.143 72.5134 183.768 76.9615 182.473 81.447C181.219 85.9332 180.094 89.9853 179.098 93.6034C179.611 92.5936 180.124 91.5839 180.638 90.5741C181.151 89.5644 181.64 88.6269 182.103 87.7618C182.112 87.6166 182.1 87.4712 182.067 87.3254C182.075 87.1802 182.084 87.0351 182.092 86.8899C182.122 86.3818 182.209 85.9472 182.354 85.586C182.499 85.2249 182.69 84.7917 182.926 84.2865C183.257 83.5648 183.557 83.0242 183.826 82.6648C184.099 82.2328 184.399 81.6922 184.727 81.0431L184.804 82.8966C186.811 79.656 188.538 77.3196 189.984 75.8872C190.993 74.8844 191.951 74.3895 192.859 74.4023C193.767 74.4152 194.185 75.0386 194.112 76.2725C194.053 77.2887 193.69 78.5548 193.023 80.0708C192.787 80.576 192.642 80.9372 192.588 81.1543C192.534 81.3715 192.438 81.5881 192.302 81.8041C192.256 81.8761 192.174 81.8749 192.054 81.8006C191.935 81.7262 191.879 81.6165 191.888 81.4713C191.939 80.6003 191.806 80.0536 191.488 79.8312C191.175 79.5362 190.812 79.3858 190.399 79.3799C189.615 79.3688 188.74 79.8649 187.772 80.8682C186.851 81.7996 185.887 83.0935 184.881 84.7501C184.982 86.5676 185.092 88.5668 185.212 90.7478C185.378 92.8569 185.572 94.821 185.796 96.6402C186.02 98.4595 186.251 99.8067 186.489 100.682C186.661 101.265 186.927 101.669 187.286 101.892C187.648 102.042 187.954 102.119 188.201 102.123C188.779 102.131 189.469 101.632 190.271 100.626C191.119 99.5487 191.977 98.2896 192.846 96.849C193.761 95.3364 194.591 93.859 195.336 92.4167C196.122 90.9749 196.727 89.8212 197.149 88.9554C197.293 89.3207 197.313 89.6842 197.209 90.0459C197.143 90.4809 196.991 90.9509 196.755 91.4561C196.565 91.8892 196.376 92.2861 196.19 92.6467C195.258 94.4496 194.263 96.2879 193.203 98.1616C192.148 99.9628 191.041 101.582 189.884 103.018C189.391 103.665 188.8 104.238 188.11 104.736C187.425 105.163 186.752 105.371 186.091 105.362Z" fill="#FFFDFD"/>
<path d="M218.367 105.601C217.954 105.595 217.612 105.445 217.34 105.15C217.068 104.856 216.956 104.309 217.003 103.511C217.062 102.495 217.274 101.335 217.64 100.033C218.005 98.7306 218.409 97.4651 218.853 96.2364C219.301 94.9352 219.693 93.8874 220.028 93.0931C218.427 95.7582 216.772 98.2773 215.064 100.65C214.212 101.801 213.281 102.877 212.273 103.88C211.264 104.883 210.223 105.376 209.15 105.361C208.738 105.355 208.462 105.133 208.322 104.696C208.187 104.185 208.138 103.603 208.176 102.95C208.198 102.587 208.233 102.333 208.283 102.189C208.655 99.361 209.343 96.4287 210.346 93.3919C211.35 90.3551 212.529 87.5023 213.883 84.8337C215.237 82.165 216.581 80.0048 217.917 78.3529C219.431 76.4856 221.033 75.5639 222.725 75.5878L229.844 75.6886C230.05 75.6915 230.145 75.8381 230.128 76.1285C230.094 76.7091 229.891 76.9968 229.52 76.9916C229.107 76.9857 228.667 77.4517 228.199 78.3894C227.735 79.2546 227.383 79.976 227.143 80.5538C226.807 81.3481 226.275 82.6845 225.545 84.5629C224.816 86.4413 224.055 88.5009 223.263 90.7416C222.517 92.9103 221.862 94.9351 221.297 96.8158C220.733 98.6966 220.425 100.072 220.374 100.943C220.315 101.96 220.574 102.472 221.152 102.48C221.771 102.489 222.502 101.991 223.345 100.985C224.189 99.9804 225.045 98.7576 225.914 97.317C226.829 95.8045 227.659 94.327 228.404 92.8847C229.194 91.3704 229.822 90.1806 230.285 89.3155C230.507 89.7545 230.451 90.3712 230.115 91.1655C229.825 91.8878 229.564 92.4653 229.332 92.8978C228.396 94.7733 227.333 96.7196 226.141 98.7368C224.953 100.681 223.679 102.334 222.319 103.695C221.005 104.984 219.688 105.619 218.367 105.601ZM211.905 101.695C212.4 101.702 213.117 101.095 214.056 99.8733C215.04 98.5797 216.103 96.9966 217.245 95.124C218.392 93.1789 219.481 91.1602 220.512 89.0682C221.547 86.9035 222.404 84.9543 223.084 83.2205C223.809 81.4146 224.199 80.0399 224.254 79.0964C224.301 78.2979 224.189 77.7515 223.917 77.4571C223.686 77.1633 223.365 77.0134 222.952 77.0076C222.292 76.9982 221.544 77.4235 220.709 78.2834C219.919 79.0713 219.274 79.8613 218.774 80.6533C218.232 81.4447 217.559 82.7064 216.756 84.4385C215.998 86.0986 215.229 87.9401 214.45 89.9631C213.671 91.9861 212.999 93.9379 212.435 95.8187C211.87 97.6994 211.554 99.2204 211.486 100.382C211.435 101.253 211.575 101.691 211.905 101.695Z" fill="#FFFDFD"/>
<path d="M67.1459 105.639C66.1142 105.625 65.0959 105.029 64.0909 103.853C63.123 102.749 62.1748 100.956 61.2462 98.4732C60.1126 95.2608 59.1768 92.1965 58.4388 89.2804C57.7009 86.3642 57.1067 83.8132 56.6564 81.6276C56.2474 79.4425 55.926 77.8761 55.6924 76.9284C55.6924 76.9284 55.8083 76.7121 56.0401 76.2795C56.2762 75.7744 56.5514 75.3061 56.8657 74.8747C57.2256 74.3713 57.5087 74.121 57.715 74.124C59.6545 74.1514 61.3898 74.1396 62.9209 74.0887C64.4975 73.9657 65.9054 73.5498 67.1446 72.8409C68.4293 72.06 69.6014 70.7327 70.661 68.8589C71.7205 66.9852 72.6824 64.311 73.5465 60.8363C73.8038 59.9683 73.9785 59.099 74.0708 58.2286C74.2085 57.2862 74.3029 56.3795 74.3538 55.5085C74.4982 53.0406 74.2749 50.8582 73.6838 48.9611C73.0927 47.064 72.1454 45.9609 70.8419 45.6519C70.6811 45.577 70.4975 45.5381 70.2912 45.5351C70.0848 45.5322 69.8785 45.5293 69.6722 45.5264C68.8881 45.5153 68.0109 45.6845 67.0405 46.034C66.1115 46.384 65.3902 47.0639 64.8768 48.0737C63.705 50.4543 62.5554 53.1622 61.4279 56.1972C60.3046 59.1597 59.2184 62.1954 58.1691 65.3042C57.1242 68.3404 56.1311 71.1958 55.1899 73.8703C54.9411 74.5932 54.4726 75.8941 53.7845 77.7731C53.1005 79.5795 52.3378 81.6754 51.4961 84.0607C50.6586 86.3735 49.8625 88.6868 49.1076 91.0007C48.3527 93.3146 47.7364 95.3762 47.2589 97.1856C46.8225 98.9955 46.6678 100.228 46.7946 100.884C46.8317 100.957 46.8459 101.066 46.8374 101.211C46.8247 101.429 46.7564 101.537 46.6326 101.535C46.3025 101.531 45.9809 101.381 45.6677 101.086C45.3546 100.791 44.971 100.64 44.5171 100.634C44.1045 100.628 43.6812 100.803 43.2473 101.16C42.8176 101.445 42.2493 101.982 41.5423 102.771C40.8354 103.56 40.0544 104.203 39.1993 104.699C39.1125 104.77 38.9866 104.805 38.8215 104.803C38.5327 104.799 38.3142 104.65 38.1661 104.358C38.0138 104.137 38.0244 103.956 38.198 103.813C39.1228 103.536 39.9409 102.966 40.6521 102.104C41.3676 101.17 41.972 100.016 42.4653 98.6432C43.4806 96.1151 44.4752 93.5866 45.4491 91.0579C46.4686 88.4571 47.4469 85.8558 48.3838 83.2539C49.5198 80.0737 50.6764 76.8937 51.8537 73.7141C53.0352 70.4619 54.2146 67.2459 55.3919 64.0663C56.5151 61.1038 57.5288 58.2487 58.433 55.5011C59.3372 52.7534 60.0111 50.7653 60.4547 49.5366C60.7988 48.5971 61.3428 47.7694 62.0868 47.0535C62.8763 46.2656 63.6346 45.6589 64.3616 45.2333C64.114 45.2298 63.8664 45.2263 63.6188 45.2228C63.3754 45.1467 63.1093 45.1066 62.8205 45.1025C61.5412 45.0844 60.1297 45.2097 58.5859 45.4784C57.0875 45.6751 55.6013 46.0173 54.1273 46.505C52.6945 46.9932 51.4162 47.6652 50.2923 48.521C49.1684 49.3768 48.3847 50.4191 47.9411 51.6477C47.7378 52.2987 47.5551 52.9499 47.3931 53.6014C47.2311 54.2529 47.131 54.9052 47.0927 55.5585C46.9951 57.2279 47.2551 58.4302 47.8729 59.1654C47.9142 59.166 47.9305 59.2388 47.9221 59.384C47.9136 59.5292 47.8225 59.6732 47.649 59.816C47.5167 59.9594 47.4114 59.9942 47.3331 59.9205C46.9417 59.5517 46.5181 58.674 46.0623 57.2873C45.6521 55.8287 45.392 54.6264 45.2822 53.6804C45.2093 52.8077 45.1942 52.0084 45.2366 51.2826C45.3471 49.3954 45.7828 47.9487 46.5438 46.9425C47.309 45.8636 48.2408 45.1141 49.3392 44.6938C50.4419 44.2009 51.5524 43.926 52.6708 43.8692C53.8348 43.7404 54.85 43.6821 55.7166 43.6944C57.0371 43.7131 58.6053 43.7353 60.421 43.761C62.2409 43.7141 63.9143 43.7014 65.4412 43.7231C65.8126 43.7283 66.2252 43.7341 66.6791 43.7406C67.1373 43.6744 67.614 43.6448 68.1092 43.6518C69.2234 43.6676 70.3725 43.7929 71.5564 44.0275C72.7404 44.2622 73.8063 44.7495 74.7543 45.4893C75.7022 46.2292 76.3998 47.365 76.847 48.8969C77.4296 50.9392 77.6445 53.2668 77.4916 55.8798C77.258 59.8719 76.4643 63.2022 75.1104 65.8709C74.6425 66.8086 74.1355 67.7095 73.5893 68.5735C73.0432 69.4375 72.4166 70.264 71.7096 71.0531C70.5603 72.3444 69.2152 73.4513 67.6744 74.3739C66.1379 75.2239 64.5521 75.8552 62.9173 76.2679C61.3237 76.6812 59.8624 76.9511 58.5334 77.0776C58.9509 79.1175 59.5963 81.8508 60.4696 85.2774C61.3842 88.7046 62.5257 92.135 63.8942 95.5686C64.6134 97.3949 65.385 98.677 66.2091 99.4151C67.0332 100.153 67.8579 100.528 68.6833 100.54C70.0038 100.559 71.2821 99.8865 72.5183 98.5237C73.7957 97.1616 74.962 95.58 76.0173 93.7788C77.1181 91.9057 77.9978 90.2836 78.6562 88.9127C78.8012 88.5516 78.915 88.3716 78.9975 88.3727C79.1213 88.3745 79.1705 88.5931 79.145 89.0286C79.111 89.6093 78.9532 90.1882 78.6717 90.7654C76.5059 95.3112 74.4757 98.951 72.5811 101.685C70.6908 104.346 68.879 105.664 67.1459 105.639Z" stroke="black" stroke-width="76" stroke-linejoin="round" mask="url(#path-1-outside-1_124_122)"/>
<path d="M67.1459 105.639C66.1142 105.625 65.0959 105.029 64.0909 103.853C63.123 102.749 62.1748 100.956 61.2462 98.4732C60.1126 95.2608 59.1768 92.1965 58.4388 89.2804C57.7009 86.3642 57.1067 83.8132 56.6564 81.6276C56.2474 79.4425 55.926 77.8761 55.6924 76.9284C55.6924 76.9284 55.8083 76.7121 56.0401 76.2795C56.2762 75.7744 56.5514 75.3061 56.8657 74.8747C57.2256 74.3713 57.5087 74.121 57.715 74.124C59.6545 74.1514 61.3898 74.1396 62.9209 74.0887C64.4975 73.9657 65.9054 73.5498 67.1446 72.8409C68.4293 72.06 69.6014 70.7327 70.661 68.8589C71.7205 66.9852 72.6824 64.311 73.5465 60.8363C73.8038 59.9683 73.9785 59.099 74.0708 58.2286C74.2085 57.2862 74.3029 56.3795 74.3538 55.5085C74.4982 53.0406 74.2749 50.8582 73.6838 48.9611C73.0927 47.064 72.1454 45.9609 70.8419 45.6519C70.6811 45.577 70.4975 45.5381 70.2912 45.5351C70.0848 45.5322 69.8785 45.5293 69.6722 45.5264C68.8881 45.5153 68.0109 45.6845 67.0405 46.034C66.1115 46.384 65.3902 47.0639 64.8768 48.0737C63.705 50.4543 62.5554 53.1622 61.4279 56.1972C60.3046 59.1597 59.2184 62.1954 58.1691 65.3042C57.1242 68.3404 56.1311 71.1958 55.1899 73.8703C54.9411 74.5932 54.4726 75.8941 53.7845 77.7731C53.1005 79.5795 52.3378 81.6754 51.4961 84.0607C50.6586 86.3735 49.8625 88.6868 49.1076 91.0007C48.3527 93.3146 47.7364 95.3762 47.2589 97.1856C46.8225 98.9955 46.6678 100.228 46.7946 100.884C46.8317 100.957 46.8459 101.066 46.8374 101.211C46.8247 101.429 46.7564 101.537 46.6326 101.535C46.3025 101.531 45.9809 101.381 45.6677 101.086C45.3546 100.791 44.971 100.64 44.5171 100.634C44.1045 100.628 43.6812 100.803 43.2473 101.16C42.8176 101.445 42.2493 101.982 41.5423 102.771C40.8354 103.56 40.0544 104.203 39.1993 104.699C39.1125 104.77 38.9866 104.805 38.8215 104.803C38.5327 104.799 38.3142 104.65 38.1661 104.358C38.0138 104.137 38.0244 103.956 38.198 103.813C39.1228 103.536 39.9409 102.966 40.6521 102.104C41.3676 101.17 41.972 100.016 42.4653 98.6432C43.4806 96.1151 44.4752 93.5866 45.4491 91.0579C46.4686 88.4571 47.4469 85.8558 48.3838 83.2539C49.5198 80.0737 50.6764 76.8937 51.8537 73.7141C53.0352 70.4619 54.2146 67.2459 55.3919 64.0663C56.5151 61.1038 57.5288 58.2487 58.433 55.5011C59.3372 52.7534 60.0111 50.7653 60.4547 49.5366C60.7988 48.5971 61.3428 47.7694 62.0868 47.0535C62.8763 46.2656 63.6346 45.6589 64.3616 45.2333C64.114 45.2298 63.8664 45.2263 63.6188 45.2228C63.3754 45.1467 63.1093 45.1066 62.8205 45.1025C61.5412 45.0844 60.1297 45.2097 58.5859 45.4784C57.0875 45.6751 55.6013 46.0173 54.1273 46.505C52.6945 46.9932 51.4162 47.6652 50.2923 48.521C49.1684 49.3768 48.3847 50.4191 47.9411 51.6477C47.7378 52.2987 47.5551 52.9499 47.3931 53.6014C47.2311 54.2529 47.131 54.9052 47.0927 55.5585C46.9951 57.2279 47.2551 58.4302 47.8729 59.1654C47.9142 59.166 47.9305 59.2388 47.9221 59.384C47.9136 59.5292 47.8225 59.6732 47.649 59.816C47.5167 59.9594 47.4114 59.9942 47.3331 59.9205C46.9417 59.5517 46.5181 58.674 46.0623 57.2873C45.6521 55.8287 45.392 54.6264 45.2822 53.6804C45.2093 52.8077 45.1942 52.0084 45.2366 51.2826C45.3471 49.3954 45.7828 47.9487 46.5438 46.9425C47.309 45.8636 48.2408 45.1141 49.3392 44.6938C50.4419 44.2009 51.5524 43.926 52.6708 43.8692C53.8348 43.7404 54.85 43.6821 55.7166 43.6944C57.0371 43.7131 58.6053 43.7353 60.421 43.761C62.2409 43.7141 63.9143 43.7014 65.4412 43.7231C65.8126 43.7283 66.2252 43.7341 66.6791 43.7406C67.1373 43.6744 67.614 43.6448 68.1092 43.6518C69.2234 43.6676 70.3725 43.7929 71.5564 44.0275C72.7404 44.2622 73.8063 44.7495 74.7543 45.4893C75.7022 46.2292 76.3998 47.365 76.847 48.8969C77.4296 50.9392 77.6445 53.2668 77.4916 55.8798C77.258 59.8719 76.4643 63.2022 75.1104 65.8709C74.6425 66.8086 74.1355 67.7095 73.5893 68.5735C73.0432 69.4375 72.4166 70.264 71.7096 71.0531C70.5603 72.3444 69.2152 73.4513 67.6744 74.3739C66.1379 75.2239 64.5521 75.8552 62.9173 76.2679C61.3237 76.6812 59.8624 76.9511 58.5334 77.0776C58.9509 79.1175 59.5963 81.8508 60.4696 85.2774C61.3842 88.7046 62.5257 92.135 63.8942 95.5686C64.6134 97.3949 65.385 98.677 66.2091 99.4151C67.0332 100.153 67.8579 100.528 68.6833 100.54C70.0038 100.559 71.2821 99.8865 72.5183 98.5237C73.7957 97.1616 74.962 95.58 76.0173 93.7788C77.1181 91.9057 77.9978 90.2836 78.6562 88.9127C78.8012 88.5516 78.915 88.3716 78.9975 88.3727C79.1213 88.3745 79.1705 88.5931 79.145 89.0286C79.111 89.6093 78.9532 90.1882 78.6717 90.7654C76.5059 95.3112 74.4757 98.951 72.5811 101.685C70.6908 104.346 68.879 105.664 67.1459 105.639Z" stroke="#8F8888" stroke-width="76" stroke-linejoin="round" mask="url(#path-1-outside-1_124_122)"/>
<path d="M107.581 62.0808C107.003 62.0727 106.61 61.7402 106.401 61.0834C106.257 60.7182 106.202 60.2452 106.236 59.6646C106.304 58.5032 106.668 57.564 107.33 56.847C107.809 56.4179 108.235 56.206 108.606 56.2112C109.225 56.22 109.639 56.5527 109.849 57.2095C109.992 57.5748 110.047 58.0477 110.013 58.6284C109.945 59.7897 109.56 60.7286 108.857 61.4451C108.461 61.8754 108.035 62.0873 107.581 62.0808ZM94.358 103.845C93.9453 103.839 93.6031 103.689 93.3312 103.395C93.1006 103.101 93.0086 102.555 93.0554 101.757C93.1148 100.74 93.3293 99.5448 93.6989 98.1698C94.1097 96.7953 94.5412 95.4212 94.9933 94.0474C95.4866 92.6742 95.862 91.5535 96.1193 90.6854C96.4676 89.6733 96.8948 88.3718 97.4009 86.7808C97.9525 85.1178 98.4565 83.5631 98.9128 82.1167C99.4147 80.5983 99.7651 79.5499 99.9642 78.9716C99.3227 80.0522 98.5405 81.4213 97.6175 83.0791C96.74 84.6648 95.9059 86.2148 95.1152 87.7292C94.3245 89.2435 93.7179 90.4335 93.2956 91.2992C93.1548 91.5878 93.0431 91.7315 92.9606 91.7304C92.8781 91.7292 92.8474 91.5471 92.8686 91.1842C92.9026 90.6036 93.0376 90.0607 93.2737 89.5555C94.1597 87.8246 95.141 85.8771 96.2175 83.713C97.3353 81.5496 98.3393 79.5661 99.2295 77.7626C100.124 75.8865 100.691 74.6596 100.932 74.0819C101.394 73.9431 102.067 73.7347 102.951 73.4566C103.876 73.1792 104.518 72.7887 104.878 72.2853C105.014 72.0693 105.144 71.9622 105.268 71.9639C105.351 71.9651 105.384 72.1109 105.367 72.4012C105.395 72.6195 105.339 72.873 105.198 73.1616C104.921 73.6661 104.415 74.8939 103.682 76.8449C102.948 78.7959 102.16 80.9641 101.319 83.3494C100.523 85.6627 99.7804 87.7589 99.0922 89.6378C98.3998 91.5894 97.7942 93.4696 97.2754 95.2783C96.7565 97.0871 96.4737 98.3906 96.427 99.1891C96.3676 100.205 96.6267 100.717 97.2044 100.726C97.7409 100.733 98.4557 100.162 99.349 99.0125C100.284 97.8634 101.231 96.4966 102.191 94.912C103.155 93.2549 104.008 91.7414 104.749 90.3717C104.981 89.9391 105.258 89.4345 105.581 88.858C105.949 88.2094 106.179 87.8131 106.27 87.6691C106.344 87.8154 106.37 88.0701 106.349 88.433C106.278 88.9405 106.145 89.4471 105.95 89.9529C105.76 90.386 105.571 90.7829 105.385 91.1435C104.408 93.0184 103.344 94.9647 102.194 96.9824C101.047 98.9276 99.8148 100.581 98.4961 101.942C97.1817 103.231 95.8023 103.866 94.358 103.845Z" stroke="black" stroke-width="76" stroke-linejoin="round" mask="url(#path-1-outside-1_124_122)"/>
<path d="M107.581 62.0808C107.003 62.0727 106.61 61.7402 106.401 61.0834C106.257 60.7182 106.202 60.2452 106.236 59.6646C106.304 58.5032 106.668 57.564 107.33 56.847C107.809 56.4179 108.235 56.206 108.606 56.2112C109.225 56.22 109.639 56.5527 109.849 57.2095C109.992 57.5748 110.047 58.0477 110.013 58.6284C109.945 59.7897 109.56 60.7286 108.857 61.4451C108.461 61.8754 108.035 62.0873 107.581 62.0808ZM94.358 103.845C93.9453 103.839 93.6031 103.689 93.3312 103.395C93.1006 103.101 93.0086 102.555 93.0554 101.757C93.1148 100.74 93.3293 99.5448 93.6989 98.1698C94.1097 96.7953 94.5412 95.4212 94.9933 94.0474C95.4866 92.6742 95.862 91.5535 96.1193 90.6854C96.4676 89.6733 96.8948 88.3718 97.4009 86.7808C97.9525 85.1178 98.4565 83.5631 98.9128 82.1167C99.4147 80.5983 99.7651 79.5499 99.9642 78.9716C99.3227 80.0522 98.5405 81.4213 97.6175 83.0791C96.74 84.6648 95.9059 86.2148 95.1152 87.7292C94.3245 89.2435 93.7179 90.4335 93.2956 91.2992C93.1548 91.5878 93.0431 91.7315 92.9606 91.7304C92.8781 91.7292 92.8474 91.5471 92.8686 91.1842C92.9026 90.6036 93.0376 90.0607 93.2737 89.5555C94.1597 87.8246 95.141 85.8771 96.2175 83.713C97.3353 81.5496 98.3393 79.5661 99.2295 77.7626C100.124 75.8865 100.691 74.6596 100.932 74.0819C101.394 73.9431 102.067 73.7347 102.951 73.4566C103.876 73.1792 104.518 72.7887 104.878 72.2853C105.014 72.0693 105.144 71.9622 105.268 71.9639C105.351 71.9651 105.384 72.1109 105.367 72.4012C105.395 72.6195 105.339 72.873 105.198 73.1616C104.921 73.6661 104.415 74.8939 103.682 76.8449C102.948 78.7959 102.16 80.9641 101.319 83.3494C100.523 85.6627 99.7804 87.7589 99.0922 89.6378C98.3998 91.5894 97.7942 93.4696 97.2754 95.2783C96.7565 97.0871 96.4737 98.3906 96.427 99.1891C96.3676 100.205 96.6267 100.717 97.2044 100.726C97.7409 100.733 98.4557 100.162 99.349 99.0125C100.284 97.8634 101.231 96.4966 102.191 94.912C103.155 93.2549 104.008 91.7414 104.749 90.3717C104.981 89.9391 105.258 89.4345 105.581 88.858C105.949 88.2094 106.179 87.8131 106.27 87.6691C106.344 87.8154 106.37 88.0701 106.349 88.433C106.278 88.9405 106.145 89.4471 105.95 89.9529C105.76 90.386 105.571 90.7829 105.385 91.1435C104.408 93.0184 103.344 94.9647 102.194 96.9824C101.047 98.9276 99.8148 100.581 98.4961 101.942C97.1817 103.231 95.8023 103.866 94.358 103.845Z" stroke="#8F8888" stroke-width="76" stroke-linejoin="round" mask="url(#path-1-outside-1_124_122)"/>
<path d="M134.345 62.4597C133.768 62.4515 133.374 62.119 133.165 61.4623C133.021 61.097 132.966 60.6241 133 60.0434C133.068 58.8821 133.433 57.9429 134.094 57.2258C134.573 56.7967 134.999 56.5848 135.37 56.5901C135.989 56.5988 136.403 56.9316 136.613 57.5883C136.757 57.9536 136.812 58.4265 136.778 59.0072C136.71 60.1685 136.324 61.1075 135.622 61.8239C135.225 62.2542 134.799 62.4661 134.345 62.4597ZM121.122 104.224C120.709 104.218 120.367 104.068 120.095 103.774C119.865 103.48 119.773 102.934 119.819 102.135C119.879 101.119 120.093 99.9236 120.463 98.5486C120.874 97.1742 121.305 95.8001 121.757 94.4262C122.251 93.053 122.626 91.9323 122.883 91.0642C123.232 90.0522 123.659 88.7506 124.165 87.1596C124.717 85.4966 125.221 83.9419 125.677 82.4955C126.179 80.9771 126.529 79.9288 126.728 79.3504C126.087 80.431 125.305 81.8002 124.382 83.4579C123.504 85.0436 122.67 86.5937 121.879 88.108C121.089 89.6223 120.482 90.8123 120.06 91.6781C119.919 91.9667 119.807 92.1104 119.725 92.1092C119.642 92.108 119.612 91.926 119.633 91.5631C119.667 90.9824 119.802 90.4395 120.038 89.9343C120.924 88.2034 121.905 86.2559 122.982 84.0919C124.099 81.9284 125.103 79.9449 125.994 78.1414C126.888 76.2653 127.456 75.0384 127.696 74.4607C128.158 74.3219 128.831 74.1135 129.715 73.8355C130.64 73.558 131.282 73.1675 131.642 72.6641C131.778 72.4481 131.909 72.341 132.032 72.3428C132.115 72.3439 132.148 72.4897 132.131 72.78C132.159 72.9984 132.103 73.2518 131.962 73.5404C131.685 74.045 131.18 75.2728 130.446 77.2237C129.712 79.1747 128.924 81.3429 128.083 83.7282C127.287 86.0415 126.544 88.1377 125.856 90.0167C125.164 91.9683 124.558 93.8484 124.039 95.6571C123.521 97.4659 123.238 98.7695 123.191 99.5679C123.132 100.584 123.391 101.096 123.969 101.104C124.505 101.112 125.22 100.541 126.113 99.3913C127.048 98.2423 127.995 96.8754 128.955 95.2909C129.919 93.6337 130.772 92.1203 131.513 90.7505C131.745 90.3179 132.022 89.8134 132.345 89.2368C132.713 88.5882 132.943 88.1919 133.034 88.0479C133.108 88.1943 133.134 88.4489 133.113 88.8118C133.042 89.3193 132.909 89.8259 132.714 90.3317C132.524 90.7648 132.335 91.1617 132.149 91.5223C131.172 93.3972 130.108 95.3435 128.958 97.3612C127.811 99.3064 126.579 100.96 125.26 102.321C123.946 103.61 122.566 104.245 121.122 104.224Z" stroke="black" stroke-width="76" stroke-linejoin="round" mask="url(#path-1-outside-1_124_122)"/>
<path d="M134.345 62.4597C133.768 62.4515 133.374 62.119 133.165 61.4623C133.021 61.097 132.966 60.6241 133 60.0434C133.068 58.8821 133.433 57.9429 134.094 57.2258C134.573 56.7967 134.999 56.5848 135.37 56.5901C135.989 56.5988 136.403 56.9316 136.613 57.5883C136.757 57.9536 136.812 58.4265 136.778 59.0072C136.71 60.1685 136.324 61.1075 135.622 61.8239C135.225 62.2542 134.799 62.4661 134.345 62.4597ZM121.122 104.224C120.709 104.218 120.367 104.068 120.095 103.774C119.865 103.48 119.773 102.934 119.819 102.135C119.879 101.119 120.093 99.9236 120.463 98.5486C120.874 97.1742 121.305 95.8001 121.757 94.4262C122.251 93.053 122.626 91.9323 122.883 91.0642C123.232 90.0522 123.659 88.7506 124.165 87.1596C124.717 85.4966 125.221 83.9419 125.677 82.4955C126.179 80.9771 126.529 79.9288 126.728 79.3504C126.087 80.431 125.305 81.8002 124.382 83.4579C123.504 85.0436 122.67 86.5937 121.879 88.108C121.089 89.6223 120.482 90.8123 120.06 91.6781C119.919 91.9667 119.807 92.1104 119.725 92.1092C119.642 92.108 119.612 91.926 119.633 91.5631C119.667 90.9824 119.802 90.4395 120.038 89.9343C120.924 88.2034 121.905 86.2559 122.982 84.0919C124.099 81.9284 125.103 79.9449 125.994 78.1414C126.888 76.2653 127.456 75.0384 127.696 74.4607C128.158 74.3219 128.831 74.1135 129.715 73.8355C130.64 73.558 131.282 73.1675 131.642 72.6641C131.778 72.4481 131.909 72.341 132.032 72.3428C132.115 72.3439 132.148 72.4897 132.131 72.78C132.159 72.9984 132.103 73.2518 131.962 73.5404C131.685 74.045 131.18 75.2728 130.446 77.2237C129.712 79.1747 128.924 81.3429 128.083 83.7282C127.287 86.0415 126.544 88.1377 125.856 90.0167C125.164 91.9683 124.558 93.8484 124.039 95.6571C123.521 97.4659 123.238 98.7695 123.191 99.5679C123.132 100.584 123.391 101.096 123.969 101.104C124.505 101.112 125.22 100.541 126.113 99.3913C127.048 98.2423 127.995 96.8754 128.955 95.2909C129.919 93.6337 130.772 92.1203 131.513 90.7505C131.745 90.3179 132.022 89.8134 132.345 89.2368C132.713 88.5882 132.943 88.1919 133.034 88.0479C133.108 88.1943 133.134 88.4489 133.113 88.8118C133.042 89.3193 132.909 89.8259 132.714 90.3317C132.524 90.7648 132.335 91.1617 132.149 91.5223C131.172 93.3972 130.108 95.3435 128.958 97.3612C127.811 99.3064 126.579 100.96 125.26 102.321C123.946 103.61 122.566 104.245 121.122 104.224Z" stroke="#8F8888" stroke-width="76" stroke-linejoin="round" mask="url(#path-1-outside-1_124_122)"/>
<path d="M149.413 106.041C148.67 106.031 147.897 105.838 147.092 105.463C146.288 105.089 145.58 104.498 144.966 103.69C144.398 102.81 144.053 101.643 143.932 100.188C143.903 99.97 143.902 99.6431 143.927 99.2076C143.987 98.1914 144.176 97.0682 144.496 95.8377C144.857 94.6079 145.259 93.7419 145.701 93.2396C145.875 93.0968 145.999 93.0985 146.073 93.2449C146.188 93.3918 146.2 93.5373 146.109 93.6813C146.055 93.8984 145.976 94.1879 145.873 94.5496C145.773 94.8388 145.692 95.1646 145.63 95.5269C145.395 97.4123 145.525 99.0849 146.017 100.545C146.231 101.129 146.488 101.677 146.788 102.19C147.13 102.704 147.455 103.144 147.764 103.512C148.036 103.806 148.374 104.029 148.778 104.18C149.187 104.258 149.597 104.3 150.01 104.306C150.67 104.315 151.318 104.179 151.954 103.898C152.59 103.616 153.072 103.151 153.399 102.502C154.003 101.348 154.348 100.045 154.433 98.5935C154.497 97.5048 154.399 96.3411 154.142 95.1025C153.884 93.8639 153.444 92.5502 152.823 91.1611C152.42 90.2837 152.042 89.334 151.689 88.312C151.336 87.29 151.131 86.1974 151.076 85.0343C151.047 84.816 151.019 84.5977 150.99 84.3793C151.003 84.1616 151.016 83.9438 151.028 83.7261C150.411 85.0976 149.778 86.3962 149.128 87.6219C148.523 88.7757 147.989 89.7851 147.526 90.6503C147.335 91.0834 147.178 91.2992 147.054 91.2974C146.972 91.2962 146.939 91.1505 146.956 90.8602C146.994 90.2069 147.199 89.5197 147.572 88.7985C147.94 88.15 148.358 87.3568 148.826 86.4191C149.298 85.4087 149.675 84.615 149.957 84.0378C150.765 82.2332 151.363 80.8251 151.753 79.8136C152.188 78.7301 152.637 77.7558 153.101 76.8906C153.61 75.9535 154.212 75.1992 154.906 74.6279C155.642 74.0572 156.381 73.7771 157.123 73.7876C157.99 73.7998 158.759 74.065 159.431 74.583C160.148 75.029 160.472 76.1959 160.403 78.0836C160.352 78.9546 160.196 79.8605 159.934 80.8011C159.718 81.6698 159.484 82.5019 159.231 83.2974C159.082 83.7311 158.877 84.0551 158.616 84.2694C158.402 84.4116 158.303 84.3376 158.32 84.0472C158.337 83.7569 158.376 83.4306 158.439 83.0682C158.501 82.7059 158.541 82.3796 158.558 82.0892C158.63 80.8553 158.57 79.7648 158.378 78.8177C158.231 77.7986 157.964 77.0684 157.577 76.6271C157.194 76.1131 156.775 75.853 156.321 75.8465C155.661 75.8372 154.994 76.2999 154.32 77.2348C153.65 78.097 153.272 79.254 153.187 80.7056C153.179 80.8508 153.168 81.0322 153.156 81.25C153.143 81.4678 153.153 81.6495 153.186 81.7953C153.283 82.9589 153.701 84.2724 154.442 85.7358C155.182 87.1991 155.748 88.4784 156.138 89.5736C156.811 91.4718 157.091 93.4008 156.976 95.3606C156.862 97.3203 156.425 99.1303 155.667 100.79C154.955 102.378 154.035 103.637 152.906 104.565C151.815 105.567 150.651 106.059 149.413 106.041Z" stroke="black" stroke-width="76" stroke-linejoin="round" mask="url(#path-1-outside-1_124_122)"/>
<path d="M149.413 106.041C148.67 106.031 147.897 105.838 147.092 105.463C146.288 105.089 145.58 104.498 144.966 103.69C144.398 102.81 144.053 101.643 143.932 100.188C143.903 99.97 143.902 99.6431 143.927 99.2076C143.987 98.1914 144.176 97.0682 144.496 95.8377C144.857 94.6079 145.259 93.7419 145.701 93.2396C145.875 93.0968 145.999 93.0985 146.073 93.2449C146.188 93.3918 146.2 93.5373 146.109 93.6813C146.055 93.8984 145.976 94.1879 145.873 94.5496C145.773 94.8388 145.692 95.1646 145.63 95.5269C145.395 97.4123 145.525 99.0849 146.017 100.545C146.231 101.129 146.488 101.677 146.788 102.19C147.13 102.704 147.455 103.144 147.764 103.512C148.036 103.806 148.374 104.029 148.778 104.18C149.187 104.258 149.597 104.3 150.01 104.306C150.67 104.315 151.318 104.179 151.954 103.898C152.59 103.616 153.072 103.151 153.399 102.502C154.003 101.348 154.348 100.045 154.433 98.5935C154.497 97.5048 154.399 96.3411 154.142 95.1025C153.884 93.8639 153.444 92.5502 152.823 91.1611C152.42 90.2837 152.042 89.334 151.689 88.312C151.336 87.29 151.131 86.1974 151.076 85.0343C151.047 84.816 151.019 84.5977 150.99 84.3793C151.003 84.1616 151.016 83.9438 151.028 83.7261C150.411 85.0976 149.778 86.3962 149.128 87.6219C148.523 88.7757 147.989 89.7851 147.526 90.6503C147.335 91.0834 147.178 91.2992 147.054 91.2974C146.972 91.2962 146.939 91.1505 146.956 90.8602C146.994 90.2069 147.199 89.5197 147.572 88.7985C147.94 88.15 148.358 87.3568 148.826 86.4191C149.298 85.4087 149.675 84.615 149.957 84.0378C150.765 82.2332 151.363 80.8251 151.753 79.8136C152.188 78.7301 152.637 77.7558 153.101 76.8906C153.61 75.9535 154.212 75.1992 154.906 74.6279C155.642 74.0572 156.381 73.7771 157.123 73.7876C157.99 73.7998 158.759 74.065 159.431 74.583C160.148 75.029 160.472 76.1959 160.403 78.0836C160.352 78.9546 160.196 79.8605 159.934 80.8011C159.718 81.6698 159.484 82.5019 159.231 83.2974C159.082 83.7311 158.877 84.0551 158.616 84.2694C158.402 84.4116 158.303 84.3376 158.32 84.0472C158.337 83.7569 158.376 83.4306 158.439 83.0682C158.501 82.7059 158.541 82.3796 158.558 82.0892C158.63 80.8553 158.57 79.7648 158.378 78.8177C158.231 77.7986 157.964 77.0684 157.577 76.6271C157.194 76.1131 156.775 75.853 156.321 75.8465C155.661 75.8372 154.994 76.2999 154.32 77.2348C153.65 78.097 153.272 79.254 153.187 80.7056C153.179 80.8508 153.168 81.0322 153.156 81.25C153.143 81.4678 153.153 81.6495 153.186 81.7953C153.283 82.9589 153.701 84.2724 154.442 85.7358C155.182 87.1991 155.748 88.4784 156.138 89.5736C156.811 91.4718 157.091 93.4008 156.976 95.3606C156.862 97.3203 156.425 99.1303 155.667 100.79C154.955 102.378 154.035 103.637 152.906 104.565C151.815 105.567 150.651 106.059 149.413 106.041Z" stroke="#8F8888" stroke-width="76" stroke-linejoin="round" mask="url(#path-1-outside-1_124_122)"/>
<path d="M186.091 105.362C185.06 105.347 184.312 104.719 183.847 103.477C183.568 102.602 183.315 101.291 183.086 99.5439C182.858 97.7973 182.676 95.9786 182.538 94.0879C182.401 92.1973 182.284 90.6701 182.187 89.5064C180.879 92.1031 179.694 94.7015 178.633 97.3016C177.614 99.9023 176.917 101.927 176.543 103.374C176.435 103.808 176.125 104.167 175.613 104.451C175.142 104.734 174.68 104.873 174.226 104.867C173.566 104.857 173.339 104.491 173.547 103.768C175.119 98.7774 176.619 93.9678 178.046 89.3388C179.473 84.7099 180.965 80.0455 182.52 75.3457C184.117 70.6464 185.889 65.7681 187.837 60.7106C189.209 57.0252 190.799 53.4882 192.608 50.0995C194.463 46.6389 196.382 43.833 198.367 41.6818C200.355 39.458 202.299 38.3595 204.197 38.3864C204.816 38.3951 205.377 38.6936 205.879 39.2819C206.382 39.8702 206.597 40.7812 206.525 42.0152L206.34 45.1725C206.323 45.4629 206.191 45.6063 205.943 45.6028C205.819 45.601 205.762 45.5276 205.77 45.3824C205.838 44.2211 205.594 43.4549 205.037 43.0838C204.485 42.6401 203.941 42.4144 203.404 42.4069C201.96 42.3864 200.465 42.8738 198.92 43.8689C197.202 45.0069 195.717 46.7293 194.467 49.0362C193.217 51.3431 192.041 53.7963 190.939 56.3959C189.506 59.7172 188.059 63.6195 186.599 68.1027C185.143 72.5134 183.768 76.9615 182.473 81.447C181.219 85.9332 180.094 89.9853 179.098 93.6034C179.611 92.5936 180.124 91.5839 180.638 90.5741C181.151 89.5644 181.64 88.6269 182.103 87.7618C182.112 87.6166 182.1 87.4712 182.067 87.3254C182.075 87.1802 182.084 87.0351 182.092 86.8899C182.122 86.3818 182.209 85.9472 182.354 85.586C182.499 85.2249 182.69 84.7917 182.926 84.2865C183.257 83.5648 183.557 83.0242 183.826 82.6648C184.099 82.2328 184.399 81.6922 184.727 81.0431L184.804 82.8966C186.811 79.656 188.538 77.3196 189.984 75.8872C190.993 74.8844 191.951 74.3895 192.859 74.4023C193.767 74.4152 194.185 75.0386 194.112 76.2725C194.053 77.2887 193.69 78.5548 193.023 80.0708C192.787 80.576 192.642 80.9372 192.588 81.1543C192.534 81.3715 192.438 81.5881 192.302 81.8041C192.256 81.8761 192.174 81.8749 192.054 81.8006C191.935 81.7262 191.879 81.6165 191.888 81.4713C191.939 80.6003 191.806 80.0536 191.488 79.8312C191.175 79.5362 190.812 79.3858 190.399 79.3799C189.615 79.3688 188.74 79.8649 187.772 80.8682C186.851 81.7996 185.887 83.0935 184.881 84.7501C184.982 86.5676 185.092 88.5668 185.212 90.7478C185.378 92.8569 185.572 94.821 185.796 96.6402C186.02 98.4595 186.251 99.8067 186.489 100.682C186.661 101.265 186.927 101.669 187.286 101.892C187.648 102.042 187.954 102.119 188.201 102.123C188.779 102.131 189.469 101.632 190.271 100.626C191.119 99.5487 191.977 98.2896 192.846 96.849C193.761 95.3364 194.591 93.859 195.336 92.4167C196.122 90.9749 196.727 89.8212 197.149 88.9554C197.293 89.3207 197.313 89.6842 197.209 90.0459C197.143 90.4809 196.991 90.9509 196.755 91.4561C196.565 91.8892 196.376 92.2861 196.19 92.6467C195.258 94.4496 194.263 96.2879 193.203 98.1616C192.148 99.9628 191.041 101.582 189.884 103.018C189.391 103.665 188.8 104.238 188.11 104.736C187.425 105.163 186.752 105.371 186.091 105.362Z" stroke="black" stroke-width="76" stroke-linejoin="round" mask="url(#path-1-outside-1_124_122)"/>
<path d="M186.091 105.362C185.06 105.347 184.312 104.719 183.847 103.477C183.568 102.602 183.315 101.291 183.086 99.5439C182.858 97.7973 182.676 95.9786 182.538 94.0879C182.401 92.1973 182.284 90.6701 182.187 89.5064C180.879 92.1031 179.694 94.7015 178.633 97.3016C177.614 99.9023 176.917 101.927 176.543 103.374C176.435 103.808 176.125 104.167 175.613 104.451C175.142 104.734 174.68 104.873 174.226 104.867C173.566 104.857 173.339 104.491 173.547 103.768C175.119 98.7774 176.619 93.9678 178.046 89.3388C179.473 84.7099 180.965 80.0455 182.52 75.3457C184.117 70.6464 185.889 65.7681 187.837 60.7106C189.209 57.0252 190.799 53.4882 192.608 50.0995C194.463 46.6389 196.382 43.833 198.367 41.6818C200.355 39.458 202.299 38.3595 204.197 38.3864C204.816 38.3951 205.377 38.6936 205.879 39.2819C206.382 39.8702 206.597 40.7812 206.525 42.0152L206.34 45.1725C206.323 45.4629 206.191 45.6063 205.943 45.6028C205.819 45.601 205.762 45.5276 205.77 45.3824C205.838 44.2211 205.594 43.4549 205.037 43.0838C204.485 42.6401 203.941 42.4144 203.404 42.4069C201.96 42.3864 200.465 42.8738 198.92 43.8689C197.202 45.0069 195.717 46.7293 194.467 49.0362C193.217 51.3431 192.041 53.7963 190.939 56.3959C189.506 59.7172 188.059 63.6195 186.599 68.1027C185.143 72.5134 183.768 76.9615 182.473 81.447C181.219 85.9332 180.094 89.9853 179.098 93.6034C179.611 92.5936 180.124 91.5839 180.638 90.5741C181.151 89.5644 181.64 88.6269 182.103 87.7618C182.112 87.6166 182.1 87.4712 182.067 87.3254C182.075 87.1802 182.084 87.0351 182.092 86.8899C182.122 86.3818 182.209 85.9472 182.354 85.586C182.499 85.2249 182.69 84.7917 182.926 84.2865C183.257 83.5648 183.557 83.0242 183.826 82.6648C184.099 82.2328 184.399 81.6922 184.727 81.0431L184.804 82.8966C186.811 79.656 188.538 77.3196 189.984 75.8872C190.993 74.8844 191.951 74.3895 192.859 74.4023C193.767 74.4152 194.185 75.0386 194.112 76.2725C194.053 77.2887 193.69 78.5548 193.023 80.0708C192.787 80.576 192.642 80.9372 192.588 81.1543C192.534 81.3715 192.438 81.5881 192.302 81.8041C192.256 81.8761 192.174 81.8749 192.054 81.8006C191.935 81.7262 191.879 81.6165 191.888 81.4713C191.939 80.6003 191.806 80.0536 191.488 79.8312C191.175 79.5362 190.812 79.3858 190.399 79.3799C189.615 79.3688 188.74 79.8649 187.772 80.8682C186.851 81.7996 185.887 83.0935 184.881 84.7501C184.982 86.5676 185.092 88.5668 185.212 90.7478C185.378 92.8569 185.572 94.821 185.796 96.6402C186.02 98.4595 186.251 99.8067 186.489 100.682C186.661 101.265 186.927 101.669 187.286 101.892C187.648 102.042 187.954 102.119 188.201 102.123C188.779 102.131 189.469 101.632 190.271 100.626C191.119 99.5487 191.977 98.2896 192.846 96.849C193.761 95.3364 194.591 93.859 195.336 92.4167C196.122 90.9749 196.727 89.8212 197.149 88.9554C197.293 89.3207 197.313 89.6842 197.209 90.0459C197.143 90.4809 196.991 90.9509 196.755 91.4561C196.565 91.8892 196.376 92.2861 196.19 92.6467C195.258 94.4496 194.263 96.2879 193.203 98.1616C192.148 99.9628 191.041 101.582 189.884 103.018C189.391 103.665 188.8 104.238 188.11 104.736C187.425 105.163 186.752 105.371 186.091 105.362Z" stroke="#8F8888" stroke-width="76" stroke-linejoin="round" mask="url(#path-1-outside-1_124_122)"/>
<path d="M218.367 105.601C217.954 105.595 217.612 105.445 217.34 105.15C217.068 104.856 216.956 104.309 217.003 103.511C217.062 102.495 217.274 101.335 217.64 100.033C218.005 98.7306 218.409 97.4651 218.853 96.2364C219.301 94.9352 219.693 93.8874 220.028 93.0931C218.427 95.7582 216.772 98.2773 215.064 100.65C214.212 101.801 213.281 102.877 212.273 103.88C211.264 104.883 210.223 105.376 209.15 105.361C208.738 105.355 208.462 105.133 208.322 104.696C208.187 104.185 208.138 103.603 208.176 102.95C208.198 102.587 208.233 102.333 208.283 102.189C208.655 99.361 209.343 96.4287 210.346 93.3919C211.35 90.3551 212.529 87.5023 213.883 84.8337C215.237 82.165 216.581 80.0048 217.917 78.3529C219.431 76.4856 221.033 75.5639 222.725 75.5878L229.844 75.6886C230.05 75.6915 230.145 75.8381 230.128 76.1285C230.094 76.7091 229.891 76.9968 229.52 76.9916C229.107 76.9857 228.667 77.4517 228.199 78.3894C227.735 79.2546 227.383 79.976 227.143 80.5538C226.807 81.3481 226.275 82.6845 225.545 84.5629C224.816 86.4413 224.055 88.5009 223.263 90.7416C222.517 92.9103 221.862 94.9351 221.297 96.8158C220.733 98.6966 220.425 100.072 220.374 100.943C220.315 101.96 220.574 102.472 221.152 102.48C221.771 102.489 222.502 101.991 223.345 100.985C224.189 99.9804 225.045 98.7576 225.914 97.317C226.829 95.8045 227.659 94.327 228.404 92.8847C229.194 91.3704 229.822 90.1806 230.285 89.3155C230.507 89.7545 230.451 90.3712 230.115 91.1655C229.825 91.8878 229.564 92.4653 229.332 92.8978C228.396 94.7733 227.333 96.7196 226.141 98.7368C224.953 100.681 223.679 102.334 222.319 103.695C221.005 104.984 219.688 105.619 218.367 105.601ZM211.905 101.695C212.4 101.702 213.117 101.095 214.056 99.8733C215.04 98.5797 216.103 96.9966 217.245 95.124C218.392 93.1789 219.481 91.1602 220.512 89.0682C221.547 86.9035 222.404 84.9543 223.084 83.2205C223.809 81.4146 224.199 80.0399 224.254 79.0964C224.301 78.2979 224.189 77.7515 223.917 77.4571C223.686 77.1633 223.365 77.0134 222.952 77.0076C222.292 76.9982 221.544 77.4235 220.709 78.2834C219.919 79.0713 219.274 79.8613 218.774 80.6533C218.232 81.4447 217.559 82.7064 216.756 84.4385C215.998 86.0986 215.229 87.9401 214.45 89.9631C213.671 91.9861 212.999 93.9379 212.435 95.8187C211.87 97.6994 211.554 99.2204 211.486 100.382C211.435 101.253 211.575 101.691 211.905 101.695Z" stroke="black" stroke-width="76" stroke-linejoin="round" mask="url(#path-1-outside-1_124_122)"/>
<path d="M218.367 105.601C217.954 105.595 217.612 105.445 217.34 105.15C217.068 104.856 216.956 104.309 217.003 103.511C217.062 102.495 217.274 101.335 217.64 100.033C218.005 98.7306 218.409 97.4651 218.853 96.2364C219.301 94.9352 219.693 93.8874 220.028 93.0931C218.427 95.7582 216.772 98.2773 215.064 100.65C214.212 101.801 213.281 102.877 212.273 103.88C211.264 104.883 210.223 105.376 209.15 105.361C208.738 105.355 208.462 105.133 208.322 104.696C208.187 104.185 208.138 103.603 208.176 102.95C208.198 102.587 208.233 102.333 208.283 102.189C208.655 99.361 209.343 96.4287 210.346 93.3919C211.35 90.3551 212.529 87.5023 213.883 84.8337C215.237 82.165 216.581 80.0048 217.917 78.3529C219.431 76.4856 221.033 75.5639 222.725 75.5878L229.844 75.6886C230.05 75.6915 230.145 75.8381 230.128 76.1285C230.094 76.7091 229.891 76.9968 229.52 76.9916C229.107 76.9857 228.667 77.4517 228.199 78.3894C227.735 79.2546 227.383 79.976 227.143 80.5538C226.807 81.3481 226.275 82.6845 225.545 84.5629C224.816 86.4413 224.055 88.5009 223.263 90.7416C222.517 92.9103 221.862 94.9351 221.297 96.8158C220.733 98.6966 220.425 100.072 220.374 100.943C220.315 101.96 220.574 102.472 221.152 102.48C221.771 102.489 222.502 101.991 223.345 100.985C224.189 99.9804 225.045 98.7576 225.914 97.317C226.829 95.8045 227.659 94.327 228.404 92.8847C229.194 91.3704 229.822 90.1806 230.285 89.3155C230.507 89.7545 230.451 90.3712 230.115 91.1655C229.825 91.8878 229.564 92.4653 229.332 92.8978C228.396 94.7733 227.333 96.7196 226.141 98.7368C224.953 100.681 223.679 102.334 222.319 103.695C221.005 104.984 219.688 105.619 218.367 105.601ZM211.905 101.695C212.4 101.702 213.117 101.095 214.056 99.8733C215.04 98.5797 216.103 96.9966 217.245 95.124C218.392 93.1789 219.481 91.1602 220.512 89.0682C221.547 86.9035 222.404 84.9543 223.084 83.2205C223.809 81.4146 224.199 80.0399 224.254 79.0964C224.301 78.2979 224.189 77.7515 223.917 77.4571C223.686 77.1633 223.365 77.0134 222.952 77.0076C222.292 76.9982 221.544 77.4235 220.709 78.2834C219.919 79.0713 219.274 79.8613 218.774 80.6533C218.232 81.4447 217.559 82.7064 216.756 84.4385C215.998 86.0986 215.229 87.9401 214.45 89.9631C213.671 91.9861 212.999 93.9379 212.435 95.8187C211.87 97.6994 211.554 99.2204 211.486 100.382C211.435 101.253 211.575 101.691 211.905 101.695Z" stroke="#8F8888" stroke-width="76" stroke-linejoin="round" mask="url(#path-1-outside-1_124_122)"/>
</g>
<path d="M91.5852 115.364V127H90.8693V116.023H84.2045V127H83.4943V115.364H91.5852ZM94.5156 130.273V118.273H95.1918V120.222H95.277C95.4134 119.847 95.6046 119.502 95.8509 119.188C96.1009 118.873 96.4096 118.621 96.777 118.432C97.1482 118.239 97.5838 118.142 98.0838 118.142C98.7884 118.142 99.402 118.335 99.9247 118.722C100.447 119.108 100.853 119.642 101.141 120.324C101.429 121.002 101.572 121.78 101.572 122.659C101.572 123.538 101.427 124.318 101.135 125C100.847 125.678 100.442 126.212 99.919 126.602C99.4001 126.989 98.7921 127.182 98.0952 127.182C97.599 127.182 97.1634 127.087 96.7884 126.898C96.4171 126.708 96.1046 126.456 95.8509 126.142C95.6009 125.824 95.4096 125.475 95.277 125.097H95.2088V130.273H94.5156ZM95.1974 122.653C95.1974 123.396 95.3111 124.061 95.5384 124.648C95.7656 125.231 96.0914 125.693 96.5156 126.034C96.9399 126.371 97.4455 126.54 98.0327 126.54C98.6274 126.54 99.1368 126.369 99.5611 126.028C99.9891 125.684 100.315 125.218 100.538 124.631C100.766 124.044 100.879 123.384 100.879 122.653C100.879 121.922 100.768 121.265 100.544 120.682C100.321 120.098 99.9967 119.638 99.5724 119.301C99.1482 118.96 98.6349 118.79 98.0327 118.79C97.438 118.79 96.9285 118.958 96.5043 119.295C96.0838 119.629 95.7599 120.087 95.5327 120.67C95.3092 121.25 95.1974 121.911 95.1974 122.653ZM107.213 127.182C106.493 127.182 105.853 126.989 105.293 126.602C104.732 126.212 104.291 125.676 103.969 124.994C103.647 124.312 103.486 123.536 103.486 122.665C103.486 121.79 103.647 121.013 103.969 120.335C104.291 119.653 104.732 119.117 105.293 118.727C105.853 118.337 106.493 118.142 107.213 118.142C107.933 118.142 108.573 118.337 109.134 118.727C109.694 119.117 110.135 119.653 110.457 120.335C110.779 121.017 110.94 121.794 110.94 122.665C110.94 123.536 110.779 124.312 110.457 124.994C110.135 125.676 109.694 126.212 109.134 126.602C108.573 126.989 107.933 127.182 107.213 127.182ZM107.213 126.54C107.823 126.54 108.355 126.367 108.81 126.023C109.268 125.678 109.622 125.212 109.872 124.625C110.126 124.038 110.253 123.384 110.253 122.665C110.253 121.945 110.126 121.294 109.872 120.71C109.618 120.123 109.264 119.657 108.81 119.312C108.355 118.964 107.823 118.79 107.213 118.79C106.603 118.79 106.071 118.964 105.616 119.312C105.162 119.657 104.808 120.123 104.554 120.71C104.3 121.294 104.173 121.945 104.173 122.665C104.173 123.384 104.298 124.038 104.548 124.625C104.802 125.212 105.156 125.678 105.611 126.023C106.069 126.367 106.603 126.54 107.213 126.54ZM112.203 129.472V126.341H112.982C113.179 126.102 113.353 125.847 113.504 125.574C113.656 125.297 113.786 124.992 113.896 124.659C114.01 124.322 114.105 123.945 114.18 123.528C114.26 123.108 114.322 122.638 114.368 122.119L114.709 118.273H119.499V126.341H120.749V129.472H120.055V127H112.891V129.472H112.203ZM113.794 126.341H118.805V118.932H115.345L115.05 122.119C114.963 123.04 114.822 123.843 114.629 124.528C114.436 125.214 114.158 125.818 113.794 126.341ZM123.369 130.273C123.195 130.273 123.023 130.254 122.852 130.216C122.682 130.178 122.528 130.129 122.392 130.068L122.597 129.46C122.953 129.597 123.275 129.646 123.562 129.608C123.854 129.57 124.112 129.438 124.335 129.21C124.559 128.983 124.748 128.65 124.903 128.21L125.301 127.119L122.102 118.273H122.847L125.619 126.108H125.676L128.449 118.273H129.193L125.511 128.483C125.371 128.877 125.195 129.206 124.983 129.472C124.771 129.737 124.528 129.936 124.256 130.068C123.987 130.205 123.691 130.273 123.369 130.273ZM131.359 127V118.273H132.053V122.324H133.058L136.405 118.273H137.303L133.825 122.46L137.405 127H136.518L133.371 122.983H132.053V127H131.359ZM138.724 118.932V118.273H145.27V118.932H142.361V127H141.668V118.932H138.724ZM184.843 115L185.212 115.46C184.996 115.672 184.731 115.811 184.416 115.875C184.106 115.939 183.763 115.973 183.388 115.977C183.013 115.981 182.627 115.994 182.229 116.017C181.479 116.055 180.869 116.256 180.399 116.619C179.93 116.983 179.575 117.498 179.337 118.165C179.098 118.831 178.956 119.646 178.911 120.608H179.013C179.301 119.964 179.718 119.46 180.263 119.097C180.808 118.729 181.42 118.545 182.098 118.545C182.753 118.545 183.344 118.714 183.871 119.051C184.401 119.388 184.82 119.875 185.127 120.511C185.437 121.144 185.593 121.907 185.593 122.801C185.593 123.684 185.439 124.453 185.132 125.108C184.829 125.763 184.403 126.273 183.854 126.636C183.305 127 182.664 127.182 181.933 127.182C181.183 127.182 180.534 127.009 179.985 126.665C179.435 126.32 179.009 125.814 178.706 125.148C178.407 124.477 178.257 123.655 178.257 122.682V121.778C178.257 119.657 178.57 118.072 179.195 117.023C179.824 115.973 180.812 115.42 182.161 115.364C182.551 115.345 182.913 115.339 183.246 115.347C183.583 115.354 183.886 115.337 184.155 115.295C184.424 115.254 184.653 115.155 184.843 115ZM181.933 126.54C182.536 126.54 183.058 126.384 183.502 126.074C183.949 125.763 184.293 125.33 184.536 124.773C184.778 124.212 184.899 123.555 184.899 122.801C184.899 122.051 184.774 121.407 184.524 120.869C184.278 120.328 183.935 119.913 183.496 119.625C183.06 119.333 182.558 119.188 181.99 119.188C181.517 119.188 181.093 119.288 180.718 119.489C180.343 119.689 180.024 119.964 179.763 120.312C179.502 120.661 179.301 121.059 179.161 121.506C179.021 121.953 178.949 122.422 178.945 122.915C178.945 124.055 179.21 124.945 179.74 125.585C180.274 126.222 181.005 126.54 181.933 126.54ZM190.303 127.188C189.799 127.188 189.337 127.087 188.916 126.886C188.5 126.686 188.164 126.392 187.911 126.006C187.661 125.619 187.536 125.15 187.536 124.597C187.536 124.233 187.6 123.913 187.729 123.636C187.858 123.36 188.057 123.121 188.325 122.92C188.594 122.72 188.939 122.555 189.36 122.426C189.78 122.294 190.282 122.191 190.865 122.119C191.308 122.066 191.704 122.015 192.053 121.966C192.401 121.913 192.674 121.831 192.871 121.722C193.072 121.612 193.172 121.445 193.172 121.222V120.858C193.172 120.222 192.971 119.716 192.57 119.341C192.168 118.966 191.615 118.778 190.911 118.778C190.286 118.778 189.759 118.917 189.331 119.193C188.907 119.466 188.61 119.818 188.439 120.25L187.786 120.006C187.952 119.589 188.193 119.242 188.507 118.966C188.825 118.689 189.189 118.483 189.598 118.347C190.011 118.21 190.443 118.142 190.894 118.142C191.284 118.142 191.655 118.197 192.007 118.307C192.363 118.417 192.68 118.583 192.956 118.807C193.236 119.03 193.458 119.316 193.621 119.665C193.784 120.009 193.865 120.422 193.865 120.903V127H193.172V125.426H193.121C192.969 125.752 192.761 126.049 192.496 126.318C192.235 126.583 191.918 126.795 191.547 126.955C191.18 127.11 190.765 127.188 190.303 127.188ZM190.371 126.545C190.916 126.545 191.399 126.413 191.82 126.148C192.244 125.879 192.575 125.511 192.814 125.045C193.053 124.58 193.172 124.051 193.172 123.46V122.176C193.085 122.252 192.958 122.32 192.791 122.381C192.628 122.437 192.443 122.489 192.235 122.534C192.03 122.576 191.814 122.614 191.587 122.648C191.363 122.678 191.146 122.706 190.933 122.733C190.297 122.809 189.778 122.926 189.377 123.085C188.979 123.241 188.687 123.445 188.502 123.699C188.32 123.953 188.229 124.259 188.229 124.619C188.229 125.214 188.433 125.684 188.843 126.028C189.252 126.373 189.761 126.545 190.371 126.545ZM196.771 127V118.273H197.465V122.324H198.47L201.817 118.273H202.715L199.237 122.46L202.817 127H201.931L198.783 122.983H197.465V127H196.771ZM207.006 127.188C206.502 127.188 206.04 127.087 205.619 126.886C205.203 126.686 204.868 126.392 204.614 126.006C204.364 125.619 204.239 125.15 204.239 124.597C204.239 124.233 204.303 123.913 204.432 123.636C204.561 123.36 204.76 123.121 205.029 122.92C205.298 122.72 205.642 122.555 206.063 122.426C206.483 122.294 206.985 122.191 207.568 122.119C208.012 122.066 208.407 122.015 208.756 121.966C209.104 121.913 209.377 121.831 209.574 121.722C209.775 121.612 209.875 121.445 209.875 121.222V120.858C209.875 120.222 209.674 119.716 209.273 119.341C208.871 118.966 208.318 118.778 207.614 118.778C206.989 118.778 206.462 118.917 206.034 119.193C205.61 119.466 205.313 119.818 205.142 120.25L204.489 120.006C204.655 119.589 204.896 119.242 205.21 118.966C205.529 118.689 205.892 118.483 206.301 118.347C206.714 118.21 207.146 118.142 207.597 118.142C207.987 118.142 208.358 118.197 208.71 118.307C209.066 118.417 209.383 118.583 209.659 118.807C209.94 119.03 210.161 119.316 210.324 119.665C210.487 120.009 210.568 120.422 210.568 120.903V127H209.875V125.426H209.824C209.673 125.752 209.464 126.049 209.199 126.318C208.938 126.583 208.621 126.795 208.25 126.955C207.883 127.11 207.468 127.188 207.006 127.188ZM207.074 126.545C207.619 126.545 208.102 126.413 208.523 126.148C208.947 125.879 209.279 125.511 209.517 125.045C209.756 124.58 209.875 124.051 209.875 123.46V122.176C209.788 122.252 209.661 122.32 209.494 122.381C209.332 122.437 209.146 122.489 208.938 122.534C208.733 122.576 208.517 122.614 208.29 122.648C208.066 122.678 207.849 122.706 207.637 122.733C207 122.809 206.481 122.926 206.08 123.085C205.682 123.241 205.39 123.445 205.205 123.699C205.023 123.953 204.932 124.259 204.932 124.619C204.932 125.214 205.137 125.684 205.546 126.028C205.955 126.373 206.464 126.545 207.074 126.545ZM212.537 127V126.341H212.764C213.124 126.341 213.408 126.278 213.617 126.153C213.825 126.025 213.98 125.816 214.083 125.528C214.189 125.241 214.264 124.856 214.31 124.375C214.355 123.89 214.395 123.29 214.429 122.574L214.651 118.273H219.923V127H219.236V118.932H215.304L215.105 122.756C215.071 123.46 215.022 124.078 214.958 124.608C214.897 125.138 214.793 125.581 214.645 125.938C214.501 126.29 214.283 126.555 213.992 126.733C213.7 126.911 213.306 127 212.81 127H212.537ZM226.237 127.182C225.45 127.182 224.764 126.987 224.181 126.597C223.597 126.206 223.146 125.672 222.828 124.994C222.51 124.316 222.351 123.544 222.351 122.676C222.351 121.805 222.51 121.028 222.828 120.347C223.15 119.665 223.592 119.127 224.152 118.733C224.713 118.339 225.353 118.142 226.073 118.142C226.561 118.142 227.023 118.241 227.459 118.438C227.898 118.631 228.285 118.911 228.618 119.278C228.955 119.646 229.218 120.089 229.408 120.608C229.601 121.127 229.698 121.71 229.698 122.358V122.79H222.789V122.159H229.004C229.004 121.527 228.876 120.956 228.618 120.449C228.36 119.941 228.01 119.538 227.567 119.239C227.124 118.939 226.626 118.79 226.073 118.79C225.493 118.79 224.976 118.953 224.521 119.278C224.071 119.6 223.713 120.036 223.448 120.585C223.186 121.134 223.05 121.748 223.039 122.426V122.71C223.039 123.437 223.165 124.091 223.419 124.67C223.677 125.246 224.044 125.703 224.521 126.04C224.999 126.373 225.571 126.54 226.237 126.54C226.715 126.54 227.122 126.46 227.459 126.301C227.8 126.138 228.078 125.941 228.294 125.71C228.51 125.479 228.673 125.256 228.783 125.04L229.414 125.295C229.281 125.587 229.075 125.879 228.794 126.17C228.518 126.458 228.165 126.699 227.737 126.892C227.313 127.085 226.813 127.182 226.237 127.182Z" fill="black"/>
<path d="M148.384 121.215H151.312C152.373 121.215 153.2 121.458 153.792 121.944C154.384 122.43 154.68 123.143 154.68 124.085C154.68 124.712 154.546 125.242 154.278 125.677C154.013 126.112 153.63 126.442 153.127 126.668C152.624 126.889 152.019 127 151.312 127H147.796V117.182H148.57V126.259H151.312C152.104 126.259 152.735 126.086 153.204 125.741C153.673 125.391 153.907 124.848 153.907 124.111C153.907 123.378 153.673 122.837 153.204 122.487C152.735 122.134 152.104 121.957 151.312 121.957H148.384V121.215ZM156.425 127V117.182H157.205V127H156.425Z" fill="#F5BB01"/>
<path d="M165.48 126.097L170.486 118.273H171.367V127H170.673V119.176L165.673 127H164.787V118.273H165.48V126.097Z" fill="#413F3F"/>
<path d="M238.588 127V117.399L235.639 117.412C234.771 117.412 234.13 117.574 233.716 117.898C233.307 118.222 233.102 118.744 233.102 119.463C233.102 120.174 233.305 120.691 233.71 121.015C234.115 121.339 234.738 121.501 235.579 121.501H238.871V122.284H235.579C234.845 122.284 234.234 122.18 233.743 121.973C233.258 121.762 232.893 121.447 232.65 121.029C232.407 120.61 232.286 120.089 232.286 119.463C232.286 118.834 232.41 118.31 232.657 117.891C232.905 117.473 233.276 117.16 233.77 116.953C234.27 116.742 234.893 116.636 235.639 116.636H239.384V127H238.588ZM231.537 127L234.56 121.845H235.471L232.448 127H231.537Z" fill="#3FC703"/>
<path d="M246.833 81.0876C246.833 82.5785 246.833 84.0695 246.833 85.5604C246.833 87.1149 246.236 84.5227 246.236 83.937C246.236 79.3375 245.15 82.3964 244.182 85.1629C243.602 86.8193 242.863 88.6189 240.869 88.8405C238.53 89.1004 243.982 81.668 240.869 85.9912C239.467 87.9378 237.308 91.7719 239.544 87.0514C240.049 85.9847 240.579 84.3322 240.836 83.1749C241.398 80.6462 238.151 84.9649 237.887 85.2623C234.669 88.8822 236.216 82.7131 237.754 80.9551C238.54 80.0568 236.094 82.7019 235.501 83.7382C235.016 84.5878 234.896 82.8544 234.938 82.5785C235.12 81.3939 236.072 80.8738 236.562 79.8948C238.603 75.8122 233.549 81.4555 232.652 80.3587C231.838 79.3632 232.296 75.4221 233.414 74.5274C234.004 74.0557 233.703 78.7806 233.712 79.6298C233.791 87.1305 235.291 96.0931 241.001 101.232C241.736 101.893 243.851 101.52 243.851 100.47C243.851 98.2624 243.18 98.6107 242.062 97.0573C241.048 95.6498 239.935 94.2472 239.08 92.7501C238.317 91.4153 237.291 93.0327 237.291 90.6297C237.291 86.1585 239.952 91.6134 241.333 93.1477C242.375 94.3061 245.044 98.5855 245.044 94.8044C245.044 92.1673 244.858 89.4369 241.465 89.4369C239.752 89.4369 238.689 88.3803 240.272 89.1719C241.021 89.5463 243.224 91.7607 242.658 90.6297" stroke="#8F8888" stroke-width="3" stroke-linecap="round"/>
<path d="M237.182 85.0359C237.182 85.8242 237.182 86.6126 237.182 87.4009C237.182 87.5241 237.232 90.1514 237.819 89.0746C238.271 88.2461 238.165 87.0997 238.165 86.182C238.165 85.7546 239.434 86.0796 237.837 86.3458" stroke="#8F8888" stroke-width="3" stroke-linecap="round"/>
<defs>
<filter id="filter0_d_124_122" x="0.153076" y="0.290527" width="282.182" height="157.846" filterUnits="userSpaceOnUse" color-interpolation-filters="sRGB">
<feFlood flood-opacity="0" result="BackgroundImageFix"/>
<feColorMatrix in="SourceAlpha" type="matrix" values="0 0 0 0 0 0 0 0 0 0 0 0 0 0 0 0 0 0 127 0" result="hardAlpha"/>
<feOffset dx="10" dy="10"/>
<feGaussianBlur stdDeviation="2"/>
<feComposite in2="hardAlpha" operator="out"/>
<feColorMatrix type="matrix" values="0 0 0 0 0.391667 0 0 0 0 0.3525 0 0 0 0 0.3525 0 0 0 1 0"/>
<feBlend mode="normal" in2="BackgroundImageFix" result="effect1_dropShadow_124_122"/>
<feBlend mode="normal" in="SourceGraphic" in2="effect1_dropShadow_124_122" result="shape"/>
</filter>
</defs>
</svg>
